<ttFont>
    <TTGlyph name="A" xMin="-40" yMin="-11" xMax="763" yMax="701">
      <contour>
        <pt x="205" y="115" on="1"/>
        <pt x="391" y="657" on="1"/>
        <pt x="407" y="701" on="0"/>
        <pt x="411" y="701" on="1"/>
        <pt x="419" y="701" on="0"/>
        <pt x="439" y="646" on="1"/>
        <pt x="656" y="70" on="1"/>
        <pt x="667" y="38" on="0"/>
        <pt x="706" y="38" on="1"/>
        <pt x="729" y="38" on="0"/>
        <pt x="740" y="56" on="1"/>
        <pt x="744" y="63" on="0"/>
        <pt x="752" y="78" on="0"/>
        <pt x="754" y="78" on="1"/>
        <pt x="763" y="78" on="0"/>
        <pt x="763" y="54" on="0"/>
        <pt x="701" y="-8" on="0"/>
        <pt x="646" y="-8" on="1"/>
        <pt x="577" y="-8" on="0"/>
        <pt x="554" y="53" on="1"/>
        <pt x="493" y="216" on="1"/>
        <pt x="260" y="216" on="1"/>
        <pt x="219" y="97" on="1"/>
        <pt x="198" y="36" on="0"/>
        <pt x="137" y="-11" on="0"/>
        <pt x="92" y="-11" on="1"/>
        <pt x="32" y="-11" on="0"/>
        <pt x="-40" y="79" on="0"/>
        <pt x="-40" y="184" on="0"/>
        <pt x="13" y="248" on="0"/>
        <pt x="55" y="248" on="1"/>
        <pt x="75" y="248" on="0"/>
        <pt x="97" y="236" on="1"/>
        <pt x="130" y="218" on="0"/>
        <pt x="130" y="198" on="1"/>
        <pt x="130" y="190" on="0"/>
        <pt x="121" y="190" on="0"/>
        <pt x="111" y="200" on="1"/>
        <pt x="82" y="229" on="0"/>
        <pt x="18" y="229" on="0"/>
        <pt x="-20" y="173" on="0"/>
        <pt x="-20" y="82" on="0"/>
        <pt x="48" y="8" on="0"/>
        <pt x="134" y="8" on="0"/>
        <pt x="183" y="53" on="0"/>
      </contour>
      <contour>
        <pt x="372" y="542" on="1"/>
        <pt x="266" y="235" on="1"/>
        <pt x="486" y="235" on="1"/>
      </contour>
    </TTGlyph>
    <TTGlyph name="AE" xMin="12" yMin="-5" xMax="805" yMax="696">
      <contour>
        <pt x="276" y="121" on="1"/>
        <pt x="492" y="696" on="1"/>
        <pt x="805" y="696" on="1"/>
        <pt x="805" y="671" on="1"/>
        <pt x="593" y="671" on="1"/>
        <pt x="593" y="380" on="1"/>
        <pt x="755" y="380" on="1"/>
        <pt x="755" y="355" on="1"/>
        <pt x="593" y="355" on="1"/>
        <pt x="593" y="25" on="1"/>
        <pt x="805" y="25" on="1"/>
        <pt x="805" y="0" on="1"/>
        <pt x="505" y="0" on="1"/>
        <pt x="505" y="216" on="1"/>
        <pt x="341" y="216" on="1"/>
        <pt x="298" y="103" on="1"/>
        <pt x="278" y="51" on="0"/>
        <pt x="191" y="-5" on="0"/>
        <pt x="84" y="-5" on="0"/>
        <pt x="12" y="85" on="0"/>
        <pt x="12" y="191" on="0"/>
        <pt x="65" y="254" on="0"/>
        <pt x="107" y="254" on="1"/>
        <pt x="131" y="254" on="0"/>
        <pt x="171" y="231" on="0"/>
        <pt x="180" y="213" on="1"/>
        <pt x="182" y="209" on="0"/>
        <pt x="182" y="203" on="0"/>
        <pt x="175" y="195" on="0"/>
        <pt x="171" y="195" on="1"/>
        <pt x="163" y="203" on="1"/>
        <pt x="133" y="233" on="0"/>
        <pt x="69" y="233" on="0"/>
        <pt x="35" y="173" on="0"/>
        <pt x="35" y="90" on="0"/>
        <pt x="96" y="21" on="0"/>
        <pt x="187" y="21" on="0"/>
        <pt x="259" y="77" on="0"/>
      </contour>
      <contour>
        <pt x="508" y="671" on="1"/>
        <pt x="350" y="241" on="1"/>
        <pt x="505" y="241" on="1"/>
        <pt x="505" y="319" on="0"/>
        <pt x="508" y="595" on="0"/>
      </contour>
    </TTGlyph>
    <TTGlyph name="Aacute" xMin="-40" yMin="-11" xMax="763" yMax="947">
      <contour>
        <pt x="205" y="115" on="1"/>
        <pt x="391" y="657" on="1"/>
        <pt x="407" y="701" on="0"/>
        <pt x="411" y="701" on="1"/>
        <pt x="419" y="701" on="0"/>
        <pt x="439" y="646" on="1"/>
        <pt x="656" y="70" on="1"/>
        <pt x="667" y="38" on="0"/>
        <pt x="706" y="38" on="1"/>
        <pt x="729" y="38" on="0"/>
        <pt x="740" y="56" on="1"/>
        <pt x="744" y="63" on="0"/>
        <pt x="752" y="78" on="0"/>
        <pt x="754" y="78" on="1"/>
        <pt x="763" y="78" on="0"/>
        <pt x="763" y="54" on="0"/>
        <pt x="701" y="-8" on="0"/>
        <pt x="646" y="-8" on="1"/>
        <pt x="577" y="-8" on="0"/>
        <pt x="554" y="53" on="1"/>
        <pt x="493" y="216" on="1"/>
        <pt x="260" y="216" on="1"/>
        <pt x="219" y="97" on="1"/>
        <pt x="198" y="36" on="0"/>
        <pt x="137" y="-11" on="0"/>
        <pt x="92" y="-11" on="1"/>
        <pt x="32" y="-11" on="0"/>
        <pt x="-40" y="79" on="0"/>
        <pt x="-40" y="184" on="0"/>
        <pt x="13" y="248" on="0"/>
        <pt x="55" y="248" on="1"/>
        <pt x="75" y="248" on="0"/>
        <pt x="97" y="236" on="1"/>
        <pt x="130" y="218" on="0"/>
        <pt x="130" y="198" on="1"/>
        <pt x="130" y="190" on="0"/>
        <pt x="121" y="190" on="0"/>
        <pt x="111" y="200" on="1"/>
        <pt x="82" y="229" on="0"/>
        <pt x="18" y="229" on="0"/>
        <pt x="-20" y="173" on="0"/>
        <pt x="-20" y="82" on="0"/>
        <pt x="48" y="8" on="0"/>
        <pt x="134" y="8" on="0"/>
        <pt x="183" y="53" on="0"/>
      </contour>
      <contour>
        <pt x="372" y="542" on="1"/>
        <pt x="266" y="235" on="1"/>
        <pt x="486" y="235" on="1"/>
      </contour>
      <contour>
        <pt x="532" y="947" on="1"/>
        <pt x="418" y="827" on="1"/>
        <pt x="369" y="827" on="1"/>
        <pt x="432" y="947" on="1"/>
      </contour>
    </TTGlyph>
    <TTGlyph name="Acircumflex" xMin="-40" yMin="-11" xMax="763" yMax="927">
      <contour>
        <pt x="205" y="115" on="1"/>
        <pt x="391" y="657" on="1"/>
        <pt x="407" y="701" on="0"/>
        <pt x="411" y="701" on="1"/>
        <pt x="419" y="701" on="0"/>
        <pt x="439" y="646" on="1"/>
        <pt x="656" y="70" on="1"/>
        <pt x="667" y="38" on="0"/>
        <pt x="706" y="38" on="1"/>
        <pt x="729" y="38" on="0"/>
        <pt x="740" y="56" on="1"/>
        <pt x="744" y="63" on="0"/>
        <pt x="752" y="78" on="0"/>
        <pt x="754" y="78" on="1"/>
        <pt x="763" y="78" on="0"/>
        <pt x="763" y="54" on="0"/>
        <pt x="701" y="-8" on="0"/>
        <pt x="646" y="-8" on="1"/>
        <pt x="577" y="-8" on="0"/>
        <pt x="554" y="53" on="1"/>
        <pt x="493" y="216" on="1"/>
        <pt x="260" y="216" on="1"/>
        <pt x="219" y="97" on="1"/>
        <pt x="198" y="36" on="0"/>
        <pt x="137" y="-11" on="0"/>
        <pt x="92" y="-11" on="1"/>
        <pt x="32" y="-11" on="0"/>
        <pt x="-40" y="79" on="0"/>
        <pt x="-40" y="184" on="0"/>
        <pt x="13" y="248" on="0"/>
        <pt x="55" y="248" on="1"/>
        <pt x="75" y="248" on="0"/>
        <pt x="97" y="236" on="1"/>
        <pt x="130" y="218" on="0"/>
        <pt x="130" y="198" on="1"/>
        <pt x="130" y="190" on="0"/>
        <pt x="121" y="190" on="0"/>
        <pt x="111" y="200" on="1"/>
        <pt x="82" y="229" on="0"/>
        <pt x="18" y="229" on="0"/>
        <pt x="-20" y="173" on="0"/>
        <pt x="-20" y="82" on="0"/>
        <pt x="48" y="8" on="0"/>
        <pt x="134" y="8" on="0"/>
        <pt x="183" y="53" on="0"/>
      </contour>
      <contour>
        <pt x="372" y="542" on="1"/>
        <pt x="266" y="235" on="1"/>
        <pt x="486" y="235" on="1"/>
      </contour>
      <contour>
        <pt x="409" y="927" on="1"/>
        <pt x="576" y="753" on="1"/>
        <pt x="521" y="753" on="1"/>
        <pt x="409" y="867" on="1"/>
        <pt x="305" y="754" on="1"/>
        <pt x="250" y="754" on="1"/>
      </contour>
    </TTGlyph>
    <TTGlyph name="Adieresis" xMin="-40" yMin="-11" xMax="763" yMax="885">
      <contour>
        <pt x="205" y="115" on="1"/>
        <pt x="391" y="657" on="1"/>
        <pt x="407" y="701" on="0"/>
        <pt x="411" y="701" on="1"/>
        <pt x="419" y="701" on="0"/>
        <pt x="439" y="646" on="1"/>
        <pt x="656" y="70" on="1"/>
        <pt x="667" y="38" on="0"/>
        <pt x="706" y="38" on="1"/>
        <pt x="729" y="38" on="0"/>
        <pt x="740" y="56" on="1"/>
        <pt x="744" y="63" on="0"/>
        <pt x="752" y="78" on="0"/>
        <pt x="754" y="78" on="1"/>
        <pt x="763" y="78" on="0"/>
        <pt x="763" y="54" on="0"/>
        <pt x="701" y="-8" on="0"/>
        <pt x="646" y="-8" on="1"/>
        <pt x="577" y="-8" on="0"/>
        <pt x="554" y="53" on="1"/>
        <pt x="493" y="216" on="1"/>
        <pt x="260" y="216" on="1"/>
        <pt x="219" y="97" on="1"/>
        <pt x="198" y="36" on="0"/>
        <pt x="137" y="-11" on="0"/>
        <pt x="92" y="-11" on="1"/>
        <pt x="32" y="-11" on="0"/>
        <pt x="-40" y="79" on="0"/>
        <pt x="-40" y="184" on="0"/>
        <pt x="13" y="248" on="0"/>
        <pt x="55" y="248" on="1"/>
        <pt x="75" y="248" on="0"/>
        <pt x="97" y="236" on="1"/>
        <pt x="130" y="218" on="0"/>
        <pt x="130" y="198" on="1"/>
        <pt x="130" y="190" on="0"/>
        <pt x="121" y="190" on="0"/>
        <pt x="111" y="200" on="1"/>
        <pt x="82" y="229" on="0"/>
        <pt x="18" y="229" on="0"/>
        <pt x="-20" y="173" on="0"/>
        <pt x="-20" y="82" on="0"/>
        <pt x="48" y="8" on="0"/>
        <pt x="134" y="8" on="0"/>
        <pt x="183" y="53" on="0"/>
      </contour>
      <contour>
        <pt x="372" y="542" on="1"/>
        <pt x="266" y="235" on="1"/>
        <pt x="486" y="235" on="1"/>
      </contour>
      <contour>
        <pt x="249" y="810" on="0"/>
        <pt x="249" y="854" on="0"/>
        <pt x="280" y="885" on="0"/>
        <pt x="324" y="885" on="0"/>
        <pt x="356" y="854" on="0"/>
        <pt x="356" y="810" on="0"/>
        <pt x="324" y="779" on="0"/>
        <pt x="280" y="779" on="0"/>
      </contour>
      <contour>
        <pt x="468" y="810" on="0"/>
        <pt x="468" y="854" on="0"/>
        <pt x="499" y="885" on="0"/>
        <pt x="543" y="885" on="0"/>
        <pt x="575" y="854" on="0"/>
        <pt x="575" y="810" on="0"/>
        <pt x="543" y="779" on="0"/>
        <pt x="499" y="779" on="0"/>
      </contour>
    </TTGlyph>
    <TTGlyph name="Agrave" xMin="-40" yMin="-11" xMax="763" yMax="947">
      <contour>
        <pt x="205" y="115" on="1"/>
        <pt x="391" y="657" on="1"/>
        <pt x="407" y="701" on="0"/>
        <pt x="411" y="701" on="1"/>
        <pt x="419" y="701" on="0"/>
        <pt x="439" y="646" on="1"/>
        <pt x="656" y="70" on="1"/>
        <pt x="667" y="38" on="0"/>
        <pt x="706" y="38" on="1"/>
        <pt x="729" y="38" on="0"/>
        <pt x="740" y="56" on="1"/>
        <pt x="744" y="63" on="0"/>
        <pt x="752" y="78" on="0"/>
        <pt x="754" y="78" on="1"/>
        <pt x="763" y="78" on="0"/>
        <pt x="763" y="54" on="0"/>
        <pt x="701" y="-8" on="0"/>
        <pt x="646" y="-8" on="1"/>
        <pt x="577" y="-8" on="0"/>
        <pt x="554" y="53" on="1"/>
        <pt x="493" y="216" on="1"/>
        <pt x="260" y="216" on="1"/>
        <pt x="219" y="97" on="1"/>
        <pt x="198" y="36" on="0"/>
        <pt x="137" y="-11" on="0"/>
        <pt x="92" y="-11" on="1"/>
        <pt x="32" y="-11" on="0"/>
        <pt x="-40" y="79" on="0"/>
        <pt x="-40" y="184" on="0"/>
        <pt x="13" y="248" on="0"/>
        <pt x="55" y="248" on="1"/>
        <pt x="75" y="248" on="0"/>
        <pt x="97" y="236" on="1"/>
        <pt x="130" y="218" on="0"/>
        <pt x="130" y="198" on="1"/>
        <pt x="130" y="190" on="0"/>
        <pt x="121" y="190" on="0"/>
        <pt x="111" y="200" on="1"/>
        <pt x="82" y="229" on="0"/>
        <pt x="18" y="229" on="0"/>
        <pt x="-20" y="173" on="0"/>
        <pt x="-20" y="82" on="0"/>
        <pt x="48" y="8" on="0"/>
        <pt x="134" y="8" on="0"/>
        <pt x="183" y="53" on="0"/>
      </contour>
      <contour>
        <pt x="372" y="542" on="1"/>
        <pt x="266" y="235" on="1"/>
        <pt x="486" y="235" on="1"/>
      </contour>
      <contour>
        <pt x="393" y="827" on="1"/>
        <pt x="279" y="947" on="1"/>
        <pt x="379" y="947" on="1"/>
        <pt x="442" y="827" on="1"/>
      </contour>
    </TTGlyph>
    <TTGlyph name="Aring" xMin="-39" yMin="-11" xMax="764" yMax="817">
      <contour>
        <pt x="206" y="115" on="1"/>
        <pt x="397" y="670" on="1"/>
        <pt x="372" y="676" on="0"/>
        <pt x="340" y="717" on="0"/>
        <pt x="340" y="773" on="0"/>
        <pt x="384" y="817" on="0"/>
        <pt x="445" y="817" on="0"/>
        <pt x="489" y="773" on="0"/>
        <pt x="489" y="716" on="0"/>
        <pt x="455" y="675" on="0"/>
        <pt x="431" y="670" on="1"/>
        <pt x="657" y="70" on="1"/>
        <pt x="670" y="38" on="0"/>
        <pt x="707" y="38" on="1"/>
        <pt x="730" y="38" on="0"/>
        <pt x="741" y="56" on="1"/>
        <pt x="745" y="63" on="0"/>
        <pt x="752" y="78" on="0"/>
        <pt x="755" y="78" on="1"/>
        <pt x="764" y="78" on="0"/>
        <pt x="764" y="54" on="0"/>
        <pt x="702" y="-8" on="0"/>
        <pt x="647" y="-8" on="1"/>
        <pt x="578" y="-8" on="0"/>
        <pt x="555" y="53" on="1"/>
        <pt x="494" y="216" on="1"/>
        <pt x="261" y="216" on="1"/>
        <pt x="220" y="97" on="1"/>
        <pt x="199" y="36" on="0"/>
        <pt x="138" y="-11" on="0"/>
        <pt x="93" y="-11" on="1"/>
        <pt x="33" y="-11" on="0"/>
        <pt x="-39" y="79" on="0"/>
        <pt x="-39" y="184" on="0"/>
        <pt x="14" y="248" on="0"/>
        <pt x="56" y="248" on="1"/>
        <pt x="76" y="248" on="0"/>
        <pt x="98" y="236" on="1"/>
        <pt x="131" y="218" on="0"/>
        <pt x="131" y="198" on="1"/>
        <pt x="131" y="190" on="0"/>
        <pt x="122" y="190" on="0"/>
        <pt x="112" y="200" on="1"/>
        <pt x="83" y="229" on="0"/>
        <pt x="19" y="229" on="0"/>
        <pt x="-19" y="173" on="0"/>
        <pt x="-19" y="82" on="0"/>
        <pt x="49" y="8" on="0"/>
        <pt x="135" y="8" on="0"/>
        <pt x="184" y="53" on="0"/>
      </contour>
      <contour>
        <pt x="373" y="542" on="1"/>
        <pt x="267" y="235" on="1"/>
        <pt x="487" y="235" on="1"/>
      </contour>
      <contour>
        <pt x="395" y="793" on="0"/>
        <pt x="365" y="763" on="0"/>
        <pt x="365" y="725" on="0"/>
        <pt x="388" y="697" on="0"/>
        <pt x="405" y="694" on="1"/>
        <pt x="409" y="701" on="0"/>
        <pt x="415" y="701" on="0"/>
        <pt x="420" y="693" on="1"/>
        <pt x="439" y="695" on="0"/>
        <pt x="465" y="724" on="0"/>
        <pt x="465" y="763" on="0"/>
        <pt x="435" y="793" on="0"/>
      </contour>
    </TTGlyph>
    <TTGlyph name="Atilde" xMin="-40" yMin="-11" xMax="763" yMax="907">
      <contour>
        <pt x="205" y="115" on="1"/>
        <pt x="391" y="657" on="1"/>
        <pt x="407" y="701" on="0"/>
        <pt x="411" y="701" on="1"/>
        <pt x="419" y="701" on="0"/>
        <pt x="439" y="646" on="1"/>
        <pt x="656" y="70" on="1"/>
        <pt x="667" y="38" on="0"/>
        <pt x="706" y="38" on="1"/>
        <pt x="729" y="38" on="0"/>
        <pt x="740" y="56" on="1"/>
        <pt x="744" y="63" on="0"/>
        <pt x="752" y="78" on="0"/>
        <pt x="754" y="78" on="1"/>
        <pt x="763" y="78" on="0"/>
        <pt x="763" y="54" on="0"/>
        <pt x="701" y="-8" on="0"/>
        <pt x="646" y="-8" on="1"/>
        <pt x="577" y="-8" on="0"/>
        <pt x="554" y="53" on="1"/>
        <pt x="493" y="216" on="1"/>
        <pt x="260" y="216" on="1"/>
        <pt x="219" y="97" on="1"/>
        <pt x="198" y="36" on="0"/>
        <pt x="137" y="-11" on="0"/>
        <pt x="92" y="-11" on="1"/>
        <pt x="32" y="-11" on="0"/>
        <pt x="-40" y="79" on="0"/>
        <pt x="-40" y="184" on="0"/>
        <pt x="13" y="248" on="0"/>
        <pt x="55" y="248" on="1"/>
        <pt x="75" y="248" on="0"/>
        <pt x="97" y="236" on="1"/>
        <pt x="130" y="218" on="0"/>
        <pt x="130" y="198" on="1"/>
        <pt x="130" y="190" on="0"/>
        <pt x="121" y="190" on="0"/>
        <pt x="111" y="200" on="1"/>
        <pt x="82" y="229" on="0"/>
        <pt x="18" y="229" on="0"/>
        <pt x="-20" y="173" on="0"/>
        <pt x="-20" y="82" on="0"/>
        <pt x="48" y="8" on="0"/>
        <pt x="134" y="8" on="0"/>
        <pt x="183" y="53" on="0"/>
      </contour>
      <contour>
        <pt x="372" y="542" on="1"/>
        <pt x="266" y="235" on="1"/>
        <pt x="486" y="235" on="1"/>
      </contour>
      <contour>
        <pt x="414" y="854" on="1"/>
        <pt x="433" y="832" on="0"/>
        <pt x="452" y="812" on="0"/>
        <pt x="487" y="792" on="0"/>
        <pt x="530" y="792" on="0"/>
        <pt x="563" y="823" on="0"/>
        <pt x="563" y="863" on="0"/>
        <pt x="542" y="887" on="0"/>
        <pt x="499" y="887" on="0"/>
        <pt x="492" y="862" on="1"/>
        <pt x="490" y="856" on="0"/>
        <pt x="488" y="856" on="1"/>
        <pt x="481" y="856" on="0"/>
        <pt x="481" y="886" on="0"/>
        <pt x="510" y="907" on="0"/>
        <pt x="548" y="907" on="0"/>
        <pt x="583" y="871" on="0"/>
        <pt x="583" y="811" on="0"/>
        <pt x="537" y="754" on="0"/>
        <pt x="453" y="754" on="0"/>
        <pt x="412" y="803" on="1"/>
        <pt x="392" y="827" on="0"/>
        <pt x="382" y="838" on="1"/>
        <pt x="352" y="869" on="0"/>
        <pt x="293" y="869" on="0"/>
        <pt x="260" y="838" on="0"/>
        <pt x="260" y="798" on="0"/>
        <pt x="281" y="774" on="0"/>
        <pt x="324" y="774" on="0"/>
        <pt x="331" y="799" on="1"/>
        <pt x="333" y="805" on="0"/>
        <pt x="335" y="805" on="1"/>
        <pt x="342" y="805" on="0"/>
        <pt x="342" y="775" on="0"/>
        <pt x="313" y="754" on="0"/>
        <pt x="275" y="754" on="0"/>
        <pt x="240" y="790" on="0"/>
        <pt x="240" y="850" on="0"/>
        <pt x="286" y="907" on="0"/>
        <pt x="369" y="907" on="0"/>
      </contour>
    </TTGlyph>
    <TTGlyph name="B" xMin="-27" yMin="-11" xMax="665" yMax="696">
      <contour>
        <pt x="356" y="-10" on="0"/>
        <pt x="273" y="63" on="0"/>
        <pt x="263" y="123" on="1"/>
        <pt x="263" y="0" on="1"/>
        <pt x="162" y="0" on="1"/>
        <pt x="162" y="678" on="1"/>
        <pt x="86" y="678" on="1"/>
        <pt x="39" y="678" on="0"/>
        <pt x="-7" y="635" on="0"/>
        <pt x="-7" y="577" on="0"/>
        <pt x="22" y="543" on="0"/>
        <pt x="64" y="543" on="0"/>
        <pt x="90" y="565" on="0"/>
        <pt x="104" y="587" on="0"/>
        <pt x="114" y="587" on="0"/>
        <pt x="114" y="562" on="0"/>
        <pt x="71" y="524" on="0"/>
        <pt x="9" y="524" on="0"/>
        <pt x="-27" y="570" on="0"/>
        <pt x="-27" y="639" on="0"/>
        <pt x="32" y="696" on="0"/>
        <pt x="87" y="696" on="1"/>
        <pt x="346" y="696" on="1"/>
        <pt x="473" y="696" on="0"/>
        <pt x="526" y="660" on="1"/>
        <pt x="574" y="626" on="0"/>
        <pt x="574" y="499" on="0"/>
        <pt x="511" y="435" on="0"/>
        <pt x="460" y="415" on="1"/>
        <pt x="529" y="415" on="0"/>
        <pt x="592" y="372" on="1"/>
        <pt x="625" y="350" on="0"/>
        <pt x="665" y="266" on="0"/>
        <pt x="665" y="152" on="0"/>
        <pt x="619" y="62" on="0"/>
        <pt x="582" y="38" on="1"/>
        <pt x="512" y="-10" on="0"/>
      </contour>
      <contour>
        <pt x="312" y="210" on="0"/>
        <pt x="282" y="166" on="0"/>
        <pt x="282" y="118" on="0"/>
        <pt x="306" y="61" on="0"/>
        <pt x="372" y="10" on="0"/>
        <pt x="460" y="10" on="0"/>
        <pt x="521" y="50" on="0"/>
        <pt x="536" y="82" on="1"/>
        <pt x="564" y="142" on="0"/>
        <pt x="564" y="297" on="0"/>
        <pt x="476" y="389" on="0"/>
        <pt x="380" y="389" on="0"/>
        <pt x="263" y="319" on="1"/>
        <pt x="263" y="154" on="1"/>
        <pt x="267" y="191" on="0"/>
        <pt x="317" y="230" on="0"/>
        <pt x="366" y="230" on="0"/>
        <pt x="406" y="212" on="0"/>
        <pt x="406" y="203" on="1"/>
        <pt x="406" y="199" on="0"/>
        <pt x="399" y="192" on="0"/>
        <pt x="394" y="192" on="0"/>
        <pt x="364" y="210" on="0"/>
      </contour>
      <contour>
        <pt x="263" y="343" on="1"/>
        <pt x="386" y="408" on="1"/>
        <pt x="474" y="455" on="0"/>
        <pt x="474" y="557" on="1"/>
        <pt x="474" y="637" on="0"/>
        <pt x="432" y="660" on="1"/>
        <pt x="398" y="678" on="0"/>
        <pt x="336" y="678" on="1"/>
        <pt x="263" y="678" on="1"/>
      </contour>
    </TTGlyph>
    <TTGlyph name="C" xMin="48" yMin="-10" xMax="551" yMax="705">
      <contour>
        <pt x="515" y="89" on="1"/>
        <pt x="535" y="90" on="1"/>
        <pt x="514" y="46" on="0"/>
        <pt x="424" y="-10" on="0"/>
        <pt x="280" y="-10" on="0"/>
        <pt x="154" y="57" on="0"/>
        <pt x="118" y="112" on="1"/>
        <pt x="48" y="220" on="0"/>
        <pt x="48" y="347" on="1"/>
        <pt x="48" y="432" on="0"/>
        <pt x="114" y="593" on="0"/>
        <pt x="250" y="705" on="0"/>
        <pt x="338" y="705" on="1"/>
        <pt x="454" y="705" on="0"/>
        <pt x="517" y="631" on="1"/>
        <pt x="551" y="591" on="0"/>
        <pt x="551" y="483" on="0"/>
        <pt x="492" y="430" on="0"/>
        <pt x="426" y="430" on="0"/>
        <pt x="374" y="467" on="0"/>
        <pt x="374" y="501" on="1"/>
        <pt x="374" y="520" on="0"/>
        <pt x="398" y="560" on="0"/>
        <pt x="422" y="560" on="0"/>
        <pt x="422" y="552" on="1"/>
        <pt x="422" y="551" on="0"/>
        <pt x="393" y="523" on="0"/>
        <pt x="393" y="480" on="0"/>
        <pt x="431" y="449" on="0"/>
        <pt x="486" y="449" on="0"/>
        <pt x="531" y="492" on="0"/>
        <pt x="531" y="531" on="1"/>
        <pt x="531" y="598" on="0"/>
        <pt x="422" y="684" on="0"/>
        <pt x="296" y="684" on="0"/>
        <pt x="196" y="579" on="0"/>
        <pt x="148" y="430" on="0"/>
        <pt x="148" y="280" on="0"/>
        <pt x="171" y="163" on="0"/>
        <pt x="221" y="65" on="0"/>
        <pt x="312" y="10" on="0"/>
        <pt x="416" y="10" on="0"/>
        <pt x="500" y="57" on="0"/>
      </contour>
    </TTGlyph>
    <TTGlyph name="Ccedilla" xMin="49" yMin="-194" xMax="540" yMax="697">
      <contour>
        <pt x="476" y="99" on="1"/>
        <pt x="524" y="100" on="1"/>
        <pt x="503" y="57" on="0"/>
        <pt x="414" y="1" on="0"/>
        <pt x="353" y="0" on="1"/>
        <pt x="353" y="-20" on="1"/>
        <pt x="435" y="-39" on="0"/>
        <pt x="435" y="-101" on="1"/>
        <pt x="435" y="-148" on="0"/>
        <pt x="353" y="-194" on="0"/>
        <pt x="304" y="-194" on="1"/>
        <pt x="286" y="-194" on="0"/>
        <pt x="273" y="-190" on="1"/>
        <pt x="274" y="-162" on="1"/>
        <pt x="283" y="-166" on="0"/>
        <pt x="302" y="-166" on="1"/>
        <pt x="389" y="-166" on="0"/>
        <pt x="389" y="-40" on="0"/>
        <pt x="293" y="-40" on="1"/>
        <pt x="293" y="6" on="1"/>
        <pt x="193" y="26" on="0"/>
        <pt x="49" y="192" on="0"/>
        <pt x="49" y="329" on="1"/>
        <pt x="49" y="419" on="0"/>
        <pt x="110" y="583" on="0"/>
        <pt x="241" y="697" on="0"/>
        <pt x="327" y="697" on="1"/>
        <pt x="443" y="697" on="0"/>
        <pt x="506" y="623" on="1"/>
        <pt x="540" y="583" on="0"/>
        <pt x="540" y="475" on="0"/>
        <pt x="481" y="422" on="0"/>
        <pt x="415" y="422" on="0"/>
        <pt x="363" y="459" on="0"/>
        <pt x="363" y="515" on="0"/>
        <pt x="374" y="531" on="1"/>
        <pt x="388" y="552" on="0"/>
        <pt x="412" y="552" on="0"/>
        <pt x="412" y="544" on="1"/>
        <pt x="412" y="539" on="0"/>
        <pt x="408" y="536" on="1"/>
        <pt x="384" y="520" on="0"/>
        <pt x="384" y="474" on="0"/>
        <pt x="420" y="444" on="0"/>
        <pt x="474" y="444" on="0"/>
        <pt x="514" y="484" on="0"/>
        <pt x="514" y="523" on="1"/>
        <pt x="514" y="588" on="0"/>
        <pt x="410" y="667" on="0"/>
        <pt x="283" y="667" on="0"/>
        <pt x="236" y="614" on="1"/>
        <pt x="149" y="514" on="0"/>
        <pt x="149" y="322" on="1"/>
        <pt x="149" y="252" on="0"/>
        <pt x="180" y="141" on="0"/>
        <pt x="226" y="77" on="0"/>
        <pt x="256" y="56" on="1"/>
        <pt x="308" y="21" on="0"/>
        <pt x="362" y="21" on="1"/>
        <pt x="440" y="21" on="0"/>
      </contour>
    </TTGlyph>
    <TTGlyph name="D" xMin="-27" yMin="-9" xMax="674" yMax="696">
      <contour>
        <pt x="262" y="0" on="1"/>
        <pt x="162" y="-1" on="1"/>
        <pt x="162" y="677" on="1"/>
        <pt x="86" y="677" on="1"/>
        <pt x="39" y="677" on="0"/>
        <pt x="-7" y="635" on="0"/>
        <pt x="-7" y="578" on="0"/>
        <pt x="19" y="543" on="0"/>
        <pt x="66" y="543" on="0"/>
        <pt x="91" y="565" on="0"/>
        <pt x="102" y="587" on="0"/>
        <pt x="114" y="587" on="0"/>
        <pt x="114" y="557" on="0"/>
        <pt x="69" y="524" on="0"/>
        <pt x="9" y="524" on="0"/>
        <pt x="-27" y="570" on="0"/>
        <pt x="-27" y="639" on="0"/>
        <pt x="32" y="696" on="0"/>
        <pt x="87" y="696" on="1"/>
        <pt x="361" y="696" on="1"/>
        <pt x="457" y="696" on="0"/>
        <pt x="602" y="593" on="0"/>
        <pt x="674" y="428" on="0"/>
        <pt x="674" y="328" on="1"/>
        <pt x="674" y="192" on="0"/>
        <pt x="543" y="-9" on="0"/>
        <pt x="435" y="-9" on="1"/>
        <pt x="367" y="-9" on="0"/>
        <pt x="269" y="57" on="0"/>
        <pt x="262" y="114" on="1"/>
      </contour>
      <contour>
        <pt x="570" y="236" on="0"/>
        <pt x="574" y="295" on="0"/>
        <pt x="574" y="385" on="0"/>
        <pt x="546" y="506" on="0"/>
        <pt x="491" y="612" on="0"/>
        <pt x="396" y="676" on="0"/>
        <pt x="335" y="676" on="1"/>
        <pt x="262" y="676" on="1"/>
        <pt x="262" y="143" on="1"/>
        <pt x="266" y="181" on="0"/>
        <pt x="315" y="220" on="0"/>
        <pt x="366" y="220" on="0"/>
        <pt x="405" y="202" on="0"/>
        <pt x="405" y="193" on="1"/>
        <pt x="405" y="189" on="0"/>
        <pt x="398" y="182" on="0"/>
        <pt x="393" y="182" on="0"/>
        <pt x="363" y="200" on="0"/>
        <pt x="311" y="200" on="0"/>
        <pt x="281" y="155" on="0"/>
        <pt x="281" y="131" on="1"/>
        <pt x="281" y="83" on="0"/>
        <pt x="362" y="11" on="0"/>
        <pt x="427" y="11" on="1"/>
        <pt x="466" y="11" on="0"/>
        <pt x="524" y="66" on="0"/>
        <pt x="553" y="139" on="0"/>
      </contour>
    </TTGlyph>
    <TTGlyph name="E" xMin="44" yMin="-10" xMax="537" yMax="706">
      <contour>
        <pt x="317" y="414" on="1"/>
        <pt x="370" y="418" on="1"/>
        <pt x="391" y="418" on="0"/>
        <pt x="391" y="405" on="1"/>
        <pt x="391" y="388" on="0"/>
        <pt x="342" y="388" on="0"/>
        <pt x="318" y="394" on="1"/>
        <pt x="246" y="372" on="0"/>
        <pt x="144" y="271" on="0"/>
        <pt x="144" y="107" on="0"/>
        <pt x="254" y="9" on="0"/>
        <pt x="327" y="9" on="1"/>
        <pt x="391" y="9" on="0"/>
        <pt x="450" y="42" on="1"/>
        <pt x="479" y="58" on="0"/>
        <pt x="517" y="118" on="0"/>
        <pt x="517" y="157" on="1"/>
        <pt x="517" y="215" on="0"/>
        <pt x="440" y="282" on="0"/>
        <pt x="398" y="282" on="1"/>
        <pt x="305" y="282" on="0"/>
        <pt x="305" y="219" on="1"/>
        <pt x="305" y="199" on="0"/>
        <pt x="330" y="178" on="0"/>
        <pt x="330" y="176" on="1"/>
        <pt x="330" y="170" on="0"/>
        <pt x="305" y="170" on="0"/>
        <pt x="286" y="202" on="0"/>
        <pt x="286" y="249" on="0"/>
        <pt x="340" y="300" on="0"/>
        <pt x="443" y="300" on="0"/>
        <pt x="537" y="227" on="0"/>
        <pt x="537" y="77" on="0"/>
        <pt x="406" y="-10" on="0"/>
        <pt x="310" y="-10" on="1"/>
        <pt x="244" y="-10" on="0"/>
        <pt x="125" y="34" on="0"/>
        <pt x="44" y="127" on="0"/>
        <pt x="44" y="188" on="1"/>
        <pt x="44" y="266" on="0"/>
        <pt x="160" y="366" on="0"/>
        <pt x="256" y="400" on="1"/>
        <pt x="188" y="405" on="0"/>
        <pt x="91" y="482" on="0"/>
        <pt x="91" y="588" on="0"/>
        <pt x="173" y="668" on="0"/>
        <pt x="278" y="706" on="0"/>
        <pt x="346" y="706" on="0"/>
        <pt x="394" y="698" on="0"/>
        <pt x="452" y="677" on="0"/>
        <pt x="489" y="633" on="0"/>
        <pt x="489" y="568" on="0"/>
        <pt x="450" y="534" on="0"/>
        <pt x="392" y="534" on="0"/>
        <pt x="348" y="567" on="0"/>
        <pt x="348" y="597" on="0"/>
        <pt x="360" y="597" on="0"/>
        <pt x="369" y="583" on="0"/>
        <pt x="377" y="566" on="0"/>
        <pt x="401" y="552" on="0"/>
        <pt x="441" y="552" on="0"/>
        <pt x="469" y="577" on="0"/>
        <pt x="469" y="600" on="1"/>
        <pt x="469" y="639" on="0"/>
        <pt x="394" y="686" on="0"/>
        <pt x="274" y="686" on="0"/>
        <pt x="190" y="609" on="0"/>
        <pt x="190" y="499" on="0"/>
        <pt x="261" y="430" on="0"/>
      </contour>
    </TTGlyph>
    <TTGlyph name="Eacute" xMin="44" yMin="-10" xMax="537" yMax="947">
      <contour>
        <pt x="317" y="414" on="1"/>
        <pt x="370" y="418" on="1"/>
        <pt x="391" y="418" on="0"/>
        <pt x="391" y="405" on="1"/>
        <pt x="391" y="388" on="0"/>
        <pt x="342" y="388" on="0"/>
        <pt x="318" y="394" on="1"/>
        <pt x="246" y="372" on="0"/>
        <pt x="144" y="271" on="0"/>
        <pt x="144" y="107" on="0"/>
        <pt x="254" y="9" on="0"/>
        <pt x="327" y="9" on="1"/>
        <pt x="391" y="9" on="0"/>
        <pt x="450" y="42" on="1"/>
        <pt x="479" y="58" on="0"/>
        <pt x="517" y="118" on="0"/>
        <pt x="517" y="157" on="1"/>
        <pt x="517" y="215" on="0"/>
        <pt x="440" y="282" on="0"/>
        <pt x="398" y="282" on="1"/>
        <pt x="305" y="282" on="0"/>
        <pt x="305" y="219" on="1"/>
        <pt x="305" y="199" on="0"/>
        <pt x="330" y="178" on="0"/>
        <pt x="330" y="176" on="1"/>
        <pt x="330" y="170" on="0"/>
        <pt x="305" y="170" on="0"/>
        <pt x="286" y="202" on="0"/>
        <pt x="286" y="249" on="0"/>
        <pt x="340" y="300" on="0"/>
        <pt x="443" y="300" on="0"/>
        <pt x="537" y="227" on="0"/>
        <pt x="537" y="77" on="0"/>
        <pt x="406" y="-10" on="0"/>
        <pt x="310" y="-10" on="1"/>
        <pt x="244" y="-10" on="0"/>
        <pt x="125" y="34" on="0"/>
        <pt x="44" y="127" on="0"/>
        <pt x="44" y="188" on="1"/>
        <pt x="44" y="266" on="0"/>
        <pt x="160" y="366" on="0"/>
        <pt x="256" y="400" on="1"/>
        <pt x="188" y="405" on="0"/>
        <pt x="91" y="482" on="0"/>
        <pt x="91" y="588" on="0"/>
        <pt x="173" y="668" on="0"/>
        <pt x="278" y="706" on="0"/>
        <pt x="346" y="706" on="0"/>
        <pt x="394" y="698" on="0"/>
        <pt x="452" y="677" on="0"/>
        <pt x="489" y="633" on="0"/>
        <pt x="489" y="568" on="0"/>
        <pt x="450" y="534" on="0"/>
        <pt x="392" y="534" on="0"/>
        <pt x="348" y="567" on="0"/>
        <pt x="348" y="597" on="0"/>
        <pt x="360" y="597" on="0"/>
        <pt x="369" y="583" on="0"/>
        <pt x="377" y="566" on="0"/>
        <pt x="401" y="552" on="0"/>
        <pt x="441" y="552" on="0"/>
        <pt x="469" y="577" on="0"/>
        <pt x="469" y="600" on="1"/>
        <pt x="469" y="639" on="0"/>
        <pt x="394" y="686" on="0"/>
        <pt x="274" y="686" on="0"/>
        <pt x="190" y="609" on="0"/>
        <pt x="190" y="499" on="0"/>
        <pt x="261" y="430" on="0"/>
      </contour>
      <contour>
        <pt x="416" y="947" on="1"/>
        <pt x="302" y="827" on="1"/>
        <pt x="253" y="827" on="1"/>
        <pt x="316" y="947" on="1"/>
      </contour>
    </TTGlyph>
    <TTGlyph name="Ecircumflex" xMin="44" yMin="-10" xMax="537" yMax="927">
      <contour>
        <pt x="317" y="414" on="1"/>
        <pt x="370" y="418" on="1"/>
        <pt x="391" y="418" on="0"/>
        <pt x="391" y="405" on="1"/>
        <pt x="391" y="388" on="0"/>
        <pt x="342" y="388" on="0"/>
        <pt x="318" y="394" on="1"/>
        <pt x="246" y="372" on="0"/>
        <pt x="144" y="271" on="0"/>
        <pt x="144" y="107" on="0"/>
        <pt x="254" y="9" on="0"/>
        <pt x="327" y="9" on="1"/>
        <pt x="391" y="9" on="0"/>
        <pt x="450" y="42" on="1"/>
        <pt x="479" y="58" on="0"/>
        <pt x="517" y="118" on="0"/>
        <pt x="517" y="157" on="1"/>
        <pt x="517" y="215" on="0"/>
        <pt x="440" y="282" on="0"/>
        <pt x="398" y="282" on="1"/>
        <pt x="305" y="282" on="0"/>
        <pt x="305" y="219" on="1"/>
        <pt x="305" y="199" on="0"/>
        <pt x="330" y="178" on="0"/>
        <pt x="330" y="176" on="1"/>
        <pt x="330" y="170" on="0"/>
        <pt x="305" y="170" on="0"/>
        <pt x="286" y="202" on="0"/>
        <pt x="286" y="249" on="0"/>
        <pt x="340" y="300" on="0"/>
        <pt x="443" y="300" on="0"/>
        <pt x="537" y="227" on="0"/>
        <pt x="537" y="77" on="0"/>
        <pt x="406" y="-10" on="0"/>
        <pt x="310" y="-10" on="1"/>
        <pt x="244" y="-10" on="0"/>
        <pt x="125" y="34" on="0"/>
        <pt x="44" y="127" on="0"/>
        <pt x="44" y="188" on="1"/>
        <pt x="44" y="266" on="0"/>
        <pt x="160" y="366" on="0"/>
        <pt x="256" y="400" on="1"/>
        <pt x="188" y="405" on="0"/>
        <pt x="91" y="482" on="0"/>
        <pt x="91" y="588" on="0"/>
        <pt x="173" y="668" on="0"/>
        <pt x="278" y="706" on="0"/>
        <pt x="346" y="706" on="0"/>
        <pt x="394" y="698" on="0"/>
        <pt x="452" y="677" on="0"/>
        <pt x="489" y="633" on="0"/>
        <pt x="489" y="568" on="0"/>
        <pt x="450" y="534" on="0"/>
        <pt x="392" y="534" on="0"/>
        <pt x="348" y="567" on="0"/>
        <pt x="348" y="597" on="0"/>
        <pt x="360" y="597" on="0"/>
        <pt x="369" y="583" on="0"/>
        <pt x="377" y="566" on="0"/>
        <pt x="401" y="552" on="0"/>
        <pt x="441" y="552" on="0"/>
        <pt x="469" y="577" on="0"/>
        <pt x="469" y="600" on="1"/>
        <pt x="469" y="639" on="0"/>
        <pt x="394" y="686" on="0"/>
        <pt x="274" y="686" on="0"/>
        <pt x="190" y="609" on="0"/>
        <pt x="190" y="499" on="0"/>
        <pt x="261" y="430" on="0"/>
      </contour>
      <contour>
        <pt x="291" y="927" on="1"/>
        <pt x="458" y="753" on="1"/>
        <pt x="403" y="753" on="1"/>
        <pt x="291" y="867" on="1"/>
        <pt x="187" y="754" on="1"/>
        <pt x="132" y="754" on="1"/>
      </contour>
    </TTGlyph>
    <TTGlyph name="Edieresis" xMin="44" yMin="-10" xMax="537" yMax="885">
      <contour>
        <pt x="317" y="414" on="1"/>
        <pt x="370" y="418" on="1"/>
        <pt x="391" y="418" on="0"/>
        <pt x="391" y="405" on="1"/>
        <pt x="391" y="388" on="0"/>
        <pt x="342" y="388" on="0"/>
        <pt x="318" y="394" on="1"/>
        <pt x="246" y="372" on="0"/>
        <pt x="144" y="271" on="0"/>
        <pt x="144" y="107" on="0"/>
        <pt x="254" y="9" on="0"/>
        <pt x="327" y="9" on="1"/>
        <pt x="391" y="9" on="0"/>
        <pt x="450" y="42" on="1"/>
        <pt x="479" y="58" on="0"/>
        <pt x="517" y="118" on="0"/>
        <pt x="517" y="157" on="1"/>
        <pt x="517" y="215" on="0"/>
        <pt x="440" y="282" on="0"/>
        <pt x="398" y="282" on="1"/>
        <pt x="305" y="282" on="0"/>
        <pt x="305" y="219" on="1"/>
        <pt x="305" y="199" on="0"/>
        <pt x="330" y="178" on="0"/>
        <pt x="330" y="176" on="1"/>
        <pt x="330" y="170" on="0"/>
        <pt x="305" y="170" on="0"/>
        <pt x="286" y="202" on="0"/>
        <pt x="286" y="249" on="0"/>
        <pt x="340" y="300" on="0"/>
        <pt x="443" y="300" on="0"/>
        <pt x="537" y="227" on="0"/>
        <pt x="537" y="77" on="0"/>
        <pt x="406" y="-10" on="0"/>
        <pt x="310" y="-10" on="1"/>
        <pt x="244" y="-10" on="0"/>
        <pt x="125" y="34" on="0"/>
        <pt x="44" y="127" on="0"/>
        <pt x="44" y="188" on="1"/>
        <pt x="44" y="266" on="0"/>
        <pt x="160" y="366" on="0"/>
        <pt x="256" y="400" on="1"/>
        <pt x="188" y="405" on="0"/>
        <pt x="91" y="482" on="0"/>
        <pt x="91" y="588" on="0"/>
        <pt x="173" y="668" on="0"/>
        <pt x="278" y="706" on="0"/>
        <pt x="346" y="706" on="0"/>
        <pt x="394" y="698" on="0"/>
        <pt x="452" y="677" on="0"/>
        <pt x="489" y="633" on="0"/>
        <pt x="489" y="568" on="0"/>
        <pt x="450" y="534" on="0"/>
        <pt x="392" y="534" on="0"/>
        <pt x="348" y="567" on="0"/>
        <pt x="348" y="597" on="0"/>
        <pt x="360" y="597" on="0"/>
        <pt x="369" y="583" on="0"/>
        <pt x="377" y="566" on="0"/>
        <pt x="401" y="552" on="0"/>
        <pt x="441" y="552" on="0"/>
        <pt x="469" y="577" on="0"/>
        <pt x="469" y="600" on="1"/>
        <pt x="469" y="639" on="0"/>
        <pt x="394" y="686" on="0"/>
        <pt x="274" y="686" on="0"/>
        <pt x="190" y="609" on="0"/>
        <pt x="190" y="499" on="0"/>
        <pt x="261" y="430" on="0"/>
      </contour>
      <contour>
        <pt x="132" y="810" on="0"/>
        <pt x="132" y="854" on="0"/>
        <pt x="163" y="885" on="0"/>
        <pt x="207" y="885" on="0"/>
        <pt x="239" y="854" on="0"/>
        <pt x="239" y="810" on="0"/>
        <pt x="207" y="779" on="0"/>
        <pt x="163" y="779" on="0"/>
      </contour>
      <contour>
        <pt x="351" y="810" on="0"/>
        <pt x="351" y="854" on="0"/>
        <pt x="382" y="885" on="0"/>
        <pt x="426" y="885" on="0"/>
        <pt x="458" y="854" on="0"/>
        <pt x="458" y="810" on="0"/>
        <pt x="426" y="779" on="0"/>
        <pt x="382" y="779" on="0"/>
      </contour>
    </TTGlyph>
    <TTGlyph name="Egrave" xMin="44" yMin="-10" xMax="537" yMax="947">
      <contour>
        <pt x="317" y="414" on="1"/>
        <pt x="370" y="418" on="1"/>
        <pt x="391" y="418" on="0"/>
        <pt x="391" y="405" on="1"/>
        <pt x="391" y="388" on="0"/>
        <pt x="342" y="388" on="0"/>
        <pt x="318" y="394" on="1"/>
        <pt x="246" y="372" on="0"/>
        <pt x="144" y="271" on="0"/>
        <pt x="144" y="107" on="0"/>
        <pt x="254" y="9" on="0"/>
        <pt x="327" y="9" on="1"/>
        <pt x="391" y="9" on="0"/>
        <pt x="450" y="42" on="1"/>
        <pt x="479" y="58" on="0"/>
        <pt x="517" y="118" on="0"/>
        <pt x="517" y="157" on="1"/>
        <pt x="517" y="215" on="0"/>
        <pt x="440" y="282" on="0"/>
        <pt x="398" y="282" on="1"/>
        <pt x="305" y="282" on="0"/>
        <pt x="305" y="219" on="1"/>
        <pt x="305" y="199" on="0"/>
        <pt x="330" y="178" on="0"/>
        <pt x="330" y="176" on="1"/>
        <pt x="330" y="170" on="0"/>
        <pt x="305" y="170" on="0"/>
        <pt x="286" y="202" on="0"/>
        <pt x="286" y="249" on="0"/>
        <pt x="340" y="300" on="0"/>
        <pt x="443" y="300" on="0"/>
        <pt x="537" y="227" on="0"/>
        <pt x="537" y="77" on="0"/>
        <pt x="406" y="-10" on="0"/>
        <pt x="310" y="-10" on="1"/>
        <pt x="244" y="-10" on="0"/>
        <pt x="125" y="34" on="0"/>
        <pt x="44" y="127" on="0"/>
        <pt x="44" y="188" on="1"/>
        <pt x="44" y="266" on="0"/>
        <pt x="160" y="366" on="0"/>
        <pt x="256" y="400" on="1"/>
        <pt x="188" y="405" on="0"/>
        <pt x="91" y="482" on="0"/>
        <pt x="91" y="588" on="0"/>
        <pt x="173" y="668" on="0"/>
        <pt x="278" y="706" on="0"/>
        <pt x="346" y="706" on="0"/>
        <pt x="394" y="698" on="0"/>
        <pt x="452" y="677" on="0"/>
        <pt x="489" y="633" on="0"/>
        <pt x="489" y="568" on="0"/>
        <pt x="450" y="534" on="0"/>
        <pt x="392" y="534" on="0"/>
        <pt x="348" y="567" on="0"/>
        <pt x="348" y="597" on="0"/>
        <pt x="360" y="597" on="0"/>
        <pt x="369" y="583" on="0"/>
        <pt x="377" y="566" on="0"/>
        <pt x="401" y="552" on="0"/>
        <pt x="441" y="552" on="0"/>
        <pt x="469" y="577" on="0"/>
        <pt x="469" y="600" on="1"/>
        <pt x="469" y="639" on="0"/>
        <pt x="394" y="686" on="0"/>
        <pt x="274" y="686" on="0"/>
        <pt x="190" y="609" on="0"/>
        <pt x="190" y="499" on="0"/>
        <pt x="261" y="430" on="0"/>
      </contour>
      <contour>
        <pt x="310" y="827" on="1"/>
        <pt x="196" y="947" on="1"/>
        <pt x="296" y="947" on="1"/>
        <pt x="359" y="827" on="1"/>
      </contour>
    </TTGlyph>
    <TTGlyph name="Eth" xMin="-27" yMin="-9" xMax="674" yMax="696">
      <contour>
        <pt x="262" y="0" on="1"/>
        <pt x="162" y="-1" on="1"/>
        <pt x="162" y="323" on="1"/>
        <pt x="74" y="323" on="1"/>
        <pt x="74" y="383" on="1"/>
        <pt x="162" y="383" on="1"/>
        <pt x="162" y="676" on="1"/>
        <pt x="86" y="676" on="1"/>
        <pt x="39" y="676" on="0"/>
        <pt x="-5" y="635" on="0"/>
        <pt x="-5" y="579" on="0"/>
        <pt x="21" y="544" on="0"/>
        <pt x="68" y="544" on="0"/>
        <pt x="90" y="566" on="0"/>
        <pt x="102" y="587" on="0"/>
        <pt x="114" y="587" on="0"/>
        <pt x="114" y="557" on="0"/>
        <pt x="69" y="524" on="0"/>
        <pt x="9" y="524" on="0"/>
        <pt x="-27" y="570" on="0"/>
        <pt x="-27" y="639" on="0"/>
        <pt x="32" y="696" on="0"/>
        <pt x="87" y="696" on="1"/>
        <pt x="361" y="696" on="1"/>
        <pt x="457" y="696" on="0"/>
        <pt x="602" y="593" on="0"/>
        <pt x="674" y="428" on="0"/>
        <pt x="674" y="328" on="1"/>
        <pt x="674" y="192" on="0"/>
        <pt x="543" y="-9" on="0"/>
        <pt x="435" y="-9" on="1"/>
        <pt x="372" y="-9" on="0"/>
        <pt x="269" y="58" on="0"/>
        <pt x="262" y="114" on="1"/>
      </contour>
      <contour>
        <pt x="570" y="236" on="0"/>
        <pt x="574" y="295" on="0"/>
        <pt x="574" y="385" on="0"/>
        <pt x="546" y="506" on="0"/>
        <pt x="491" y="611" on="0"/>
        <pt x="396" y="675" on="0"/>
        <pt x="335" y="675" on="1"/>
        <pt x="262" y="675" on="1"/>
        <pt x="262" y="383" on="1"/>
        <pt x="376" y="383" on="1"/>
        <pt x="376" y="323" on="1"/>
        <pt x="262" y="323" on="1"/>
        <pt x="262" y="143" on="1"/>
        <pt x="266" y="181" on="0"/>
        <pt x="315" y="220" on="0"/>
        <pt x="366" y="220" on="0"/>
        <pt x="405" y="202" on="0"/>
        <pt x="405" y="193" on="1"/>
        <pt x="405" y="189" on="0"/>
        <pt x="398" y="182" on="0"/>
        <pt x="393" y="182" on="0"/>
        <pt x="363" y="200" on="0"/>
        <pt x="311" y="200" on="0"/>
        <pt x="281" y="155" on="0"/>
        <pt x="281" y="131" on="1"/>
        <pt x="281" y="89" on="0"/>
        <pt x="375" y="11" on="0"/>
        <pt x="466" y="11" on="0"/>
        <pt x="524" y="66" on="0"/>
        <pt x="553" y="139" on="0"/>
      </contour>
    </TTGlyph>
    <TTGlyph name="Euro" xMin="47" yMin="0" xMax="528" yMax="697">
      <contour>
        <pt x="47" y="440" on="1"/>
        <pt x="100" y="440" on="1"/>
        <pt x="120" y="554" on="0"/>
        <pt x="242" y="697" on="0"/>
        <pt x="347" y="697" on="1"/>
        <pt x="466" y="697" on="0"/>
        <pt x="528" y="600" on="1"/>
        <pt x="439" y="600" on="1"/>
        <pt x="404" y="677" on="0"/>
        <pt x="340" y="677" on="1"/>
        <pt x="300" y="677" on="0"/>
        <pt x="270" y="640" on="1"/>
        <pt x="217" y="576" on="0"/>
        <pt x="200" y="440" on="1"/>
        <pt x="459" y="440" on="1"/>
        <pt x="459" y="380" on="1"/>
        <pt x="194" y="380" on="1"/>
        <pt x="192" y="360" on="0"/>
        <pt x="192" y="306" on="0"/>
        <pt x="194" y="274" on="1"/>
        <pt x="459" y="274" on="1"/>
        <pt x="459" y="214" on="1"/>
        <pt x="201" y="214" on="1"/>
        <pt x="217" y="127" on="0"/>
        <pt x="290" y="20" on="0"/>
        <pt x="337" y="20" on="1"/>
        <pt x="396" y="20" on="0"/>
        <pt x="440" y="101" on="1"/>
        <pt x="526" y="101" on="1"/>
        <pt x="453" y="0" on="0"/>
        <pt x="337" y="0" on="1"/>
        <pt x="254" y="0" on="0"/>
        <pt x="128" y="108" on="0"/>
        <pt x="104" y="214" on="1"/>
        <pt x="47" y="214" on="1"/>
        <pt x="47" y="274" on="1"/>
        <pt x="95" y="274" on="1"/>
        <pt x="92" y="301" on="0"/>
        <pt x="92" y="364" on="0"/>
        <pt x="93" y="380" on="1"/>
        <pt x="47" y="380" on="1"/>
      </contour>
    </TTGlyph>
    <TTGlyph name="F" xMin="39" yMin="-10" xMax="663" yMax="729">
      <contour>
        <pt x="518" y="703" on="1"/>
        <pt x="412" y="703" on="0"/>
        <pt x="343" y="632" on="1"/>
        <pt x="343" y="347" on="1"/>
        <pt x="426" y="347" on="1"/>
        <pt x="491" y="347" on="0"/>
        <pt x="491" y="338" on="1"/>
        <pt x="491" y="327" on="0"/>
        <pt x="426" y="327" on="1"/>
        <pt x="343" y="327" on="1"/>
        <pt x="343" y="170" on="1"/>
        <pt x="343" y="88" on="0"/>
        <pt x="252" y="-10" on="0"/>
        <pt x="111" y="-10" on="0"/>
        <pt x="39" y="81" on="0"/>
        <pt x="39" y="187" on="0"/>
        <pt x="90" y="232" on="0"/>
        <pt x="133" y="232" on="0"/>
        <pt x="163" y="214" on="0"/>
        <pt x="163" y="192" on="0"/>
        <pt x="153" y="192" on="0"/>
        <pt x="137" y="214" on="0"/>
        <pt x="89" y="214" on="0"/>
        <pt x="59" y="169" on="0"/>
        <pt x="59" y="84" on="0"/>
        <pt x="124" y="11" on="0"/>
        <pt x="198" y="11" on="0"/>
        <pt x="243" y="76" on="0"/>
        <pt x="243" y="134" on="1"/>
        <pt x="243" y="564" on="1"/>
        <pt x="193" y="537" on="0"/>
        <pt x="111" y="537" on="0"/>
        <pt x="54" y="592" on="0"/>
        <pt x="54" y="661" on="0"/>
        <pt x="89" y="705" on="0"/>
        <pt x="155" y="705" on="0"/>
        <pt x="193" y="677" on="0"/>
        <pt x="193" y="648" on="0"/>
        <pt x="181" y="648" on="0"/>
        <pt x="176" y="657" on="1"/>
        <pt x="158" y="685" on="0"/>
        <pt x="104" y="685" on="0"/>
        <pt x="74" y="656" on="0"/>
        <pt x="74" y="598" on="0"/>
        <pt x="116" y="557" on="0"/>
        <pt x="206" y="557" on="0"/>
        <pt x="307" y="629" on="0"/>
        <pt x="342" y="656" on="1"/>
        <pt x="434" y="729" on="0"/>
        <pt x="528" y="729" on="1"/>
        <pt x="593" y="729" on="0"/>
        <pt x="663" y="652" on="0"/>
        <pt x="663" y="545" on="0"/>
        <pt x="601" y="485" on="0"/>
        <pt x="535" y="485" on="0"/>
        <pt x="497" y="523" on="0"/>
        <pt x="497" y="567" on="0"/>
        <pt x="517" y="595" on="0"/>
        <pt x="542" y="595" on="0"/>
        <pt x="542" y="588" on="1"/>
        <pt x="542" y="584" on="0"/>
        <pt x="536" y="581" on="1"/>
        <pt x="517" y="572" on="0"/>
        <pt x="517" y="525" on="0"/>
        <pt x="551" y="505" on="0"/>
        <pt x="597" y="505" on="0"/>
        <pt x="643" y="553" on="0"/>
        <pt x="643" y="644" on="0"/>
        <pt x="570" y="703" on="0"/>
      </contour>
    </TTGlyph>
    <TTGlyph name="G" xMin="53" yMin="-250" xMax="544" yMax="706">
      <contour>
        <pt x="432" y="379" on="1"/>
        <pt x="531" y="379" on="1"/>
        <pt x="531" y="-16" on="1"/>
        <pt x="531" y="-77" on="0"/>
        <pt x="489" y="-171" on="0"/>
        <pt x="456" y="-198" on="1"/>
        <pt x="389" y="-250" on="0"/>
        <pt x="240" y="-250" on="0"/>
        <pt x="139" y="-154" on="0"/>
        <pt x="139" y="-95" on="1"/>
        <pt x="139" y="-55" on="0"/>
        <pt x="188" y="-4" on="0"/>
        <pt x="234" y="-4" on="0"/>
        <pt x="263" y="-22" on="0"/>
        <pt x="263" y="-44" on="0"/>
        <pt x="254" y="-44" on="0"/>
        <pt x="237" y="-24" on="0"/>
        <pt x="188" y="-24" on="0"/>
        <pt x="157" y="-67" on="0"/>
        <pt x="157" y="-97" on="1"/>
        <pt x="157" y="-152" on="0"/>
        <pt x="255" y="-231" on="0"/>
        <pt x="296" y="-231" on="1"/>
        <pt x="316" y="-231" on="0"/>
        <pt x="340" y="-229" on="0"/>
        <pt x="384" y="-209" on="0"/>
        <pt x="411" y="-172" on="0"/>
        <pt x="432" y="-96" on="0"/>
        <pt x="432" y="-42" on="1"/>
        <pt x="432" y="155" on="1"/>
        <pt x="379" y="91" on="0"/>
        <pt x="310" y="91" on="1"/>
        <pt x="204" y="91" on="0"/>
        <pt x="53" y="268" on="0"/>
        <pt x="53" y="393" on="1"/>
        <pt x="53" y="503" on="0"/>
        <pt x="114" y="598" on="1"/>
        <pt x="144" y="646" on="0"/>
        <pt x="253" y="706" on="0"/>
        <pt x="324" y="706" on="1"/>
        <pt x="418" y="706" on="0"/>
        <pt x="544" y="604" on="0"/>
        <pt x="544" y="528" on="1"/>
        <pt x="544" y="475" on="0"/>
        <pt x="485" y="422" on="0"/>
        <pt x="420" y="422" on="0"/>
        <pt x="367" y="459" on="0"/>
        <pt x="367" y="515" on="0"/>
        <pt x="391" y="552" on="0"/>
        <pt x="416" y="552" on="0"/>
        <pt x="416" y="540" on="0"/>
        <pt x="387" y="510" on="0"/>
        <pt x="387" y="473" on="0"/>
        <pt x="423" y="442" on="0"/>
        <pt x="479" y="442" on="0"/>
        <pt x="524" y="484" on="0"/>
        <pt x="524" y="524" on="1"/>
        <pt x="524" y="589" on="0"/>
        <pt x="414" y="686" on="0"/>
        <pt x="288" y="686" on="0"/>
        <pt x="206" y="621" on="0"/>
        <pt x="187" y="570" on="1"/>
        <pt x="153" y="477" on="0"/>
        <pt x="153" y="271" on="0"/>
        <pt x="247" y="111" on="0"/>
        <pt x="382" y="111" on="0"/>
        <pt x="432" y="184" on="1"/>
      </contour>
    </TTGlyph>
    <TTGlyph name="H" xMin="5" yMin="-111" xMax="739" yMax="696">
      <contour>
        <pt x="539" y="696" on="1"/>
        <pt x="640" y="696" on="1"/>
        <pt x="640" y="-42" on="1"/>
        <pt x="640" y="-90" on="0"/>
        <pt x="690" y="-90" on="1"/>
        <pt x="710" y="-90" on="0"/>
        <pt x="731" y="-73" on="0"/>
        <pt x="732" y="-73" on="1"/>
        <pt x="739" y="-73" on="0"/>
        <pt x="739" y="-88" on="0"/>
        <pt x="734" y="-94" on="1"/>
        <pt x="721" y="-110" on="0"/>
        <pt x="624" y="-110" on="0"/>
        <pt x="539" y="-53" on="0"/>
        <pt x="539" y="-1" on="1"/>
        <pt x="539" y="354" on="1"/>
        <pt x="309" y="354" on="1"/>
        <pt x="309" y="170" on="1"/>
        <pt x="309" y="88" on="0"/>
        <pt x="218" y="-10" on="0"/>
        <pt x="77" y="-10" on="0"/>
        <pt x="5" y="81" on="0"/>
        <pt x="5" y="187" on="0"/>
        <pt x="58" y="232" on="0"/>
        <pt x="99" y="232" on="0"/>
        <pt x="129" y="214" on="0"/>
        <pt x="129" y="192" on="0"/>
        <pt x="119" y="192" on="0"/>
        <pt x="114" y="199" on="0"/>
        <pt x="112" y="203" on="1"/>
        <pt x="105" y="214" on="0"/>
        <pt x="55" y="214" on="0"/>
        <pt x="24" y="169" on="0"/>
        <pt x="24" y="84" on="0"/>
        <pt x="90" y="11" on="0"/>
        <pt x="164" y="11" on="0"/>
        <pt x="209" y="76" on="0"/>
        <pt x="209" y="134" on="1"/>
        <pt x="209" y="676" on="1"/>
        <pt x="133" y="676" on="1"/>
        <pt x="86" y="676" on="0"/>
        <pt x="40" y="635" on="0"/>
        <pt x="40" y="580" on="0"/>
        <pt x="68" y="544" on="0"/>
        <pt x="115" y="544" on="0"/>
        <pt x="137" y="566" on="0"/>
        <pt x="149" y="587" on="0"/>
        <pt x="161" y="587" on="0"/>
        <pt x="161" y="557" on="0"/>
        <pt x="116" y="524" on="0"/>
        <pt x="56" y="524" on="0"/>
        <pt x="20" y="570" on="0"/>
        <pt x="20" y="639" on="0"/>
        <pt x="79" y="696" on="0"/>
        <pt x="134" y="696" on="1"/>
        <pt x="309" y="696" on="1"/>
        <pt x="309" y="374" on="1"/>
        <pt x="539" y="374" on="1"/>
      </contour>
    </TTGlyph>
    <TTGlyph name="I" xMin="-27" yMin="0" xMax="262" yMax="696">
      <contour>
        <pt x="262" y="0" on="1"/>
        <pt x="162" y="0" on="1"/>
        <pt x="162" y="676" on="1"/>
        <pt x="86" y="676" on="1"/>
        <pt x="39" y="676" on="0"/>
        <pt x="-7" y="635" on="0"/>
        <pt x="-7" y="579" on="0"/>
        <pt x="21" y="544" on="0"/>
        <pt x="68" y="544" on="0"/>
        <pt x="90" y="566" on="0"/>
        <pt x="102" y="587" on="0"/>
        <pt x="114" y="587" on="0"/>
        <pt x="114" y="557" on="0"/>
        <pt x="69" y="524" on="0"/>
        <pt x="9" y="524" on="0"/>
        <pt x="-27" y="570" on="0"/>
        <pt x="-27" y="639" on="0"/>
        <pt x="32" y="696" on="0"/>
        <pt x="87" y="696" on="1"/>
        <pt x="262" y="696" on="1"/>
      </contour>
    </TTGlyph>
    <TTGlyph name="Iacute" xMin="-27" yMin="0" xMax="334" yMax="947">
      <contour>
        <pt x="262" y="0" on="1"/>
        <pt x="162" y="0" on="1"/>
        <pt x="162" y="676" on="1"/>
        <pt x="86" y="676" on="1"/>
        <pt x="39" y="676" on="0"/>
        <pt x="-7" y="635" on="0"/>
        <pt x="-7" y="579" on="0"/>
        <pt x="21" y="544" on="0"/>
        <pt x="68" y="544" on="0"/>
        <pt x="90" y="566" on="0"/>
        <pt x="102" y="587" on="0"/>
        <pt x="114" y="587" on="0"/>
        <pt x="114" y="557" on="0"/>
        <pt x="69" y="524" on="0"/>
        <pt x="9" y="524" on="0"/>
        <pt x="-27" y="570" on="0"/>
        <pt x="-27" y="639" on="0"/>
        <pt x="32" y="696" on="0"/>
        <pt x="87" y="696" on="1"/>
        <pt x="262" y="696" on="1"/>
      </contour>
      <contour>
        <pt x="334" y="947" on="1"/>
        <pt x="220" y="827" on="1"/>
        <pt x="171" y="827" on="1"/>
        <pt x="234" y="947" on="1"/>
      </contour>
    </TTGlyph>
    <TTGlyph name="Icircumflex" xMin="-27" yMin="0" xMax="374" yMax="927">
      <contour>
        <pt x="262" y="0" on="1"/>
        <pt x="162" y="0" on="1"/>
        <pt x="162" y="676" on="1"/>
        <pt x="86" y="676" on="1"/>
        <pt x="39" y="676" on="0"/>
        <pt x="-7" y="635" on="0"/>
        <pt x="-7" y="579" on="0"/>
        <pt x="21" y="544" on="0"/>
        <pt x="68" y="544" on="0"/>
        <pt x="90" y="566" on="0"/>
        <pt x="102" y="587" on="0"/>
        <pt x="114" y="587" on="0"/>
        <pt x="114" y="557" on="0"/>
        <pt x="69" y="524" on="0"/>
        <pt x="9" y="524" on="0"/>
        <pt x="-27" y="570" on="0"/>
        <pt x="-27" y="639" on="0"/>
        <pt x="32" y="696" on="0"/>
        <pt x="87" y="696" on="1"/>
        <pt x="262" y="696" on="1"/>
      </contour>
      <contour>
        <pt x="207" y="927" on="1"/>
        <pt x="374" y="753" on="1"/>
        <pt x="319" y="753" on="1"/>
        <pt x="207" y="867" on="1"/>
        <pt x="103" y="754" on="1"/>
        <pt x="48" y="754" on="1"/>
      </contour>
    </TTGlyph>
    <TTGlyph name="Idieresis" xMin="-27" yMin="0" xMax="376" yMax="885">
      <contour>
        <pt x="262" y="0" on="1"/>
        <pt x="162" y="0" on="1"/>
        <pt x="162" y="676" on="1"/>
        <pt x="86" y="676" on="1"/>
        <pt x="39" y="676" on="0"/>
        <pt x="-7" y="635" on="0"/>
        <pt x="-7" y="579" on="0"/>
        <pt x="21" y="544" on="0"/>
        <pt x="68" y="544" on="0"/>
        <pt x="90" y="566" on="0"/>
        <pt x="102" y="587" on="0"/>
        <pt x="114" y="587" on="0"/>
        <pt x="114" y="557" on="0"/>
        <pt x="69" y="524" on="0"/>
        <pt x="9" y="524" on="0"/>
        <pt x="-27" y="570" on="0"/>
        <pt x="-27" y="639" on="0"/>
        <pt x="32" y="696" on="0"/>
        <pt x="87" y="696" on="1"/>
        <pt x="262" y="696" on="1"/>
      </contour>
      <contour>
        <pt x="50" y="810" on="0"/>
        <pt x="50" y="854" on="0"/>
        <pt x="81" y="885" on="0"/>
        <pt x="125" y="885" on="0"/>
        <pt x="157" y="854" on="0"/>
        <pt x="157" y="810" on="0"/>
        <pt x="125" y="779" on="0"/>
        <pt x="81" y="779" on="0"/>
      </contour>
      <contour>
        <pt x="269" y="810" on="0"/>
        <pt x="269" y="854" on="0"/>
        <pt x="300" y="885" on="0"/>
        <pt x="344" y="885" on="0"/>
        <pt x="376" y="854" on="0"/>
        <pt x="376" y="810" on="0"/>
        <pt x="344" y="779" on="0"/>
        <pt x="300" y="779" on="0"/>
      </contour>
    </TTGlyph>
    <TTGlyph name="Igrave" xMin="-27" yMin="0" xMax="262" yMax="947">
      <contour>
        <pt x="262" y="0" on="1"/>
        <pt x="162" y="0" on="1"/>
        <pt x="162" y="676" on="1"/>
        <pt x="86" y="676" on="1"/>
        <pt x="39" y="676" on="0"/>
        <pt x="-7" y="635" on="0"/>
        <pt x="-7" y="579" on="0"/>
        <pt x="21" y="544" on="0"/>
        <pt x="68" y="544" on="0"/>
        <pt x="90" y="566" on="0"/>
        <pt x="102" y="587" on="0"/>
        <pt x="114" y="587" on="0"/>
        <pt x="114" y="557" on="0"/>
        <pt x="69" y="524" on="0"/>
        <pt x="9" y="524" on="0"/>
        <pt x="-27" y="570" on="0"/>
        <pt x="-27" y="639" on="0"/>
        <pt x="32" y="696" on="0"/>
        <pt x="87" y="696" on="1"/>
        <pt x="262" y="696" on="1"/>
      </contour>
      <contour>
        <pt x="177" y="827" on="1"/>
        <pt x="63" y="947" on="1"/>
        <pt x="163" y="947" on="1"/>
        <pt x="226" y="827" on="1"/>
      </contour>
    </TTGlyph>
    <TTGlyph name="J" xMin="-44" yMin="-250" xMax="349" yMax="696">
      <contour>
        <pt x="249" y="-42" on="1"/>
        <pt x="249" y="676" on="1"/>
        <pt x="173" y="676" on="1"/>
        <pt x="126" y="676" on="0"/>
        <pt x="80" y="635" on="0"/>
        <pt x="80" y="579" on="0"/>
        <pt x="108" y="544" on="0"/>
        <pt x="155" y="544" on="0"/>
        <pt x="177" y="566" on="0"/>
        <pt x="189" y="587" on="0"/>
        <pt x="201" y="587" on="0"/>
        <pt x="201" y="557" on="0"/>
        <pt x="156" y="524" on="0"/>
        <pt x="96" y="524" on="0"/>
        <pt x="60" y="570" on="0"/>
        <pt x="60" y="639" on="0"/>
        <pt x="119" y="696" on="0"/>
        <pt x="174" y="696" on="1"/>
        <pt x="349" y="696" on="1"/>
        <pt x="349" y="-16" on="1"/>
        <pt x="349" y="-77" on="0"/>
        <pt x="307" y="-171" on="0"/>
        <pt x="273" y="-198" on="1"/>
        <pt x="206" y="-250" on="0"/>
        <pt x="57" y="-250" on="0"/>
        <pt x="-44" y="-154" on="0"/>
        <pt x="-44" y="-95" on="1"/>
        <pt x="-44" y="-55" on="0"/>
        <pt x="5" y="-4" on="0"/>
        <pt x="51" y="-4" on="0"/>
        <pt x="80" y="-22" on="0"/>
        <pt x="80" y="-44" on="0"/>
        <pt x="71" y="-44" on="0"/>
        <pt x="54" y="-24" on="0"/>
        <pt x="5" y="-24" on="0"/>
        <pt x="-26" y="-67" on="0"/>
        <pt x="-26" y="-97" on="1"/>
        <pt x="-26" y="-152" on="0"/>
        <pt x="72" y="-231" on="0"/>
        <pt x="113" y="-231" on="1"/>
        <pt x="133" y="-231" on="0"/>
        <pt x="157" y="-229" on="0"/>
        <pt x="201" y="-209" on="0"/>
        <pt x="228" y="-172" on="0"/>
        <pt x="249" y="-96" on="0"/>
      </contour>
    </TTGlyph>
    <TTGlyph name="K" xMin="-27" yMin="-10" xMax="731" yMax="696">
      <contour>
        <pt x="618" y="-10" on="1"/>
        <pt x="563" y="-10" on="0"/>
        <pt x="495" y="62" on="0"/>
        <pt x="464" y="167" on="0"/>
        <pt x="451" y="220" on="1"/>
        <pt x="419" y="352" on="0"/>
        <pt x="351" y="362" on="1"/>
        <pt x="262" y="257" on="1"/>
        <pt x="262" y="0" on="1"/>
        <pt x="162" y="0" on="1"/>
        <pt x="162" y="676" on="1"/>
        <pt x="86" y="676" on="1"/>
        <pt x="39" y="676" on="0"/>
        <pt x="-7" y="635" on="0"/>
        <pt x="-7" y="579" on="0"/>
        <pt x="21" y="544" on="0"/>
        <pt x="68" y="544" on="0"/>
        <pt x="90" y="566" on="0"/>
        <pt x="102" y="587" on="0"/>
        <pt x="114" y="587" on="0"/>
        <pt x="114" y="557" on="0"/>
        <pt x="69" y="524" on="0"/>
        <pt x="9" y="524" on="0"/>
        <pt x="-27" y="570" on="0"/>
        <pt x="-27" y="639" on="0"/>
        <pt x="32" y="696" on="0"/>
        <pt x="87" y="696" on="1"/>
        <pt x="262" y="696" on="1"/>
        <pt x="262" y="289" on="1"/>
        <pt x="512" y="581" on="1"/>
        <pt x="610" y="696" on="0"/>
        <pt x="706" y="696" on="1"/>
        <pt x="725" y="696" on="0"/>
        <pt x="725" y="687" on="1"/>
        <pt x="725" y="675" on="0"/>
        <pt x="713" y="675" on="1"/>
        <pt x="687" y="675" on="0"/>
        <pt x="645" y="666" on="0"/>
        <pt x="567" y="614" on="0"/>
        <pt x="526" y="566" on="1"/>
        <pt x="366" y="379" on="1"/>
        <pt x="386" y="381" on="0"/>
        <pt x="396" y="381" on="1"/>
        <pt x="447" y="381" on="0"/>
        <pt x="518" y="326" on="0"/>
        <pt x="548" y="245" on="0"/>
        <pt x="572" y="149" on="0"/>
        <pt x="579" y="108" on="1"/>
        <pt x="596" y="13" on="0"/>
        <pt x="646" y="13" on="1"/>
        <pt x="667" y="13" on="0"/>
        <pt x="703" y="38" on="0"/>
        <pt x="723" y="64" on="0"/>
        <pt x="731" y="64" on="0"/>
        <pt x="731" y="55" on="0"/>
        <pt x="728" y="49" on="1"/>
        <pt x="698" y="-10" on="0"/>
      </contour>
    </TTGlyph>
    <TTGlyph name="L" xMin="17" yMin="-236" xMax="543" yMax="696">
      <contour>
        <pt x="433" y="-216" on="1"/>
        <pt x="469" y="-216" on="0"/>
        <pt x="523" y="-173" on="0"/>
        <pt x="523" y="-147" on="1"/>
        <pt x="523" y="-89" on="0"/>
        <pt x="475" y="-89" on="1"/>
        <pt x="452" y="-89" on="0"/>
        <pt x="445" y="-116" on="0"/>
        <pt x="431" y="-116" on="0"/>
        <pt x="431" y="-91" on="0"/>
        <pt x="465" y="-69" on="0"/>
        <pt x="508" y="-69" on="0"/>
        <pt x="543" y="-109" on="0"/>
        <pt x="543" y="-176" on="0"/>
        <pt x="491" y="-236" on="0"/>
        <pt x="390" y="-236" on="0"/>
        <pt x="319" y="-183" on="0"/>
        <pt x="283" y="-116" on="0"/>
        <pt x="231" y="-26" on="0"/>
        <pt x="187" y="22" on="0"/>
        <pt x="150" y="35" on="0"/>
        <pt x="104" y="38" on="0"/>
        <pt x="104" y="46" on="1"/>
        <pt x="104" y="57" on="0"/>
        <pt x="163" y="57" on="0"/>
        <pt x="207" y="35" on="1"/>
        <pt x="207" y="676" on="1"/>
        <pt x="130" y="676" on="1"/>
        <pt x="83" y="676" on="0"/>
        <pt x="37" y="635" on="0"/>
        <pt x="37" y="580" on="0"/>
        <pt x="65" y="544" on="0"/>
        <pt x="112" y="544" on="0"/>
        <pt x="134" y="566" on="0"/>
        <pt x="146" y="587" on="0"/>
        <pt x="158" y="587" on="0"/>
        <pt x="158" y="557" on="0"/>
        <pt x="113" y="524" on="0"/>
        <pt x="53" y="524" on="0"/>
        <pt x="17" y="570" on="0"/>
        <pt x="17" y="639" on="0"/>
        <pt x="76" y="696" on="0"/>
        <pt x="131" y="696" on="1"/>
        <pt x="306" y="696" on="1"/>
        <pt x="306" y="-25" on="1"/>
        <pt x="306" y="-97" on="0"/>
        <pt x="373" y="-216" on="0"/>
      </contour>
    </TTGlyph>
    <TTGlyph name="M" xMin="-33" yMin="-108" xMax="896" yMax="696">
      <contour>
        <pt x="683" y="694" on="1"/>
        <pt x="797" y="694" on="1"/>
        <pt x="797" y="-40" on="1"/>
        <pt x="797" y="-88" on="0"/>
        <pt x="847" y="-88" on="1"/>
        <pt x="867" y="-88" on="0"/>
        <pt x="888" y="-71" on="0"/>
        <pt x="889" y="-71" on="1"/>
        <pt x="896" y="-71" on="0"/>
        <pt x="896" y="-86" on="0"/>
        <pt x="891" y="-92" on="1"/>
        <pt x="878" y="-108" on="0"/>
        <pt x="781" y="-108" on="0"/>
        <pt x="696" y="-51" on="0"/>
        <pt x="696" y="1" on="1"/>
        <pt x="696" y="663" on="1"/>
        <pt x="501" y="2" on="1"/>
        <pt x="499" y="-9" on="0"/>
        <pt x="482" y="-9" on="0"/>
        <pt x="478" y="4" on="1"/>
        <pt x="283" y="659" on="1"/>
        <pt x="283" y="224" on="1"/>
        <pt x="283" y="111" on="0"/>
        <pt x="186" y="-6" on="0"/>
        <pt x="56" y="-6" on="0"/>
        <pt x="-33" y="70" on="0"/>
        <pt x="-33" y="181" on="0"/>
        <pt x="20" y="226" on="0"/>
        <pt x="61" y="226" on="0"/>
        <pt x="91" y="208" on="0"/>
        <pt x="91" y="186" on="0"/>
        <pt x="81" y="186" on="0"/>
        <pt x="76" y="192" on="0"/>
        <pt x="74" y="196" on="1"/>
        <pt x="67" y="206" on="0"/>
        <pt x="16" y="206" on="0"/>
        <pt x="-14" y="163" on="0"/>
        <pt x="-14" y="130" on="1"/>
        <pt x="-14" y="76" on="0"/>
        <pt x="65" y="13" on="0"/>
        <pt x="173" y="13" on="0"/>
        <pt x="263" y="113" on="0"/>
        <pt x="263" y="198" on="1"/>
        <pt x="263" y="676" on="1"/>
        <pt x="184" y="676" on="1"/>
        <pt x="137" y="676" on="0"/>
        <pt x="91" y="635" on="0"/>
        <pt x="91" y="580" on="0"/>
        <pt x="119" y="544" on="0"/>
        <pt x="166" y="544" on="0"/>
        <pt x="188" y="566" on="0"/>
        <pt x="200" y="587" on="0"/>
        <pt x="212" y="587" on="0"/>
        <pt x="212" y="557" on="0"/>
        <pt x="167" y="524" on="0"/>
        <pt x="107" y="524" on="0"/>
        <pt x="71" y="570" on="0"/>
        <pt x="71" y="639" on="0"/>
        <pt x="130" y="696" on="0"/>
        <pt x="185" y="696" on="1"/>
        <pt x="379" y="696" on="1"/>
        <pt x="531" y="177" on="1"/>
      </contour>
    </TTGlyph>
    <TTGlyph name="N" xMin="-33" yMin="-6" xMax="935" yMax="746">
      <contour>
        <pt x="262" y="198" on="1"/>
        <pt x="263" y="676" on="1"/>
        <pt x="184" y="676" on="1"/>
        <pt x="137" y="676" on="0"/>
        <pt x="91" y="635" on="0"/>
        <pt x="91" y="580" on="0"/>
        <pt x="119" y="544" on="0"/>
        <pt x="166" y="544" on="0"/>
        <pt x="188" y="566" on="0"/>
        <pt x="200" y="587" on="0"/>
        <pt x="212" y="587" on="0"/>
        <pt x="212" y="557" on="0"/>
        <pt x="167" y="524" on="0"/>
        <pt x="107" y="524" on="0"/>
        <pt x="71" y="570" on="0"/>
        <pt x="71" y="639" on="0"/>
        <pt x="130" y="696" on="0"/>
        <pt x="185" y="696" on="1"/>
        <pt x="359" y="696" on="1"/>
        <pt x="622" y="235" on="1"/>
        <pt x="622" y="510" on="1"/>
        <pt x="622" y="746" on="0"/>
        <pt x="785" y="746" on="1"/>
        <pt x="846" y="746" on="0"/>
        <pt x="935" y="670" on="0"/>
        <pt x="935" y="559" on="0"/>
        <pt x="882" y="514" on="0"/>
        <pt x="841" y="514" on="0"/>
        <pt x="811" y="532" on="0"/>
        <pt x="811" y="554" on="0"/>
        <pt x="821" y="554" on="0"/>
        <pt x="826" y="547" on="0"/>
        <pt x="828" y="544" on="1"/>
        <pt x="836" y="533" on="0"/>
        <pt x="884" y="533" on="0"/>
        <pt x="915" y="577" on="0"/>
        <pt x="915" y="610" on="1"/>
        <pt x="915" y="663" on="0"/>
        <pt x="842" y="726" on="0"/>
        <pt x="791" y="726" on="1"/>
        <pt x="760" y="726" on="0"/>
        <pt x="714" y="711" on="0"/>
        <pt x="691" y="690" on="1"/>
        <pt x="644" y="649" on="0"/>
        <pt x="644" y="512" on="1"/>
        <pt x="644" y="5" on="1"/>
        <pt x="644" y="-6" on="0"/>
        <pt x="634" y="-6" on="1"/>
        <pt x="628" y="-6" on="0"/>
        <pt x="621" y="7" on="1"/>
        <pt x="283" y="637" on="1"/>
        <pt x="283" y="224" on="1"/>
        <pt x="283" y="111" on="0"/>
        <pt x="186" y="-6" on="0"/>
        <pt x="56" y="-6" on="0"/>
        <pt x="-33" y="70" on="0"/>
        <pt x="-33" y="181" on="0"/>
        <pt x="20" y="226" on="0"/>
        <pt x="61" y="226" on="0"/>
        <pt x="91" y="208" on="0"/>
        <pt x="91" y="186" on="0"/>
        <pt x="81" y="186" on="0"/>
        <pt x="76" y="192" on="0"/>
        <pt x="74" y="196" on="1"/>
        <pt x="67" y="206" on="0"/>
        <pt x="16" y="206" on="0"/>
        <pt x="-14" y="163" on="0"/>
        <pt x="-14" y="130" on="1"/>
        <pt x="-14" y="76" on="0"/>
        <pt x="65" y="13" on="0"/>
        <pt x="173" y="13" on="0"/>
        <pt x="262" y="113" on="0"/>
      </contour>
    </TTGlyph>
    <TTGlyph name="Ntilde" xMin="-33" yMin="-6" xMax="935" yMax="907">
      <contour>
        <pt x="470" y="854" on="1"/>
        <pt x="489" y="832" on="0"/>
        <pt x="508" y="812" on="0"/>
        <pt x="543" y="792" on="0"/>
        <pt x="586" y="792" on="0"/>
        <pt x="619" y="823" on="0"/>
        <pt x="619" y="863" on="0"/>
        <pt x="598" y="887" on="0"/>
        <pt x="555" y="887" on="0"/>
        <pt x="548" y="862" on="1"/>
        <pt x="546" y="856" on="0"/>
        <pt x="544" y="856" on="1"/>
        <pt x="537" y="856" on="0"/>
        <pt x="537" y="886" on="0"/>
        <pt x="566" y="907" on="0"/>
        <pt x="604" y="907" on="0"/>
        <pt x="639" y="871" on="0"/>
        <pt x="639" y="811" on="0"/>
        <pt x="593" y="754" on="0"/>
        <pt x="509" y="754" on="0"/>
        <pt x="468" y="803" on="1"/>
        <pt x="448" y="827" on="0"/>
        <pt x="438" y="838" on="1"/>
        <pt x="408" y="869" on="0"/>
        <pt x="349" y="869" on="0"/>
        <pt x="316" y="838" on="0"/>
        <pt x="316" y="798" on="0"/>
        <pt x="337" y="774" on="0"/>
        <pt x="380" y="774" on="0"/>
        <pt x="387" y="799" on="1"/>
        <pt x="389" y="805" on="0"/>
        <pt x="391" y="805" on="1"/>
        <pt x="398" y="805" on="0"/>
        <pt x="398" y="775" on="0"/>
        <pt x="369" y="754" on="0"/>
        <pt x="331" y="754" on="0"/>
        <pt x="296" y="790" on="0"/>
        <pt x="296" y="850" on="0"/>
        <pt x="342" y="907" on="0"/>
        <pt x="425" y="907" on="0"/>
      </contour>
      <contour>
        <pt x="262" y="198" on="1"/>
        <pt x="263" y="676" on="1"/>
        <pt x="184" y="676" on="1"/>
        <pt x="137" y="676" on="0"/>
        <pt x="91" y="635" on="0"/>
        <pt x="91" y="580" on="0"/>
        <pt x="119" y="544" on="0"/>
        <pt x="166" y="544" on="0"/>
        <pt x="188" y="566" on="0"/>
        <pt x="200" y="587" on="0"/>
        <pt x="212" y="587" on="0"/>
        <pt x="212" y="557" on="0"/>
        <pt x="167" y="524" on="0"/>
        <pt x="107" y="524" on="0"/>
        <pt x="71" y="570" on="0"/>
        <pt x="71" y="639" on="0"/>
        <pt x="130" y="696" on="0"/>
        <pt x="185" y="696" on="1"/>
        <pt x="359" y="696" on="1"/>
        <pt x="622" y="235" on="1"/>
        <pt x="622" y="510" on="1"/>
        <pt x="622" y="746" on="0"/>
        <pt x="785" y="746" on="1"/>
        <pt x="846" y="746" on="0"/>
        <pt x="935" y="670" on="0"/>
        <pt x="935" y="559" on="0"/>
        <pt x="882" y="514" on="0"/>
        <pt x="841" y="514" on="0"/>
        <pt x="811" y="532" on="0"/>
        <pt x="811" y="554" on="0"/>
        <pt x="821" y="554" on="0"/>
        <pt x="826" y="547" on="0"/>
        <pt x="828" y="544" on="1"/>
        <pt x="836" y="533" on="0"/>
        <pt x="884" y="533" on="0"/>
        <pt x="915" y="577" on="0"/>
        <pt x="915" y="610" on="1"/>
        <pt x="915" y="663" on="0"/>
        <pt x="842" y="726" on="0"/>
        <pt x="791" y="726" on="1"/>
        <pt x="760" y="726" on="0"/>
        <pt x="714" y="711" on="0"/>
        <pt x="691" y="690" on="1"/>
        <pt x="644" y="649" on="0"/>
        <pt x="644" y="512" on="1"/>
        <pt x="644" y="5" on="1"/>
        <pt x="644" y="-6" on="0"/>
        <pt x="634" y="-6" on="1"/>
        <pt x="628" y="-6" on="0"/>
        <pt x="621" y="7" on="1"/>
        <pt x="283" y="637" on="1"/>
        <pt x="283" y="224" on="1"/>
        <pt x="283" y="111" on="0"/>
        <pt x="186" y="-6" on="0"/>
        <pt x="56" y="-6" on="0"/>
        <pt x="-33" y="70" on="0"/>
        <pt x="-33" y="181" on="0"/>
        <pt x="20" y="226" on="0"/>
        <pt x="61" y="226" on="0"/>
        <pt x="91" y="208" on="0"/>
        <pt x="91" y="186" on="0"/>
        <pt x="81" y="186" on="0"/>
        <pt x="76" y="192" on="0"/>
        <pt x="74" y="196" on="1"/>
        <pt x="67" y="206" on="0"/>
        <pt x="16" y="206" on="0"/>
        <pt x="-14" y="163" on="0"/>
        <pt x="-14" y="130" on="1"/>
        <pt x="-14" y="76" on="0"/>
        <pt x="65" y="13" on="0"/>
        <pt x="173" y="13" on="0"/>
        <pt x="262" y="113" on="0"/>
      </contour>
    </TTGlyph>
    <TTGlyph name="O" xMin="48" yMin="-10" xMax="648" yMax="706">
      <contour>
        <pt x="89" y="144" on="0"/>
        <pt x="48" y="268" on="0"/>
        <pt x="48" y="403" on="0"/>
        <pt x="89" y="529" on="0"/>
        <pt x="163" y="637" on="0"/>
        <pt x="282" y="706" on="0"/>
        <pt x="441" y="706" on="0"/>
        <pt x="579" y="594" on="0"/>
        <pt x="648" y="425" on="0"/>
        <pt x="648" y="246" on="0"/>
        <pt x="589" y="110" on="0"/>
        <pt x="543" y="70" on="1"/>
        <pt x="449" y="-10" on="0"/>
        <pt x="347" y="-10" on="1"/>
        <pt x="266" y="-10" on="0"/>
        <pt x="192" y="39" on="1"/>
        <pt x="152" y="66" on="0"/>
      </contour>
      <contour>
        <pt x="433" y="410" on="1"/>
        <pt x="404" y="416" on="1"/>
        <pt x="384" y="416" on="0"/>
        <pt x="358" y="382" on="0"/>
        <pt x="358" y="341" on="0"/>
        <pt x="395" y="294" on="0"/>
        <pt x="479" y="294" on="0"/>
        <pt x="542" y="371" on="0"/>
        <pt x="542" y="551" on="0"/>
        <pt x="440" y="686" on="0"/>
        <pt x="344" y="686" on="1"/>
        <pt x="295" y="686" on="0"/>
        <pt x="223" y="647" on="0"/>
        <pt x="181" y="585" on="0"/>
        <pt x="168" y="537" on="1"/>
        <pt x="148" y="458" on="0"/>
        <pt x="148" y="331" on="1"/>
        <pt x="148" y="10" on="0"/>
        <pt x="340" y="10" on="1"/>
        <pt x="448" y="10" on="0"/>
        <pt x="548" y="166" on="0"/>
        <pt x="548" y="318" on="1"/>
        <pt x="548" y="341" on="0"/>
        <pt x="547" y="352" on="1"/>
        <pt x="538" y="326" on="0"/>
        <pt x="473" y="274" on="0"/>
        <pt x="395" y="274" on="0"/>
        <pt x="338" y="327" on="0"/>
        <pt x="338" y="393" on="0"/>
        <pt x="374" y="436" on="0"/>
        <pt x="441" y="436" on="0"/>
        <pt x="441" y="417" on="1"/>
        <pt x="441" y="410" on="0"/>
      </contour>
    </TTGlyph>
    <TTGlyph name="OE" xMin="54" yMin="-1" xMax="783" yMax="697">
      <contour>
        <pt x="715" y="629" on="0"/>
        <pt x="640" y="676" on="0"/>
        <pt x="520" y="676" on="0"/>
        <pt x="436" y="609" on="0"/>
        <pt x="436" y="548" on="1"/>
        <pt x="436" y="491" on="0"/>
        <pt x="472" y="466" on="1"/>
        <pt x="508" y="439" on="0"/>
        <pt x="540" y="435" on="1"/>
        <pt x="586" y="428" on="0"/>
        <pt x="619" y="428" on="1"/>
        <pt x="641" y="428" on="0"/>
        <pt x="641" y="389" on="0"/>
        <pt x="622" y="386" on="1"/>
        <pt x="517" y="375" on="0"/>
        <pt x="474" y="347" on="1"/>
        <pt x="417" y="311" on="0"/>
        <pt x="400" y="265" on="1"/>
        <pt x="390" y="235" on="0"/>
        <pt x="390" y="197" on="1"/>
        <pt x="390" y="109" on="0"/>
        <pt x="497" y="20" on="0"/>
        <pt x="644" y="20" on="0"/>
        <pt x="763" y="93" on="0"/>
        <pt x="763" y="166" on="1"/>
        <pt x="763" y="224" on="0"/>
        <pt x="686" y="291" on="0"/>
        <pt x="644" y="291" on="1"/>
        <pt x="551" y="291" on="0"/>
        <pt x="551" y="228" on="1"/>
        <pt x="551" y="208" on="0"/>
        <pt x="576" y="187" on="0"/>
        <pt x="576" y="185" on="1"/>
        <pt x="576" y="179" on="0"/>
        <pt x="551" y="179" on="0"/>
        <pt x="531" y="212" on="0"/>
        <pt x="531" y="258" on="0"/>
        <pt x="586" y="309" on="0"/>
        <pt x="689" y="309" on="0"/>
        <pt x="783" y="236" on="0"/>
        <pt x="783" y="86" on="0"/>
        <pt x="652" y="-1" on="0"/>
        <pt x="476" y="-1" on="0"/>
        <pt x="410" y="27" on="1"/>
        <pt x="368" y="0" on="0"/>
        <pt x="254" y="0" on="0"/>
        <pt x="162" y="39" on="0"/>
        <pt x="105" y="103" on="0"/>
        <pt x="86" y="148" on="1"/>
        <pt x="54" y="227" on="0"/>
        <pt x="54" y="339" on="1"/>
        <pt x="54" y="378" on="0"/>
        <pt x="61" y="453" on="0"/>
        <pt x="93" y="562" on="0"/>
        <pt x="147" y="640" on="0"/>
        <pt x="251" y="697" on="0"/>
        <pt x="385" y="697" on="0"/>
        <pt x="433" y="663" on="1"/>
        <pt x="500" y="696" on="0"/>
        <pt x="570" y="696" on="1"/>
        <pt x="618" y="696" on="0"/>
        <pt x="658" y="682" on="1"/>
        <pt x="735" y="654" on="0"/>
        <pt x="735" y="591" on="1"/>
        <pt x="735" y="558" on="0"/>
        <pt x="696" y="524" on="0"/>
        <pt x="638" y="524" on="0"/>
        <pt x="594" y="557" on="0"/>
        <pt x="594" y="587" on="0"/>
        <pt x="607" y="587" on="0"/>
        <pt x="612" y="576" on="1"/>
        <pt x="627" y="544" on="0"/>
        <pt x="664" y="544" on="1"/>
        <pt x="715" y="544" on="0"/>
        <pt x="715" y="590" on="1"/>
      </contour>
      <contour>
        <pt x="323" y="20" on="1"/>
        <pt x="360" y="20" on="0"/>
        <pt x="381" y="42" on="1"/>
        <pt x="290" y="94" on="0"/>
        <pt x="290" y="188" on="1"/>
        <pt x="290" y="325" on="0"/>
        <pt x="502" y="400" on="1"/>
        <pt x="434" y="405" on="0"/>
        <pt x="337" y="482" on="0"/>
        <pt x="337" y="603" on="0"/>
        <pt x="406" y="648" on="1"/>
        <pt x="383" y="677" on="0"/>
        <pt x="282" y="677" on="0"/>
        <pt x="219" y="628" on="0"/>
        <pt x="183" y="555" on="0"/>
        <pt x="172" y="504" on="1"/>
        <pt x="154" y="422" on="0"/>
        <pt x="154" y="325" on="1"/>
        <pt x="154" y="20" on="0"/>
      </contour>
    </TTGlyph>
    <TTGlyph name="Oacute" xMin="48" yMin="-10" xMax="648" yMax="947">
      <contour>
        <pt x="89" y="144" on="0"/>
        <pt x="48" y="268" on="0"/>
        <pt x="48" y="403" on="0"/>
        <pt x="89" y="529" on="0"/>
        <pt x="163" y="637" on="0"/>
        <pt x="282" y="706" on="0"/>
        <pt x="441" y="706" on="0"/>
        <pt x="579" y="594" on="0"/>
        <pt x="648" y="425" on="0"/>
        <pt x="648" y="246" on="0"/>
        <pt x="589" y="110" on="0"/>
        <pt x="543" y="70" on="1"/>
        <pt x="449" y="-10" on="0"/>
        <pt x="347" y="-10" on="1"/>
        <pt x="266" y="-10" on="0"/>
        <pt x="192" y="39" on="1"/>
        <pt x="152" y="66" on="0"/>
      </contour>
      <contour>
        <pt x="433" y="410" on="1"/>
        <pt x="404" y="416" on="1"/>
        <pt x="384" y="416" on="0"/>
        <pt x="358" y="382" on="0"/>
        <pt x="358" y="341" on="0"/>
        <pt x="395" y="294" on="0"/>
        <pt x="479" y="294" on="0"/>
        <pt x="542" y="371" on="0"/>
        <pt x="542" y="551" on="0"/>
        <pt x="440" y="686" on="0"/>
        <pt x="344" y="686" on="1"/>
        <pt x="295" y="686" on="0"/>
        <pt x="223" y="647" on="0"/>
        <pt x="181" y="585" on="0"/>
        <pt x="168" y="537" on="1"/>
        <pt x="148" y="458" on="0"/>
        <pt x="148" y="331" on="1"/>
        <pt x="148" y="10" on="0"/>
        <pt x="340" y="10" on="1"/>
        <pt x="448" y="10" on="0"/>
        <pt x="548" y="166" on="0"/>
        <pt x="548" y="318" on="1"/>
        <pt x="548" y="341" on="0"/>
        <pt x="547" y="352" on="1"/>
        <pt x="538" y="326" on="0"/>
        <pt x="473" y="274" on="0"/>
        <pt x="395" y="274" on="0"/>
        <pt x="338" y="327" on="0"/>
        <pt x="338" y="393" on="0"/>
        <pt x="374" y="436" on="0"/>
        <pt x="441" y="436" on="0"/>
        <pt x="441" y="417" on="1"/>
        <pt x="441" y="410" on="0"/>
      </contour>
      <contour>
        <pt x="492" y="947" on="1"/>
        <pt x="378" y="827" on="1"/>
        <pt x="329" y="827" on="1"/>
        <pt x="392" y="947" on="1"/>
      </contour>
    </TTGlyph>
    <TTGlyph name="Ocircumflex" xMin="48" yMin="-10" xMax="648" yMax="927">
      <contour>
        <pt x="89" y="144" on="0"/>
        <pt x="48" y="268" on="0"/>
        <pt x="48" y="403" on="0"/>
        <pt x="89" y="529" on="0"/>
        <pt x="163" y="637" on="0"/>
        <pt x="282" y="706" on="0"/>
        <pt x="441" y="706" on="0"/>
        <pt x="579" y="594" on="0"/>
        <pt x="648" y="425" on="0"/>
        <pt x="648" y="246" on="0"/>
        <pt x="589" y="110" on="0"/>
        <pt x="543" y="70" on="1"/>
        <pt x="449" y="-10" on="0"/>
        <pt x="347" y="-10" on="1"/>
        <pt x="266" y="-10" on="0"/>
        <pt x="192" y="39" on="1"/>
        <pt x="152" y="66" on="0"/>
      </contour>
      <contour>
        <pt x="433" y="410" on="1"/>
        <pt x="404" y="416" on="1"/>
        <pt x="384" y="416" on="0"/>
        <pt x="358" y="382" on="0"/>
        <pt x="358" y="341" on="0"/>
        <pt x="395" y="294" on="0"/>
        <pt x="479" y="294" on="0"/>
        <pt x="542" y="371" on="0"/>
        <pt x="542" y="551" on="0"/>
        <pt x="440" y="686" on="0"/>
        <pt x="344" y="686" on="1"/>
        <pt x="295" y="686" on="0"/>
        <pt x="223" y="647" on="0"/>
        <pt x="181" y="585" on="0"/>
        <pt x="168" y="537" on="1"/>
        <pt x="148" y="458" on="0"/>
        <pt x="148" y="331" on="1"/>
        <pt x="148" y="10" on="0"/>
        <pt x="340" y="10" on="1"/>
        <pt x="448" y="10" on="0"/>
        <pt x="548" y="166" on="0"/>
        <pt x="548" y="318" on="1"/>
        <pt x="548" y="341" on="0"/>
        <pt x="547" y="352" on="1"/>
        <pt x="538" y="326" on="0"/>
        <pt x="473" y="274" on="0"/>
        <pt x="395" y="274" on="0"/>
        <pt x="338" y="327" on="0"/>
        <pt x="338" y="393" on="0"/>
        <pt x="374" y="436" on="0"/>
        <pt x="441" y="436" on="0"/>
        <pt x="441" y="417" on="1"/>
        <pt x="441" y="410" on="0"/>
      </contour>
      <contour>
        <pt x="357" y="927" on="1"/>
        <pt x="524" y="753" on="1"/>
        <pt x="469" y="753" on="1"/>
        <pt x="357" y="867" on="1"/>
        <pt x="253" y="754" on="1"/>
        <pt x="198" y="754" on="1"/>
      </contour>
    </TTGlyph>
    <TTGlyph name="Odieresis" xMin="48" yMin="-10" xMax="648" yMax="885">
      <contour>
        <pt x="89" y="144" on="0"/>
        <pt x="48" y="268" on="0"/>
        <pt x="48" y="403" on="0"/>
        <pt x="89" y="529" on="0"/>
        <pt x="163" y="637" on="0"/>
        <pt x="282" y="706" on="0"/>
        <pt x="441" y="706" on="0"/>
        <pt x="579" y="594" on="0"/>
        <pt x="648" y="425" on="0"/>
        <pt x="648" y="246" on="0"/>
        <pt x="589" y="110" on="0"/>
        <pt x="543" y="70" on="1"/>
        <pt x="449" y="-10" on="0"/>
        <pt x="347" y="-10" on="1"/>
        <pt x="266" y="-10" on="0"/>
        <pt x="192" y="39" on="1"/>
        <pt x="152" y="66" on="0"/>
      </contour>
      <contour>
        <pt x="433" y="410" on="1"/>
        <pt x="404" y="416" on="1"/>
        <pt x="384" y="416" on="0"/>
        <pt x="358" y="382" on="0"/>
        <pt x="358" y="341" on="0"/>
        <pt x="395" y="294" on="0"/>
        <pt x="479" y="294" on="0"/>
        <pt x="542" y="371" on="0"/>
        <pt x="542" y="551" on="0"/>
        <pt x="440" y="686" on="0"/>
        <pt x="344" y="686" on="1"/>
        <pt x="295" y="686" on="0"/>
        <pt x="223" y="647" on="0"/>
        <pt x="181" y="585" on="0"/>
        <pt x="168" y="537" on="1"/>
        <pt x="148" y="458" on="0"/>
        <pt x="148" y="331" on="1"/>
        <pt x="148" y="10" on="0"/>
        <pt x="340" y="10" on="1"/>
        <pt x="448" y="10" on="0"/>
        <pt x="548" y="166" on="0"/>
        <pt x="548" y="318" on="1"/>
        <pt x="548" y="341" on="0"/>
        <pt x="547" y="352" on="1"/>
        <pt x="538" y="326" on="0"/>
        <pt x="473" y="274" on="0"/>
        <pt x="395" y="274" on="0"/>
        <pt x="338" y="327" on="0"/>
        <pt x="338" y="393" on="0"/>
        <pt x="374" y="436" on="0"/>
        <pt x="441" y="436" on="0"/>
        <pt x="441" y="417" on="1"/>
        <pt x="441" y="410" on="0"/>
      </contour>
      <contour>
        <pt x="186" y="810" on="0"/>
        <pt x="186" y="854" on="0"/>
        <pt x="217" y="885" on="0"/>
        <pt x="261" y="885" on="0"/>
        <pt x="293" y="854" on="0"/>
        <pt x="293" y="810" on="0"/>
        <pt x="261" y="779" on="0"/>
        <pt x="217" y="779" on="0"/>
      </contour>
      <contour>
        <pt x="405" y="810" on="0"/>
        <pt x="405" y="854" on="0"/>
        <pt x="436" y="885" on="0"/>
        <pt x="480" y="885" on="0"/>
        <pt x="512" y="854" on="0"/>
        <pt x="512" y="810" on="0"/>
        <pt x="480" y="779" on="0"/>
        <pt x="436" y="779" on="0"/>
      </contour>
    </TTGlyph>
    <TTGlyph name="Ograve" xMin="48" yMin="-10" xMax="648" yMax="947">
      <contour>
        <pt x="89" y="144" on="0"/>
        <pt x="48" y="268" on="0"/>
        <pt x="48" y="403" on="0"/>
        <pt x="89" y="529" on="0"/>
        <pt x="163" y="637" on="0"/>
        <pt x="282" y="706" on="0"/>
        <pt x="441" y="706" on="0"/>
        <pt x="579" y="594" on="0"/>
        <pt x="648" y="425" on="0"/>
        <pt x="648" y="246" on="0"/>
        <pt x="589" y="110" on="0"/>
        <pt x="543" y="70" on="1"/>
        <pt x="449" y="-10" on="0"/>
        <pt x="347" y="-10" on="1"/>
        <pt x="266" y="-10" on="0"/>
        <pt x="192" y="39" on="1"/>
        <pt x="152" y="66" on="0"/>
      </contour>
      <contour>
        <pt x="433" y="410" on="1"/>
        <pt x="404" y="416" on="1"/>
        <pt x="384" y="416" on="0"/>
        <pt x="358" y="382" on="0"/>
        <pt x="358" y="341" on="0"/>
        <pt x="395" y="294" on="0"/>
        <pt x="479" y="294" on="0"/>
        <pt x="542" y="371" on="0"/>
        <pt x="542" y="551" on="0"/>
        <pt x="440" y="686" on="0"/>
        <pt x="344" y="686" on="1"/>
        <pt x="295" y="686" on="0"/>
        <pt x="223" y="647" on="0"/>
        <pt x="181" y="585" on="0"/>
        <pt x="168" y="537" on="1"/>
        <pt x="148" y="458" on="0"/>
        <pt x="148" y="331" on="1"/>
        <pt x="148" y="10" on="0"/>
        <pt x="340" y="10" on="1"/>
        <pt x="448" y="10" on="0"/>
        <pt x="548" y="166" on="0"/>
        <pt x="548" y="318" on="1"/>
        <pt x="548" y="341" on="0"/>
        <pt x="547" y="352" on="1"/>
        <pt x="538" y="326" on="0"/>
        <pt x="473" y="274" on="0"/>
        <pt x="395" y="274" on="0"/>
        <pt x="338" y="327" on="0"/>
        <pt x="338" y="393" on="0"/>
        <pt x="374" y="436" on="0"/>
        <pt x="441" y="436" on="0"/>
        <pt x="441" y="417" on="1"/>
        <pt x="441" y="410" on="0"/>
      </contour>
      <contour>
        <pt x="348" y="827" on="1"/>
        <pt x="234" y="947" on="1"/>
        <pt x="334" y="947" on="1"/>
        <pt x="397" y="827" on="1"/>
      </contour>
    </TTGlyph>
    <TTGlyph name="Oslash" xMin="65" yMin="-49" xMax="526" yMax="730">
      <contour>
        <pt x="65" y="-49" on="1"/>
        <pt x="137" y="94" on="1"/>
        <pt x="70" y="190" on="0"/>
        <pt x="70" y="321" on="1"/>
        <pt x="70" y="444" on="0"/>
        <pt x="117" y="559" on="1"/>
        <pt x="142" y="620" on="0"/>
        <pt x="239" y="697" on="0"/>
        <pt x="372" y="697" on="0"/>
        <pt x="420" y="655" on="1"/>
        <pt x="458" y="730" on="1"/>
        <pt x="526" y="730" on="1"/>
        <pt x="462" y="604" on="1"/>
        <pt x="526" y="500" on="0"/>
        <pt x="526" y="321" on="1"/>
        <pt x="526" y="187" on="0"/>
        <pt x="387" y="0" on="0"/>
        <pt x="301" y="0" on="1"/>
        <pt x="233" y="0" on="0"/>
        <pt x="180" y="45" on="1"/>
        <pt x="133" y="-49" on="1"/>
      </contour>
      <contour>
        <pt x="170" y="309" on="1"/>
        <pt x="170" y="244" on="0"/>
        <pt x="181" y="181" on="1"/>
        <pt x="393" y="600" on="1"/>
        <pt x="364" y="678" on="0"/>
        <pt x="310" y="678" on="1"/>
        <pt x="170" y="678" on="0"/>
      </contour>
      <contour>
        <pt x="353" y="20" on="0"/>
        <pt x="425" y="186" on="0"/>
        <pt x="425" y="435" on="0"/>
        <pt x="414" y="509" on="1"/>
        <pt x="206" y="97" on="1"/>
        <pt x="240" y="20" on="0"/>
      </contour>
    </TTGlyph>
    <TTGlyph name="Otilde" xMin="48" yMin="-10" xMax="648" yMax="907">
      <contour>
        <pt x="89" y="144" on="0"/>
        <pt x="48" y="268" on="0"/>
        <pt x="48" y="403" on="0"/>
        <pt x="89" y="529" on="0"/>
        <pt x="163" y="637" on="0"/>
        <pt x="282" y="706" on="0"/>
        <pt x="441" y="706" on="0"/>
        <pt x="579" y="594" on="0"/>
        <pt x="648" y="425" on="0"/>
        <pt x="648" y="246" on="0"/>
        <pt x="589" y="110" on="0"/>
        <pt x="543" y="70" on="1"/>
        <pt x="449" y="-10" on="0"/>
        <pt x="347" y="-10" on="1"/>
        <pt x="266" y="-10" on="0"/>
        <pt x="192" y="39" on="1"/>
        <pt x="152" y="66" on="0"/>
      </contour>
      <contour>
        <pt x="433" y="410" on="1"/>
        <pt x="404" y="416" on="1"/>
        <pt x="384" y="416" on="0"/>
        <pt x="358" y="382" on="0"/>
        <pt x="358" y="341" on="0"/>
        <pt x="395" y="294" on="0"/>
        <pt x="479" y="294" on="0"/>
        <pt x="542" y="371" on="0"/>
        <pt x="542" y="551" on="0"/>
        <pt x="440" y="686" on="0"/>
        <pt x="344" y="686" on="1"/>
        <pt x="295" y="686" on="0"/>
        <pt x="223" y="647" on="0"/>
        <pt x="181" y="585" on="0"/>
        <pt x="168" y="537" on="1"/>
        <pt x="148" y="458" on="0"/>
        <pt x="148" y="331" on="1"/>
        <pt x="148" y="10" on="0"/>
        <pt x="340" y="10" on="1"/>
        <pt x="448" y="10" on="0"/>
        <pt x="548" y="166" on="0"/>
        <pt x="548" y="318" on="1"/>
        <pt x="548" y="341" on="0"/>
        <pt x="547" y="352" on="1"/>
        <pt x="538" y="326" on="0"/>
        <pt x="473" y="274" on="0"/>
        <pt x="395" y="274" on="0"/>
        <pt x="338" y="327" on="0"/>
        <pt x="338" y="393" on="0"/>
        <pt x="374" y="436" on="0"/>
        <pt x="441" y="436" on="0"/>
        <pt x="441" y="417" on="1"/>
        <pt x="441" y="410" on="0"/>
      </contour>
      <contour>
        <pt x="352" y="854" on="1"/>
        <pt x="371" y="832" on="0"/>
        <pt x="390" y="812" on="0"/>
        <pt x="425" y="792" on="0"/>
        <pt x="468" y="792" on="0"/>
        <pt x="501" y="823" on="0"/>
        <pt x="501" y="863" on="0"/>
        <pt x="480" y="887" on="0"/>
        <pt x="437" y="887" on="0"/>
        <pt x="430" y="862" on="1"/>
        <pt x="428" y="856" on="0"/>
        <pt x="426" y="856" on="1"/>
        <pt x="419" y="856" on="0"/>
        <pt x="419" y="886" on="0"/>
        <pt x="448" y="907" on="0"/>
        <pt x="486" y="907" on="0"/>
        <pt x="521" y="871" on="0"/>
        <pt x="521" y="811" on="0"/>
        <pt x="475" y="754" on="0"/>
        <pt x="391" y="754" on="0"/>
        <pt x="350" y="803" on="1"/>
        <pt x="330" y="827" on="0"/>
        <pt x="320" y="838" on="1"/>
        <pt x="290" y="869" on="0"/>
        <pt x="231" y="869" on="0"/>
        <pt x="198" y="838" on="0"/>
        <pt x="198" y="798" on="0"/>
        <pt x="219" y="774" on="0"/>
        <pt x="262" y="774" on="0"/>
        <pt x="269" y="799" on="1"/>
        <pt x="271" y="805" on="0"/>
        <pt x="273" y="805" on="1"/>
        <pt x="280" y="805" on="0"/>
        <pt x="280" y="775" on="0"/>
        <pt x="251" y="754" on="0"/>
        <pt x="213" y="754" on="0"/>
        <pt x="178" y="790" on="0"/>
        <pt x="178" y="850" on="0"/>
        <pt x="224" y="907" on="0"/>
        <pt x="307" y="907" on="0"/>
      </contour>
    </TTGlyph>
    <TTGlyph name="P" xMin="-27" yMin="0" xMax="633" yMax="696">
      <contour>
        <pt x="87" y="696" on="1"/>
        <pt x="369" y="696" on="1"/>
        <pt x="495" y="696" on="0"/>
        <pt x="633" y="551" on="0"/>
        <pt x="633" y="361" on="0"/>
        <pt x="518" y="230" on="0"/>
        <pt x="417" y="230" on="1"/>
        <pt x="366" y="230" on="0"/>
        <pt x="271" y="291" on="0"/>
        <pt x="262" y="345" on="1"/>
        <pt x="262" y="0" on="1"/>
        <pt x="162" y="0" on="1"/>
        <pt x="162" y="676" on="1"/>
        <pt x="86" y="676" on="1"/>
        <pt x="39" y="676" on="0"/>
        <pt x="-7" y="635" on="0"/>
        <pt x="-7" y="580" on="0"/>
        <pt x="21" y="544" on="0"/>
        <pt x="68" y="544" on="0"/>
        <pt x="90" y="566" on="0"/>
        <pt x="102" y="587" on="0"/>
        <pt x="114" y="587" on="0"/>
        <pt x="114" y="557" on="0"/>
        <pt x="69" y="524" on="0"/>
        <pt x="9" y="524" on="0"/>
        <pt x="-27" y="570" on="0"/>
        <pt x="-27" y="639" on="0"/>
        <pt x="32" y="696" on="0"/>
      </contour>
      <contour>
        <pt x="269" y="433" on="0"/>
        <pt x="317" y="470" on="0"/>
        <pt x="364" y="470" on="0"/>
        <pt x="403" y="452" on="0"/>
        <pt x="403" y="443" on="1"/>
        <pt x="403" y="439" on="0"/>
        <pt x="396" y="432" on="0"/>
        <pt x="391" y="432" on="0"/>
        <pt x="361" y="450" on="0"/>
        <pt x="311" y="450" on="0"/>
        <pt x="279" y="408" on="0"/>
        <pt x="279" y="378" on="1"/>
        <pt x="279" y="330" on="0"/>
        <pt x="356" y="249" on="0"/>
        <pt x="480" y="249" on="0"/>
        <pt x="547" y="360" on="0"/>
        <pt x="547" y="533" on="0"/>
        <pt x="459" y="676" on="0"/>
        <pt x="383" y="676" on="1"/>
        <pt x="262" y="676" on="1"/>
        <pt x="262" y="395" on="1"/>
      </contour>
    </TTGlyph>
    <TTGlyph name="Q" xMin="48" yMin="-237" xMax="675" yMax="706">
      <contour>
        <pt x="48" y="339" on="1"/>
        <pt x="48" y="421" on="0"/>
        <pt x="118" y="592" on="0"/>
        <pt x="260" y="706" on="0"/>
        <pt x="441" y="706" on="0"/>
        <pt x="580" y="593" on="0"/>
        <pt x="648" y="424" on="0"/>
        <pt x="648" y="251" on="0"/>
        <pt x="598" y="126" on="0"/>
        <pt x="557" y="88" on="1"/>
        <pt x="476" y="14" on="0"/>
        <pt x="382" y="2" on="1"/>
        <pt x="382" y="-32" on="1"/>
        <pt x="382" y="-81" on="0"/>
        <pt x="412" y="-157" on="0"/>
        <pt x="435" y="-177" on="1"/>
        <pt x="480" y="-216" on="0"/>
        <pt x="562" y="-216" on="0"/>
        <pt x="655" y="-152" on="0"/>
        <pt x="655" y="-97" on="1"/>
        <pt x="655" y="-66" on="0"/>
        <pt x="625" y="-24" on="0"/>
        <pt x="577" y="-24" on="0"/>
        <pt x="560" y="-44" on="0"/>
        <pt x="551" y="-44" on="0"/>
        <pt x="551" y="-22" on="0"/>
        <pt x="581" y="-4" on="0"/>
        <pt x="598" y="-4" on="1"/>
        <pt x="632" y="-4" on="0"/>
        <pt x="675" y="-53" on="0"/>
        <pt x="675" y="-94" on="1"/>
        <pt x="675" y="-151" on="0"/>
        <pt x="576" y="-237" on="0"/>
        <pt x="503" y="-237" on="1"/>
        <pt x="424" y="-237" on="0"/>
        <pt x="358" y="-186" on="1"/>
        <pt x="325" y="-160" on="0"/>
        <pt x="283" y="-67" on="0"/>
        <pt x="283" y="-6" on="1"/>
        <pt x="283" y="8" on="1"/>
        <pt x="193" y="30" on="0"/>
        <pt x="125" y="104" on="1"/>
        <pt x="48" y="186" on="0"/>
      </contour>
      <contour>
        <pt x="433" y="410" on="1"/>
        <pt x="404" y="416" on="1"/>
        <pt x="384" y="416" on="0"/>
        <pt x="358" y="382" on="0"/>
        <pt x="358" y="341" on="0"/>
        <pt x="395" y="294" on="0"/>
        <pt x="479" y="294" on="0"/>
        <pt x="542" y="370" on="0"/>
        <pt x="542" y="550" on="0"/>
        <pt x="440" y="687" on="0"/>
        <pt x="345" y="687" on="1"/>
        <pt x="298" y="687" on="0"/>
        <pt x="226" y="650" on="0"/>
        <pt x="184" y="589" on="0"/>
        <pt x="170" y="544" on="1"/>
        <pt x="148" y="468" on="0"/>
        <pt x="148" y="349" on="1"/>
        <pt x="148" y="168" on="0"/>
        <pt x="244" y="20" on="0"/>
        <pt x="450" y="20" on="0"/>
        <pt x="548" y="167" on="0"/>
        <pt x="548" y="318" on="1"/>
        <pt x="548" y="341" on="0"/>
        <pt x="547" y="352" on="1"/>
        <pt x="538" y="326" on="0"/>
        <pt x="473" y="274" on="0"/>
        <pt x="395" y="274" on="0"/>
        <pt x="338" y="327" on="0"/>
        <pt x="338" y="393" on="0"/>
        <pt x="374" y="436" on="0"/>
        <pt x="441" y="436" on="0"/>
        <pt x="441" y="417" on="1"/>
        <pt x="441" y="410" on="0"/>
      </contour>
    </TTGlyph>
    <TTGlyph name="R" xMin="-27" yMin="-111" xMax="698" yMax="696">
      <contour>
        <pt x="87" y="696" on="1"/>
        <pt x="349" y="696" on="1"/>
        <pt x="625" y="696" on="0"/>
        <pt x="625" y="505" on="1"/>
        <pt x="625" y="422" on="0"/>
        <pt x="531" y="338" on="0"/>
        <pt x="461" y="326" on="1"/>
        <pt x="534" y="325" on="0"/>
        <pt x="609" y="235" on="0"/>
        <pt x="609" y="167" on="1"/>
        <pt x="609" y="-43" on="1"/>
        <pt x="609" y="-91" on="0"/>
        <pt x="658" y="-91" on="1"/>
        <pt x="670" y="-91" on="0"/>
        <pt x="688" y="-84" on="0"/>
        <pt x="690" y="-84" on="1"/>
        <pt x="698" y="-84" on="0"/>
        <pt x="698" y="-93" on="1"/>
        <pt x="698" y="-111" on="0"/>
        <pt x="592" y="-111" on="0"/>
        <pt x="508" y="-51" on="0"/>
        <pt x="508" y="3" on="1"/>
        <pt x="508" y="81" on="1"/>
        <pt x="508" y="230" on="0"/>
        <pt x="485" y="273" on="1"/>
        <pt x="476" y="290" on="0"/>
        <pt x="462" y="308" on="0"/>
        <pt x="432" y="318" on="0"/>
        <pt x="393" y="320" on="1"/>
        <pt x="268" y="325" on="0"/>
        <pt x="262" y="429" on="1"/>
        <pt x="262" y="0" on="1"/>
        <pt x="162" y="0" on="1"/>
        <pt x="162" y="676" on="1"/>
        <pt x="86" y="676" on="1"/>
        <pt x="39" y="676" on="0"/>
        <pt x="-7" y="635" on="0"/>
        <pt x="-7" y="580" on="0"/>
        <pt x="21" y="544" on="0"/>
        <pt x="68" y="544" on="0"/>
        <pt x="90" y="566" on="0"/>
        <pt x="102" y="587" on="0"/>
        <pt x="114" y="587" on="0"/>
        <pt x="114" y="557" on="0"/>
        <pt x="69" y="524" on="0"/>
        <pt x="9" y="524" on="0"/>
        <pt x="-27" y="570" on="0"/>
        <pt x="-27" y="639" on="0"/>
        <pt x="32" y="696" on="0"/>
      </contour>
      <contour>
        <pt x="263" y="502" on="0"/>
        <pt x="320" y="550" on="0"/>
        <pt x="374" y="550" on="0"/>
        <pt x="413" y="532" on="0"/>
        <pt x="413" y="523" on="1"/>
        <pt x="413" y="519" on="0"/>
        <pt x="406" y="512" on="0"/>
        <pt x="401" y="512" on="0"/>
        <pt x="371" y="530" on="0"/>
        <pt x="323" y="530" on="0"/>
        <pt x="281" y="491" on="0"/>
        <pt x="281" y="402" on="0"/>
        <pt x="343" y="339" on="0"/>
        <pt x="469" y="339" on="0"/>
        <pt x="536" y="405" on="0"/>
        <pt x="536" y="588" on="0"/>
        <pt x="452" y="676" on="0"/>
        <pt x="363" y="676" on="1"/>
        <pt x="262" y="676" on="1"/>
        <pt x="262" y="447" on="1"/>
      </contour>
    </TTGlyph>
    <TTGlyph name="S" xMin="47" yMin="-9" xMax="487" yMax="707">
      <contour>
        <pt x="179" y="343" on="1"/>
        <pt x="123" y="362" on="0"/>
        <pt x="69" y="438" on="0"/>
        <pt x="69" y="504" on="1"/>
        <pt x="69" y="596" on="0"/>
        <pt x="209" y="707" on="0"/>
        <pt x="354" y="707" on="0"/>
        <pt x="465" y="642" on="0"/>
        <pt x="465" y="586" on="1"/>
        <pt x="465" y="552" on="0"/>
        <pt x="423" y="516" on="0"/>
        <pt x="364" y="516" on="0"/>
        <pt x="329" y="549" on="0"/>
        <pt x="329" y="578" on="0"/>
        <pt x="340" y="578" on="0"/>
        <pt x="348" y="565" on="0"/>
        <pt x="351" y="557" on="1"/>
        <pt x="359" y="536" on="0"/>
        <pt x="412" y="536" on="0"/>
        <pt x="443" y="562" on="0"/>
        <pt x="443" y="586" on="1"/>
        <pt x="443" y="630" on="0"/>
        <pt x="345" y="686" on="0"/>
        <pt x="221" y="686" on="0"/>
        <pt x="113" y="610" on="0"/>
        <pt x="113" y="552" on="1"/>
        <pt x="113" y="513" on="0"/>
        <pt x="168" y="462" on="0"/>
        <pt x="237" y="440" on="0"/>
        <pt x="348" y="410" on="0"/>
        <pt x="379" y="396" on="1"/>
        <pt x="487" y="348" on="0"/>
        <pt x="487" y="223" on="1"/>
        <pt x="487" y="160" on="0"/>
        <pt x="440" y="64" on="0"/>
        <pt x="404" y="39" on="1"/>
        <pt x="333" y="-9" on="0"/>
        <pt x="261" y="-9" on="1"/>
        <pt x="195" y="-9" on="0"/>
        <pt x="125" y="32" on="1"/>
        <pt x="91" y="52" on="0"/>
        <pt x="47" y="124" on="0"/>
        <pt x="47" y="221" on="0"/>
        <pt x="100" y="266" on="0"/>
        <pt x="141" y="266" on="0"/>
        <pt x="171" y="248" on="0"/>
        <pt x="171" y="226" on="0"/>
        <pt x="161" y="226" on="0"/>
        <pt x="156" y="232" on="0"/>
        <pt x="154" y="236" on="1"/>
        <pt x="147" y="246" on="0"/>
        <pt x="96" y="246" on="0"/>
        <pt x="65" y="203" on="0"/>
        <pt x="65" y="170" on="1"/>
        <pt x="65" y="98" on="0"/>
        <pt x="187" y="11" on="0"/>
        <pt x="257" y="11" on="1"/>
        <pt x="353" y="11" on="0"/>
        <pt x="410" y="76" on="1"/>
        <pt x="443" y="115" on="0"/>
        <pt x="443" y="237" on="0"/>
        <pt x="360" y="298" on="0"/>
        <pt x="210" y="333" on="0"/>
      </contour>
    </TTGlyph>
    <TTGlyph name="Scaron" xMin="47" yMin="-9" xMax="487" yMax="800">
      <contour>
        <pt x="295" y="800" on="1"/>
        <pt x="347" y="800" on="1"/>
        <pt x="261" y="710" on="1"/>
        <pt x="178" y="800" on="1"/>
        <pt x="229" y="800" on="1"/>
        <pt x="261" y="750" on="1"/>
      </contour>
      <contour>
        <pt x="179" y="343" on="1"/>
        <pt x="123" y="362" on="0"/>
        <pt x="69" y="438" on="0"/>
        <pt x="69" y="504" on="1"/>
        <pt x="69" y="596" on="0"/>
        <pt x="209" y="707" on="0"/>
        <pt x="354" y="707" on="0"/>
        <pt x="465" y="642" on="0"/>
        <pt x="465" y="586" on="1"/>
        <pt x="465" y="552" on="0"/>
        <pt x="423" y="516" on="0"/>
        <pt x="364" y="516" on="0"/>
        <pt x="329" y="549" on="0"/>
        <pt x="329" y="578" on="0"/>
        <pt x="340" y="578" on="0"/>
        <pt x="348" y="565" on="0"/>
        <pt x="351" y="557" on="1"/>
        <pt x="359" y="536" on="0"/>
        <pt x="412" y="536" on="0"/>
        <pt x="443" y="562" on="0"/>
        <pt x="443" y="586" on="1"/>
        <pt x="443" y="630" on="0"/>
        <pt x="345" y="686" on="0"/>
        <pt x="221" y="686" on="0"/>
        <pt x="113" y="610" on="0"/>
        <pt x="113" y="552" on="1"/>
        <pt x="113" y="513" on="0"/>
        <pt x="168" y="462" on="0"/>
        <pt x="237" y="440" on="0"/>
        <pt x="348" y="410" on="0"/>
        <pt x="379" y="396" on="1"/>
        <pt x="487" y="348" on="0"/>
        <pt x="487" y="223" on="1"/>
        <pt x="487" y="160" on="0"/>
        <pt x="440" y="64" on="0"/>
        <pt x="404" y="39" on="1"/>
        <pt x="333" y="-9" on="0"/>
        <pt x="261" y="-9" on="1"/>
        <pt x="195" y="-9" on="0"/>
        <pt x="125" y="32" on="1"/>
        <pt x="91" y="52" on="0"/>
        <pt x="47" y="124" on="0"/>
        <pt x="47" y="221" on="0"/>
        <pt x="100" y="266" on="0"/>
        <pt x="141" y="266" on="0"/>
        <pt x="171" y="248" on="0"/>
        <pt x="171" y="226" on="0"/>
        <pt x="161" y="226" on="0"/>
        <pt x="156" y="232" on="0"/>
        <pt x="154" y="236" on="1"/>
        <pt x="147" y="246" on="0"/>
        <pt x="96" y="246" on="0"/>
        <pt x="65" y="203" on="0"/>
        <pt x="65" y="170" on="1"/>
        <pt x="65" y="98" on="0"/>
        <pt x="187" y="11" on="0"/>
        <pt x="257" y="11" on="1"/>
        <pt x="353" y="11" on="0"/>
        <pt x="410" y="76" on="1"/>
        <pt x="443" y="115" on="0"/>
        <pt x="443" y="237" on="0"/>
        <pt x="360" y="298" on="0"/>
        <pt x="210" y="333" on="0"/>
      </contour>
    </TTGlyph>
    <TTGlyph name="T" xMin="5" yMin="0" xMax="544" yMax="696">
      <contour>
        <pt x="344" y="0" on="1"/>
        <pt x="245" y="0" on="1"/>
        <pt x="245" y="676" on="1"/>
        <pt x="118" y="676" on="1"/>
        <pt x="71" y="676" on="0"/>
        <pt x="25" y="635" on="0"/>
        <pt x="25" y="580" on="0"/>
        <pt x="53" y="544" on="0"/>
        <pt x="100" y="544" on="0"/>
        <pt x="122" y="566" on="0"/>
        <pt x="134" y="587" on="0"/>
        <pt x="146" y="587" on="0"/>
        <pt x="146" y="557" on="0"/>
        <pt x="101" y="524" on="0"/>
        <pt x="41" y="524" on="0"/>
        <pt x="5" y="570" on="0"/>
        <pt x="5" y="639" on="0"/>
        <pt x="64" y="696" on="0"/>
        <pt x="119" y="696" on="1"/>
        <pt x="544" y="696" on="1"/>
        <pt x="544" y="676" on="1"/>
        <pt x="344" y="676" on="1"/>
      </contour>
    </TTGlyph>
    <TTGlyph name="Thorn" xMin="94" yMin="1" xMax="523" yMax="751">
      <contour>
        <pt x="194" y="751" on="1"/>
        <pt x="194" y="537" on="1"/>
        <pt x="279" y="600" on="0"/>
        <pt x="357" y="600" on="1"/>
        <pt x="415" y="600" on="0"/>
        <pt x="463" y="561" on="1"/>
        <pt x="490" y="539" on="0"/>
        <pt x="523" y="446" on="0"/>
        <pt x="523" y="379" on="1"/>
        <pt x="523" y="264" on="0"/>
        <pt x="425" y="140" on="0"/>
        <pt x="335" y="140" on="1"/>
        <pt x="279" y="140" on="0"/>
        <pt x="200" y="185" on="0"/>
        <pt x="194" y="229" on="1"/>
        <pt x="194" y="1" on="1"/>
        <pt x="94" y="1" on="1"/>
        <pt x="94" y="751" on="1"/>
      </contour>
      <contour>
        <pt x="423" y="479" on="0"/>
        <pt x="363" y="571" on="0"/>
        <pt x="274" y="571" on="0"/>
        <pt x="194" y="510" on="1"/>
        <pt x="194" y="259" on="1"/>
        <pt x="197" y="284" on="0"/>
        <pt x="211" y="303" on="1"/>
        <pt x="235" y="336" on="0"/>
        <pt x="257" y="336" on="1"/>
        <pt x="265" y="336" on="0"/>
        <pt x="265" y="326" on="1"/>
        <pt x="265" y="321" on="0"/>
        <pt x="247" y="309" on="1"/>
        <pt x="213" y="285" on="0"/>
        <pt x="213" y="210" on="0"/>
        <pt x="284" y="160" on="0"/>
        <pt x="352" y="160" on="0"/>
        <pt x="392" y="195" on="0"/>
        <pt x="411" y="239" on="0"/>
        <pt x="416" y="277" on="1"/>
        <pt x="423" y="322" on="0"/>
      </contour>
    </TTGlyph>
    <TTGlyph name="U" xMin="-28" yMin="-9" xMax="755" yMax="766">
      <contour>
        <pt x="86" y="696" on="1"/>
        <pt x="261" y="696" on="1"/>
        <pt x="261" y="220" on="1"/>
        <pt x="261" y="119" on="0"/>
        <pt x="321" y="10" on="0"/>
        <pt x="398" y="10" on="1"/>
        <pt x="545" y="10" on="0"/>
        <pt x="545" y="221" on="1"/>
        <pt x="545" y="295" on="0"/>
        <pt x="488" y="516" on="0"/>
        <pt x="488" y="565" on="1"/>
        <pt x="488" y="660" on="0"/>
        <pt x="571" y="766" on="0"/>
        <pt x="692" y="766" on="0"/>
        <pt x="755" y="702" on="0"/>
        <pt x="755" y="590" on="0"/>
        <pt x="700" y="544" on="0"/>
        <pt x="659" y="544" on="0"/>
        <pt x="629" y="562" on="0"/>
        <pt x="629" y="584" on="0"/>
        <pt x="639" y="584" on="0"/>
        <pt x="644" y="578" on="0"/>
        <pt x="646" y="574" on="1"/>
        <pt x="653" y="564" on="0"/>
        <pt x="704" y="564" on="0"/>
        <pt x="735" y="607" on="0"/>
        <pt x="735" y="640" on="1"/>
        <pt x="735" y="746" on="0"/>
        <pt x="635" y="746" on="1"/>
        <pt x="582" y="746" on="0"/>
        <pt x="508" y="654" on="0"/>
        <pt x="508" y="564" on="1"/>
        <pt x="508" y="513" on="0"/>
        <pt x="565" y="293" on="0"/>
        <pt x="565" y="216" on="1"/>
        <pt x="565" y="-9" on="0"/>
        <pt x="380" y="-9" on="1"/>
        <pt x="299" y="-9" on="0"/>
        <pt x="236" y="32" on="1"/>
        <pt x="201" y="54" on="0"/>
        <pt x="160" y="146" on="0"/>
        <pt x="160" y="211" on="1"/>
        <pt x="160" y="676" on="1"/>
        <pt x="85" y="676" on="1"/>
        <pt x="38" y="676" on="0"/>
        <pt x="-8" y="635" on="0"/>
        <pt x="-8" y="579" on="0"/>
        <pt x="19" y="544" on="0"/>
        <pt x="67" y="544" on="0"/>
        <pt x="89" y="566" on="0"/>
        <pt x="101" y="587" on="0"/>
        <pt x="113" y="587" on="0"/>
        <pt x="113" y="557" on="0"/>
        <pt x="68" y="524" on="0"/>
        <pt x="8" y="524" on="0"/>
        <pt x="-28" y="570" on="0"/>
        <pt x="-28" y="639" on="0"/>
        <pt x="31" y="696" on="0"/>
      </contour>
    </TTGlyph>
    <TTGlyph name="Uacute" xMin="-28" yMin="-9" xMax="755" yMax="947">
      <contour>
        <pt x="86" y="696" on="1"/>
        <pt x="261" y="696" on="1"/>
        <pt x="261" y="220" on="1"/>
        <pt x="261" y="119" on="0"/>
        <pt x="321" y="10" on="0"/>
        <pt x="398" y="10" on="1"/>
        <pt x="545" y="10" on="0"/>
        <pt x="545" y="221" on="1"/>
        <pt x="545" y="295" on="0"/>
        <pt x="488" y="516" on="0"/>
        <pt x="488" y="565" on="1"/>
        <pt x="488" y="660" on="0"/>
        <pt x="571" y="766" on="0"/>
        <pt x="692" y="766" on="0"/>
        <pt x="755" y="702" on="0"/>
        <pt x="755" y="590" on="0"/>
        <pt x="700" y="544" on="0"/>
        <pt x="659" y="544" on="0"/>
        <pt x="629" y="562" on="0"/>
        <pt x="629" y="584" on="0"/>
        <pt x="639" y="584" on="0"/>
        <pt x="644" y="578" on="0"/>
        <pt x="646" y="574" on="1"/>
        <pt x="653" y="564" on="0"/>
        <pt x="704" y="564" on="0"/>
        <pt x="735" y="607" on="0"/>
        <pt x="735" y="640" on="1"/>
        <pt x="735" y="746" on="0"/>
        <pt x="635" y="746" on="1"/>
        <pt x="582" y="746" on="0"/>
        <pt x="508" y="654" on="0"/>
        <pt x="508" y="564" on="1"/>
        <pt x="508" y="513" on="0"/>
        <pt x="565" y="293" on="0"/>
        <pt x="565" y="216" on="1"/>
        <pt x="565" y="-9" on="0"/>
        <pt x="380" y="-9" on="1"/>
        <pt x="299" y="-9" on="0"/>
        <pt x="236" y="32" on="1"/>
        <pt x="201" y="54" on="0"/>
        <pt x="160" y="146" on="0"/>
        <pt x="160" y="211" on="1"/>
        <pt x="160" y="676" on="1"/>
        <pt x="85" y="676" on="1"/>
        <pt x="38" y="676" on="0"/>
        <pt x="-8" y="635" on="0"/>
        <pt x="-8" y="579" on="0"/>
        <pt x="19" y="544" on="0"/>
        <pt x="67" y="544" on="0"/>
        <pt x="89" y="566" on="0"/>
        <pt x="101" y="587" on="0"/>
        <pt x="113" y="587" on="0"/>
        <pt x="113" y="557" on="0"/>
        <pt x="68" y="524" on="0"/>
        <pt x="8" y="524" on="0"/>
        <pt x="-28" y="570" on="0"/>
        <pt x="-28" y="639" on="0"/>
        <pt x="31" y="696" on="0"/>
      </contour>
      <contour>
        <pt x="518" y="947" on="1"/>
        <pt x="404" y="827" on="1"/>
        <pt x="355" y="827" on="1"/>
        <pt x="418" y="947" on="1"/>
      </contour>
    </TTGlyph>
    <TTGlyph name="Ucircumflex" xMin="-28" yMin="-9" xMax="755" yMax="927">
      <contour>
        <pt x="86" y="696" on="1"/>
        <pt x="261" y="696" on="1"/>
        <pt x="261" y="220" on="1"/>
        <pt x="261" y="119" on="0"/>
        <pt x="321" y="10" on="0"/>
        <pt x="398" y="10" on="1"/>
        <pt x="545" y="10" on="0"/>
        <pt x="545" y="221" on="1"/>
        <pt x="545" y="295" on="0"/>
        <pt x="488" y="516" on="0"/>
        <pt x="488" y="565" on="1"/>
        <pt x="488" y="660" on="0"/>
        <pt x="571" y="766" on="0"/>
        <pt x="692" y="766" on="0"/>
        <pt x="755" y="702" on="0"/>
        <pt x="755" y="590" on="0"/>
        <pt x="700" y="544" on="0"/>
        <pt x="659" y="544" on="0"/>
        <pt x="629" y="562" on="0"/>
        <pt x="629" y="584" on="0"/>
        <pt x="639" y="584" on="0"/>
        <pt x="644" y="578" on="0"/>
        <pt x="646" y="574" on="1"/>
        <pt x="653" y="564" on="0"/>
        <pt x="704" y="564" on="0"/>
        <pt x="735" y="607" on="0"/>
        <pt x="735" y="640" on="1"/>
        <pt x="735" y="746" on="0"/>
        <pt x="635" y="746" on="1"/>
        <pt x="582" y="746" on="0"/>
        <pt x="508" y="654" on="0"/>
        <pt x="508" y="564" on="1"/>
        <pt x="508" y="513" on="0"/>
        <pt x="565" y="293" on="0"/>
        <pt x="565" y="216" on="1"/>
        <pt x="565" y="-9" on="0"/>
        <pt x="380" y="-9" on="1"/>
        <pt x="299" y="-9" on="0"/>
        <pt x="236" y="32" on="1"/>
        <pt x="201" y="54" on="0"/>
        <pt x="160" y="146" on="0"/>
        <pt x="160" y="211" on="1"/>
        <pt x="160" y="676" on="1"/>
        <pt x="85" y="676" on="1"/>
        <pt x="38" y="676" on="0"/>
        <pt x="-8" y="635" on="0"/>
        <pt x="-8" y="579" on="0"/>
        <pt x="19" y="544" on="0"/>
        <pt x="67" y="544" on="0"/>
        <pt x="89" y="566" on="0"/>
        <pt x="101" y="587" on="0"/>
        <pt x="113" y="587" on="0"/>
        <pt x="113" y="557" on="0"/>
        <pt x="68" y="524" on="0"/>
        <pt x="8" y="524" on="0"/>
        <pt x="-28" y="570" on="0"/>
        <pt x="-28" y="639" on="0"/>
        <pt x="31" y="696" on="0"/>
      </contour>
      <contour>
        <pt x="405" y="927" on="1"/>
        <pt x="572" y="753" on="1"/>
        <pt x="517" y="753" on="1"/>
        <pt x="405" y="867" on="1"/>
        <pt x="301" y="754" on="1"/>
        <pt x="246" y="754" on="1"/>
      </contour>
    </TTGlyph>
    <TTGlyph name="Udieresis" xMin="-28" yMin="-9" xMax="755" yMax="885">
      <contour>
        <pt x="86" y="696" on="1"/>
        <pt x="261" y="696" on="1"/>
        <pt x="261" y="220" on="1"/>
        <pt x="261" y="119" on="0"/>
        <pt x="321" y="10" on="0"/>
        <pt x="398" y="10" on="1"/>
        <pt x="545" y="10" on="0"/>
        <pt x="545" y="221" on="1"/>
        <pt x="545" y="295" on="0"/>
        <pt x="488" y="516" on="0"/>
        <pt x="488" y="565" on="1"/>
        <pt x="488" y="660" on="0"/>
        <pt x="571" y="766" on="0"/>
        <pt x="692" y="766" on="0"/>
        <pt x="755" y="702" on="0"/>
        <pt x="755" y="590" on="0"/>
        <pt x="700" y="544" on="0"/>
        <pt x="659" y="544" on="0"/>
        <pt x="629" y="562" on="0"/>
        <pt x="629" y="584" on="0"/>
        <pt x="639" y="584" on="0"/>
        <pt x="644" y="578" on="0"/>
        <pt x="646" y="574" on="1"/>
        <pt x="653" y="564" on="0"/>
        <pt x="704" y="564" on="0"/>
        <pt x="735" y="607" on="0"/>
        <pt x="735" y="640" on="1"/>
        <pt x="735" y="746" on="0"/>
        <pt x="635" y="746" on="1"/>
        <pt x="582" y="746" on="0"/>
        <pt x="508" y="654" on="0"/>
        <pt x="508" y="564" on="1"/>
        <pt x="508" y="513" on="0"/>
        <pt x="565" y="293" on="0"/>
        <pt x="565" y="216" on="1"/>
        <pt x="565" y="-9" on="0"/>
        <pt x="380" y="-9" on="1"/>
        <pt x="299" y="-9" on="0"/>
        <pt x="236" y="32" on="1"/>
        <pt x="201" y="54" on="0"/>
        <pt x="160" y="146" on="0"/>
        <pt x="160" y="211" on="1"/>
        <pt x="160" y="676" on="1"/>
        <pt x="85" y="676" on="1"/>
        <pt x="38" y="676" on="0"/>
        <pt x="-8" y="635" on="0"/>
        <pt x="-8" y="579" on="0"/>
        <pt x="19" y="544" on="0"/>
        <pt x="67" y="544" on="0"/>
        <pt x="89" y="566" on="0"/>
        <pt x="101" y="587" on="0"/>
        <pt x="113" y="587" on="0"/>
        <pt x="113" y="557" on="0"/>
        <pt x="68" y="524" on="0"/>
        <pt x="8" y="524" on="0"/>
        <pt x="-28" y="570" on="0"/>
        <pt x="-28" y="639" on="0"/>
        <pt x="31" y="696" on="0"/>
      </contour>
      <contour>
        <pt x="243" y="810" on="0"/>
        <pt x="243" y="854" on="0"/>
        <pt x="274" y="885" on="0"/>
        <pt x="318" y="885" on="0"/>
        <pt x="350" y="854" on="0"/>
        <pt x="350" y="810" on="0"/>
        <pt x="318" y="779" on="0"/>
        <pt x="274" y="779" on="0"/>
      </contour>
      <contour>
        <pt x="462" y="810" on="0"/>
        <pt x="462" y="854" on="0"/>
        <pt x="493" y="885" on="0"/>
        <pt x="537" y="885" on="0"/>
        <pt x="569" y="854" on="0"/>
        <pt x="569" y="810" on="0"/>
        <pt x="537" y="779" on="0"/>
        <pt x="493" y="779" on="0"/>
      </contour>
    </TTGlyph>
    <TTGlyph name="Ugrave" xMin="-28" yMin="-9" xMax="755" yMax="947">
      <contour>
        <pt x="86" y="696" on="1"/>
        <pt x="261" y="696" on="1"/>
        <pt x="261" y="220" on="1"/>
        <pt x="261" y="119" on="0"/>
        <pt x="321" y="10" on="0"/>
        <pt x="398" y="10" on="1"/>
        <pt x="545" y="10" on="0"/>
        <pt x="545" y="221" on="1"/>
        <pt x="545" y="295" on="0"/>
        <pt x="488" y="516" on="0"/>
        <pt x="488" y="565" on="1"/>
        <pt x="488" y="660" on="0"/>
        <pt x="571" y="766" on="0"/>
        <pt x="692" y="766" on="0"/>
        <pt x="755" y="702" on="0"/>
        <pt x="755" y="590" on="0"/>
        <pt x="700" y="544" on="0"/>
        <pt x="659" y="544" on="0"/>
        <pt x="629" y="562" on="0"/>
        <pt x="629" y="584" on="0"/>
        <pt x="639" y="584" on="0"/>
        <pt x="644" y="578" on="0"/>
        <pt x="646" y="574" on="1"/>
        <pt x="653" y="564" on="0"/>
        <pt x="704" y="564" on="0"/>
        <pt x="735" y="607" on="0"/>
        <pt x="735" y="640" on="1"/>
        <pt x="735" y="746" on="0"/>
        <pt x="635" y="746" on="1"/>
        <pt x="582" y="746" on="0"/>
        <pt x="508" y="654" on="0"/>
        <pt x="508" y="564" on="1"/>
        <pt x="508" y="513" on="0"/>
        <pt x="565" y="293" on="0"/>
        <pt x="565" y="216" on="1"/>
        <pt x="565" y="-9" on="0"/>
        <pt x="380" y="-9" on="1"/>
        <pt x="299" y="-9" on="0"/>
        <pt x="236" y="32" on="1"/>
        <pt x="201" y="54" on="0"/>
        <pt x="160" y="146" on="0"/>
        <pt x="160" y="211" on="1"/>
        <pt x="160" y="676" on="1"/>
        <pt x="85" y="676" on="1"/>
        <pt x="38" y="676" on="0"/>
        <pt x="-8" y="635" on="0"/>
        <pt x="-8" y="579" on="0"/>
        <pt x="19" y="544" on="0"/>
        <pt x="67" y="544" on="0"/>
        <pt x="89" y="566" on="0"/>
        <pt x="101" y="587" on="0"/>
        <pt x="113" y="587" on="0"/>
        <pt x="113" y="557" on="0"/>
        <pt x="68" y="524" on="0"/>
        <pt x="8" y="524" on="0"/>
        <pt x="-28" y="570" on="0"/>
        <pt x="-28" y="639" on="0"/>
        <pt x="31" y="696" on="0"/>
      </contour>
      <contour>
        <pt x="368" y="827" on="1"/>
        <pt x="254" y="947" on="1"/>
        <pt x="354" y="947" on="1"/>
        <pt x="417" y="827" on="1"/>
      </contour>
    </TTGlyph>
    <TTGlyph name="V" xMin="-2" yMin="-10" xMax="638" yMax="706">
      <contour>
        <pt x="520" y="113" on="0"/>
        <pt x="406" y="-10" on="0"/>
        <pt x="286" y="-10" on="0"/>
        <pt x="205" y="100" on="0"/>
        <pt x="205" y="172" on="1"/>
        <pt x="205" y="196" on="0"/>
        <pt x="228" y="389" on="0"/>
        <pt x="228" y="443" on="1"/>
        <pt x="228" y="547" on="0"/>
        <pt x="167" y="660" on="0"/>
        <pt x="89" y="660" on="0"/>
        <pt x="18" y="570" on="0"/>
        <pt x="18" y="531" on="1"/>
        <pt x="18" y="507" on="0"/>
        <pt x="44" y="463" on="0"/>
        <pt x="76" y="463" on="1"/>
        <pt x="91" y="463" on="0"/>
        <pt x="117" y="477" on="0"/>
        <pt x="118" y="477" on="1"/>
        <pt x="125" y="477" on="0"/>
        <pt x="125" y="455" on="0"/>
        <pt x="88" y="443" on="0"/>
        <pt x="71" y="443" on="1"/>
        <pt x="38" y="443" on="0"/>
        <pt x="-2" y="498" on="0"/>
        <pt x="-2" y="532" on="1"/>
        <pt x="-2" y="594" on="0"/>
        <pt x="124" y="706" on="0"/>
        <pt x="245" y="706" on="0"/>
        <pt x="327" y="568" on="0"/>
        <pt x="327" y="452" on="1"/>
        <pt x="327" y="408" on="0"/>
        <pt x="299" y="172" on="0"/>
        <pt x="299" y="65" on="0"/>
        <pt x="321" y="10" on="0"/>
        <pt x="352" y="10" on="1"/>
        <pt x="404" y="10" on="0"/>
        <pt x="506" y="132" on="0"/>
        <pt x="575" y="304" on="0"/>
        <pt x="618" y="483" on="0"/>
        <pt x="618" y="609" on="0"/>
        <pt x="567" y="686" on="0"/>
        <pt x="466" y="686" on="0"/>
        <pt x="396" y="613" on="0"/>
        <pt x="396" y="568" on="1"/>
        <pt x="396" y="545" on="0"/>
        <pt x="424" y="507" on="0"/>
        <pt x="447" y="507" on="1"/>
        <pt x="456" y="507" on="0"/>
        <pt x="483" y="515" on="0"/>
        <pt x="485" y="515" on="1"/>
        <pt x="493" y="515" on="0"/>
        <pt x="493" y="506" on="1"/>
        <pt x="493" y="489" on="0"/>
        <pt x="462" y="488" on="1"/>
        <pt x="451" y="487" on="1"/>
        <pt x="415" y="487" on="0"/>
        <pt x="376" y="536" on="0"/>
        <pt x="376" y="573" on="1"/>
        <pt x="376" y="632" on="0"/>
        <pt x="468" y="706" on="0"/>
        <pt x="575" y="706" on="0"/>
        <pt x="638" y="619" on="0"/>
        <pt x="638" y="474" on="0"/>
        <pt x="594" y="289" on="0"/>
      </contour>
    </TTGlyph>
    <TTGlyph name="W" xMin="1" yMin="-10" xMax="865" yMax="706">
      <contour>
        <pt x="508" y="300" on="1"/>
        <pt x="601" y="298" on="1"/>
        <pt x="598" y="294" on="1"/>
        <pt x="598" y="278" on="0"/>
        <pt x="588" y="188" on="0"/>
        <pt x="588" y="92" on="0"/>
        <pt x="622" y="10" on="0"/>
        <pt x="702" y="10" on="0"/>
        <pt x="776" y="106" on="0"/>
        <pt x="798" y="177" on="1"/>
        <pt x="845" y="329" on="0"/>
        <pt x="845" y="548" on="0"/>
        <pt x="769" y="686" on="0"/>
        <pt x="649" y="686" on="0"/>
        <pt x="584" y="621" on="0"/>
        <pt x="584" y="568" on="1"/>
        <pt x="584" y="545" on="0"/>
        <pt x="612" y="507" on="0"/>
        <pt x="635" y="507" on="1"/>
        <pt x="644" y="507" on="0"/>
        <pt x="671" y="515" on="0"/>
        <pt x="673" y="515" on="1"/>
        <pt x="681" y="515" on="0"/>
        <pt x="681" y="506" on="1"/>
        <pt x="681" y="489" on="0"/>
        <pt x="650" y="488" on="1"/>
        <pt x="639" y="487" on="1"/>
        <pt x="603" y="487" on="0"/>
        <pt x="564" y="537" on="0"/>
        <pt x="564" y="574" on="1"/>
        <pt x="564" y="636" on="0"/>
        <pt x="650" y="706" on="0"/>
        <pt x="778" y="706" on="0"/>
        <pt x="865" y="564" on="0"/>
        <pt x="865" y="451" on="1"/>
        <pt x="865" y="318" on="0"/>
        <pt x="813" y="164" on="1"/>
        <pt x="788" y="90" on="0"/>
        <pt x="702" y="-10" on="0"/>
        <pt x="594" y="-10" on="0"/>
        <pt x="510" y="90" on="0"/>
        <pt x="503" y="157" on="1"/>
        <pt x="472" y="82" on="0"/>
        <pt x="381" y="-10" on="0"/>
        <pt x="267" y="-10" on="0"/>
        <pt x="188" y="103" on="0"/>
        <pt x="188" y="168" on="1"/>
        <pt x="188" y="197" on="0"/>
        <pt x="231" y="386" on="0"/>
        <pt x="231" y="546" on="0"/>
        <pt x="170" y="650" on="0"/>
        <pt x="93" y="650" on="0"/>
        <pt x="21" y="558" on="0"/>
        <pt x="21" y="520" on="1"/>
        <pt x="21" y="497" on="0"/>
        <pt x="47" y="453" on="0"/>
        <pt x="79" y="453" on="1"/>
        <pt x="94" y="453" on="0"/>
        <pt x="120" y="467" on="0"/>
        <pt x="121" y="467" on="1"/>
        <pt x="128" y="467" on="0"/>
        <pt x="128" y="444" on="0"/>
        <pt x="89" y="433" on="0"/>
        <pt x="72" y="433" on="1"/>
        <pt x="41" y="433" on="0"/>
        <pt x="1" y="488" on="0"/>
        <pt x="1" y="522" on="1"/>
        <pt x="1" y="584" on="0"/>
        <pt x="127" y="696" on="0"/>
        <pt x="250" y="696" on="0"/>
        <pt x="330" y="564" on="0"/>
        <pt x="330" y="390" on="0"/>
        <pt x="271" y="138" on="0"/>
        <pt x="271" y="69" on="0"/>
        <pt x="303" y="10" on="0"/>
        <pt x="335" y="10" on="1"/>
        <pt x="382" y="10" on="0"/>
        <pt x="464" y="113" on="0"/>
        <pt x="506" y="245" on="0"/>
      </contour>
    </TTGlyph>
    <TTGlyph name="X" xMin="26" yMin="-3" xMax="750" yMax="696">
      <contour>
        <pt x="410" y="396" on="1"/>
        <pt x="537" y="581" on="1"/>
        <pt x="577" y="632" on="0"/>
        <pt x="678" y="696" on="0"/>
        <pt x="731" y="696" on="1"/>
        <pt x="742" y="696" on="0"/>
        <pt x="750" y="691" on="0"/>
        <pt x="750" y="684" on="1"/>
        <pt x="750" y="669" on="0"/>
        <pt x="738" y="669" on="1"/>
        <pt x="666" y="669" on="0"/>
        <pt x="612" y="622" on="1"/>
        <pt x="585" y="598" on="0"/>
        <pt x="556" y="560" on="1"/>
        <pt x="427" y="371" on="1"/>
        <pt x="559" y="168" on="1"/>
        <pt x="588" y="117" on="0"/>
        <pt x="639" y="51" on="0"/>
        <pt x="662" y="37" on="0"/>
        <pt x="673" y="37" on="1"/>
        <pt x="696" y="37" on="0"/>
        <pt x="726" y="81" on="0"/>
        <pt x="726" y="139" on="0"/>
        <pt x="700" y="183" on="0"/>
        <pt x="668" y="183" on="1"/>
        <pt x="653" y="183" on="0"/>
        <pt x="627" y="169" on="0"/>
        <pt x="626" y="169" on="1"/>
        <pt x="619" y="169" on="0"/>
        <pt x="619" y="192" on="0"/>
        <pt x="658" y="203" on="0"/>
        <pt x="674" y="203" on="1"/>
        <pt x="706" y="203" on="0"/>
        <pt x="746" y="149" on="0"/>
        <pt x="746" y="114" on="1"/>
        <pt x="746" y="52" on="0"/>
        <pt x="662" y="0" on="0"/>
        <pt x="604" y="0" on="1"/>
        <pt x="571" y="0" on="0"/>
        <pt x="520" y="51" on="0"/>
        <pt x="492" y="94" on="1"/>
        <pt x="369" y="287" on="1"/>
        <pt x="251" y="115" on="1"/>
        <pt x="160" y="-3" on="0"/>
        <pt x="59" y="-3" on="1"/>
        <pt x="46" y="-3" on="0"/>
        <pt x="38" y="2" on="0"/>
        <pt x="38" y="10" on="1"/>
        <pt x="38" y="24" on="0"/>
        <pt x="70" y="25" on="0"/>
        <pt x="97" y="29" on="0"/>
        <pt x="122" y="38" on="1"/>
        <pt x="170" y="57" on="0"/>
        <pt x="231" y="135" on="1"/>
        <pt x="353" y="312" on="1"/>
        <pt x="213" y="528" on="1"/>
        <pt x="184" y="579" on="0"/>
        <pt x="133" y="645" on="0"/>
        <pt x="110" y="659" on="0"/>
        <pt x="99" y="659" on="1"/>
        <pt x="76" y="659" on="0"/>
        <pt x="46" y="615" on="0"/>
        <pt x="46" y="557" on="0"/>
        <pt x="72" y="513" on="0"/>
        <pt x="104" y="513" on="1"/>
        <pt x="119" y="513" on="0"/>
        <pt x="145" y="527" on="0"/>
        <pt x="146" y="527" on="1"/>
        <pt x="153" y="527" on="0"/>
        <pt x="153" y="504" on="0"/>
        <pt x="114" y="493" on="0"/>
        <pt x="98" y="493" on="1"/>
        <pt x="66" y="493" on="0"/>
        <pt x="26" y="547" on="0"/>
        <pt x="26" y="582" on="1"/>
        <pt x="26" y="644" on="0"/>
        <pt x="110" y="696" on="0"/>
        <pt x="168" y="696" on="1"/>
        <pt x="201" y="696" on="0"/>
        <pt x="252" y="645" on="0"/>
        <pt x="280" y="602" on="1"/>
      </contour>
    </TTGlyph>
    <TTGlyph name="Y" xMin="-6" yMin="-10" xMax="581" yMax="706">
      <contour>
        <pt x="346" y="230" on="1"/>
        <pt x="248" y="230" on="0"/>
        <pt x="206" y="301" on="1"/>
        <pt x="183" y="339" on="0"/>
        <pt x="179" y="372" on="1"/>
        <pt x="174" y="412" on="0"/>
        <pt x="174" y="481" on="0"/>
        <pt x="173" y="526" on="0"/>
        <pt x="168" y="593" on="0"/>
        <pt x="157" y="628" on="0"/>
        <pt x="148" y="646" on="1"/>
        <pt x="130" y="680" on="0"/>
        <pt x="50" y="680" on="0"/>
        <pt x="14" y="629" on="0"/>
        <pt x="14" y="575" on="0"/>
        <pt x="40" y="531" on="0"/>
        <pt x="72" y="531" on="1"/>
        <pt x="87" y="531" on="0"/>
        <pt x="113" y="545" on="0"/>
        <pt x="114" y="545" on="1"/>
        <pt x="121" y="545" on="0"/>
        <pt x="121" y="523" on="0"/>
        <pt x="84" y="511" on="0"/>
        <pt x="67" y="511" on="1"/>
        <pt x="35" y="511" on="0"/>
        <pt x="-6" y="562" on="0"/>
        <pt x="-6" y="594" on="1"/>
        <pt x="-6" y="647" on="0"/>
        <pt x="59" y="706" on="0"/>
        <pt x="152" y="706" on="0"/>
        <pt x="239" y="639" on="0"/>
        <pt x="252" y="588" on="1"/>
        <pt x="269" y="525" on="0"/>
        <pt x="269" y="378" on="1"/>
        <pt x="271" y="308" on="0"/>
        <pt x="306" y="250" on="0"/>
        <pt x="353" y="250" on="1"/>
        <pt x="442" y="250" on="0"/>
        <pt x="554" y="419" on="0"/>
        <pt x="554" y="533" on="1"/>
        <pt x="554" y="595" on="0"/>
        <pt x="499" y="676" on="0"/>
        <pt x="400" y="676" on="0"/>
        <pt x="339" y="615" on="0"/>
        <pt x="339" y="568" on="1"/>
        <pt x="339" y="545" on="0"/>
        <pt x="367" y="507" on="0"/>
        <pt x="390" y="507" on="1"/>
        <pt x="399" y="507" on="0"/>
        <pt x="426" y="515" on="0"/>
        <pt x="428" y="515" on="1"/>
        <pt x="436" y="515" on="0"/>
        <pt x="436" y="506" on="1"/>
        <pt x="436" y="489" on="0"/>
        <pt x="404" y="488" on="1"/>
        <pt x="394" y="487" on="1"/>
        <pt x="358" y="487" on="0"/>
        <pt x="319" y="537" on="0"/>
        <pt x="319" y="574" on="1"/>
        <pt x="319" y="629" on="0"/>
        <pt x="390" y="697" on="0"/>
        <pt x="443" y="697" on="1"/>
        <pt x="520" y="697" on="0"/>
        <pt x="581" y="577" on="0"/>
        <pt x="581" y="472" on="1"/>
        <pt x="581" y="173" on="1"/>
        <pt x="581" y="91" on="0"/>
        <pt x="457" y="-10" on="0"/>
        <pt x="292" y="-10" on="0"/>
        <pt x="176" y="80" on="0"/>
        <pt x="176" y="150" on="1"/>
        <pt x="176" y="174" on="0"/>
        <pt x="190" y="206" on="0"/>
        <pt x="200" y="206" on="1"/>
        <pt x="208" y="206" on="0"/>
        <pt x="208" y="190" on="0"/>
        <pt x="196" y="159" on="0"/>
        <pt x="196" y="145" on="1"/>
        <pt x="196" y="91" on="0"/>
        <pt x="289" y="11" on="0"/>
        <pt x="403" y="11" on="0"/>
        <pt x="478" y="110" on="0"/>
        <pt x="478" y="171" on="1"/>
        <pt x="478" y="280" on="1"/>
        <pt x="413" y="230" on="0"/>
      </contour>
    </TTGlyph>
    <TTGlyph name="Yacute" xMin="-6" yMin="-10" xMax="581" yMax="947">
      <contour>
        <pt x="346" y="230" on="1"/>
        <pt x="248" y="230" on="0"/>
        <pt x="206" y="301" on="1"/>
        <pt x="183" y="339" on="0"/>
        <pt x="179" y="372" on="1"/>
        <pt x="174" y="412" on="0"/>
        <pt x="174" y="481" on="0"/>
        <pt x="173" y="526" on="0"/>
        <pt x="168" y="593" on="0"/>
        <pt x="157" y="628" on="0"/>
        <pt x="148" y="646" on="1"/>
        <pt x="130" y="680" on="0"/>
        <pt x="50" y="680" on="0"/>
        <pt x="14" y="629" on="0"/>
        <pt x="14" y="575" on="0"/>
        <pt x="40" y="531" on="0"/>
        <pt x="72" y="531" on="1"/>
        <pt x="87" y="531" on="0"/>
        <pt x="113" y="545" on="0"/>
        <pt x="114" y="545" on="1"/>
        <pt x="121" y="545" on="0"/>
        <pt x="121" y="523" on="0"/>
        <pt x="84" y="511" on="0"/>
        <pt x="67" y="511" on="1"/>
        <pt x="35" y="511" on="0"/>
        <pt x="-6" y="562" on="0"/>
        <pt x="-6" y="594" on="1"/>
        <pt x="-6" y="647" on="0"/>
        <pt x="59" y="706" on="0"/>
        <pt x="152" y="706" on="0"/>
        <pt x="239" y="639" on="0"/>
        <pt x="252" y="588" on="1"/>
        <pt x="269" y="525" on="0"/>
        <pt x="269" y="378" on="1"/>
        <pt x="271" y="308" on="0"/>
        <pt x="306" y="250" on="0"/>
        <pt x="353" y="250" on="1"/>
        <pt x="442" y="250" on="0"/>
        <pt x="554" y="419" on="0"/>
        <pt x="554" y="533" on="1"/>
        <pt x="554" y="595" on="0"/>
        <pt x="499" y="676" on="0"/>
        <pt x="400" y="676" on="0"/>
        <pt x="339" y="615" on="0"/>
        <pt x="339" y="568" on="1"/>
        <pt x="339" y="545" on="0"/>
        <pt x="367" y="507" on="0"/>
        <pt x="390" y="507" on="1"/>
        <pt x="399" y="507" on="0"/>
        <pt x="426" y="515" on="0"/>
        <pt x="428" y="515" on="1"/>
        <pt x="436" y="515" on="0"/>
        <pt x="436" y="506" on="1"/>
        <pt x="436" y="489" on="0"/>
        <pt x="404" y="488" on="1"/>
        <pt x="394" y="487" on="1"/>
        <pt x="358" y="487" on="0"/>
        <pt x="319" y="537" on="0"/>
        <pt x="319" y="574" on="1"/>
        <pt x="319" y="629" on="0"/>
        <pt x="390" y="697" on="0"/>
        <pt x="443" y="697" on="1"/>
        <pt x="520" y="697" on="0"/>
        <pt x="581" y="577" on="0"/>
        <pt x="581" y="472" on="1"/>
        <pt x="581" y="173" on="1"/>
        <pt x="581" y="91" on="0"/>
        <pt x="457" y="-10" on="0"/>
        <pt x="292" y="-10" on="0"/>
        <pt x="176" y="80" on="0"/>
        <pt x="176" y="150" on="1"/>
        <pt x="176" y="174" on="0"/>
        <pt x="190" y="206" on="0"/>
        <pt x="200" y="206" on="1"/>
        <pt x="208" y="206" on="0"/>
        <pt x="208" y="190" on="0"/>
        <pt x="196" y="159" on="0"/>
        <pt x="196" y="145" on="1"/>
        <pt x="196" y="91" on="0"/>
        <pt x="289" y="11" on="0"/>
        <pt x="403" y="11" on="0"/>
        <pt x="478" y="110" on="0"/>
        <pt x="478" y="171" on="1"/>
        <pt x="478" y="280" on="1"/>
        <pt x="413" y="230" on="0"/>
      </contour>
      <contour>
        <pt x="489" y="947" on="1"/>
        <pt x="375" y="827" on="1"/>
        <pt x="326" y="827" on="1"/>
        <pt x="389" y="947" on="1"/>
      </contour>
    </TTGlyph>
    <TTGlyph name="Ydieresis" xMin="-6" yMin="-10" xMax="581" yMax="885">
      <contour>
        <pt x="346" y="230" on="1"/>
        <pt x="248" y="230" on="0"/>
        <pt x="206" y="301" on="1"/>
        <pt x="183" y="339" on="0"/>
        <pt x="179" y="372" on="1"/>
        <pt x="174" y="412" on="0"/>
        <pt x="174" y="481" on="0"/>
        <pt x="173" y="526" on="0"/>
        <pt x="168" y="593" on="0"/>
        <pt x="157" y="628" on="0"/>
        <pt x="148" y="646" on="1"/>
        <pt x="130" y="680" on="0"/>
        <pt x="50" y="680" on="0"/>
        <pt x="14" y="629" on="0"/>
        <pt x="14" y="575" on="0"/>
        <pt x="40" y="531" on="0"/>
        <pt x="72" y="531" on="1"/>
        <pt x="87" y="531" on="0"/>
        <pt x="113" y="545" on="0"/>
        <pt x="114" y="545" on="1"/>
        <pt x="121" y="545" on="0"/>
        <pt x="121" y="523" on="0"/>
        <pt x="84" y="511" on="0"/>
        <pt x="67" y="511" on="1"/>
        <pt x="35" y="511" on="0"/>
        <pt x="-6" y="562" on="0"/>
        <pt x="-6" y="594" on="1"/>
        <pt x="-6" y="647" on="0"/>
        <pt x="59" y="706" on="0"/>
        <pt x="152" y="706" on="0"/>
        <pt x="239" y="639" on="0"/>
        <pt x="252" y="588" on="1"/>
        <pt x="269" y="525" on="0"/>
        <pt x="269" y="378" on="1"/>
        <pt x="271" y="308" on="0"/>
        <pt x="306" y="250" on="0"/>
        <pt x="353" y="250" on="1"/>
        <pt x="442" y="250" on="0"/>
        <pt x="554" y="419" on="0"/>
        <pt x="554" y="533" on="1"/>
        <pt x="554" y="595" on="0"/>
        <pt x="499" y="676" on="0"/>
        <pt x="400" y="676" on="0"/>
        <pt x="339" y="615" on="0"/>
        <pt x="339" y="568" on="1"/>
        <pt x="339" y="545" on="0"/>
        <pt x="367" y="507" on="0"/>
        <pt x="390" y="507" on="1"/>
        <pt x="399" y="507" on="0"/>
        <pt x="426" y="515" on="0"/>
        <pt x="428" y="515" on="1"/>
        <pt x="436" y="515" on="0"/>
        <pt x="436" y="506" on="1"/>
        <pt x="436" y="489" on="0"/>
        <pt x="404" y="488" on="1"/>
        <pt x="394" y="487" on="1"/>
        <pt x="358" y="487" on="0"/>
        <pt x="319" y="537" on="0"/>
        <pt x="319" y="574" on="1"/>
        <pt x="319" y="629" on="0"/>
        <pt x="390" y="697" on="0"/>
        <pt x="443" y="697" on="1"/>
        <pt x="520" y="697" on="0"/>
        <pt x="581" y="577" on="0"/>
        <pt x="581" y="472" on="1"/>
        <pt x="581" y="173" on="1"/>
        <pt x="581" y="91" on="0"/>
        <pt x="457" y="-10" on="0"/>
        <pt x="292" y="-10" on="0"/>
        <pt x="176" y="80" on="0"/>
        <pt x="176" y="150" on="1"/>
        <pt x="176" y="174" on="0"/>
        <pt x="190" y="206" on="0"/>
        <pt x="200" y="206" on="1"/>
        <pt x="208" y="206" on="0"/>
        <pt x="208" y="190" on="0"/>
        <pt x="196" y="159" on="0"/>
        <pt x="196" y="145" on="1"/>
        <pt x="196" y="91" on="0"/>
        <pt x="289" y="11" on="0"/>
        <pt x="403" y="11" on="0"/>
        <pt x="478" y="110" on="0"/>
        <pt x="478" y="171" on="1"/>
        <pt x="478" y="280" on="1"/>
        <pt x="413" y="230" on="0"/>
      </contour>
      <contour>
        <pt x="149" y="810" on="0"/>
        <pt x="149" y="854" on="0"/>
        <pt x="180" y="885" on="0"/>
        <pt x="224" y="885" on="0"/>
        <pt x="256" y="854" on="0"/>
        <pt x="256" y="810" on="0"/>
        <pt x="224" y="779" on="0"/>
        <pt x="180" y="779" on="0"/>
      </contour>
      <contour>
        <pt x="368" y="810" on="0"/>
        <pt x="368" y="854" on="0"/>
        <pt x="399" y="885" on="0"/>
        <pt x="443" y="885" on="0"/>
        <pt x="475" y="854" on="0"/>
        <pt x="475" y="810" on="0"/>
        <pt x="443" y="779" on="0"/>
        <pt x="399" y="779" on="0"/>
      </contour>
    </TTGlyph>
    <TTGlyph name="Z" xMin="22" yMin="0" xMax="608" yMax="696">
      <contour>
        <pt x="165" y="21" on="1"/>
        <pt x="414" y="20" on="1"/>
        <pt x="498" y="20" on="0"/>
        <pt x="587" y="108" on="0"/>
        <pt x="587" y="225" on="0"/>
        <pt x="526" y="303" on="0"/>
        <pt x="474" y="303" on="1"/>
        <pt x="440" y="303" on="0"/>
        <pt x="396" y="272" on="0"/>
        <pt x="396" y="243" on="1"/>
        <pt x="396" y="216" on="0"/>
        <pt x="411" y="210" on="1"/>
        <pt x="416" y="208" on="0"/>
        <pt x="416" y="206" on="1"/>
        <pt x="416" y="197" on="0"/>
        <pt x="409" y="197" on="1"/>
        <pt x="394" y="197" on="0"/>
        <pt x="376" y="226" on="0"/>
        <pt x="376" y="268" on="0"/>
        <pt x="421" y="321" on="0"/>
        <pt x="533" y="321" on="0"/>
        <pt x="608" y="234" on="0"/>
        <pt x="608" y="99" on="0"/>
        <pt x="504" y="0" on="0"/>
        <pt x="388" y="0" on="1"/>
        <pt x="29" y="0" on="1"/>
        <pt x="22" y="0" on="0"/>
        <pt x="22" y="14" on="0"/>
        <pt x="31" y="23" on="1"/>
        <pt x="433" y="674" on="1"/>
        <pt x="162" y="674" on="1"/>
        <pt x="115" y="674" on="0"/>
        <pt x="69" y="633" on="0"/>
        <pt x="69" y="579" on="0"/>
        <pt x="94" y="543" on="0"/>
        <pt x="142" y="543" on="0"/>
        <pt x="169" y="564" on="0"/>
        <pt x="177" y="586" on="0"/>
        <pt x="181" y="586" on="1"/>
        <pt x="190" y="586" on="0"/>
        <pt x="190" y="580" on="1"/>
        <pt x="190" y="556" on="0"/>
        <pt x="145" y="523" on="0"/>
        <pt x="84" y="523" on="0"/>
        <pt x="49" y="569" on="0"/>
        <pt x="49" y="638" on="0"/>
        <pt x="108" y="696" on="0"/>
        <pt x="163" y="696" on="1"/>
        <pt x="569" y="696" on="1"/>
        <pt x="577" y="696" on="0"/>
        <pt x="577" y="688" on="0"/>
        <pt x="567" y="673" on="1"/>
      </contour>
    </TTGlyph>
    <TTGlyph name="Zcaron" xMin="22" yMin="0" xMax="608" yMax="800">
      <contour>
        <pt x="371" y="800" on="1"/>
        <pt x="423" y="800" on="1"/>
        <pt x="337" y="710" on="1"/>
        <pt x="254" y="800" on="1"/>
        <pt x="305" y="800" on="1"/>
        <pt x="337" y="750" on="1"/>
      </contour>
      <contour>
        <pt x="165" y="21" on="1"/>
        <pt x="414" y="20" on="1"/>
        <pt x="498" y="20" on="0"/>
        <pt x="587" y="108" on="0"/>
        <pt x="587" y="225" on="0"/>
        <pt x="526" y="303" on="0"/>
        <pt x="474" y="303" on="1"/>
        <pt x="440" y="303" on="0"/>
        <pt x="396" y="272" on="0"/>
        <pt x="396" y="243" on="1"/>
        <pt x="396" y="216" on="0"/>
        <pt x="411" y="210" on="1"/>
        <pt x="416" y="208" on="0"/>
        <pt x="416" y="206" on="1"/>
        <pt x="416" y="197" on="0"/>
        <pt x="409" y="197" on="1"/>
        <pt x="394" y="197" on="0"/>
        <pt x="376" y="226" on="0"/>
        <pt x="376" y="268" on="0"/>
        <pt x="421" y="321" on="0"/>
        <pt x="533" y="321" on="0"/>
        <pt x="608" y="234" on="0"/>
        <pt x="608" y="99" on="0"/>
        <pt x="504" y="0" on="0"/>
        <pt x="388" y="0" on="1"/>
        <pt x="29" y="0" on="1"/>
        <pt x="22" y="0" on="0"/>
        <pt x="22" y="14" on="0"/>
        <pt x="31" y="23" on="1"/>
        <pt x="433" y="674" on="1"/>
        <pt x="162" y="674" on="1"/>
        <pt x="115" y="674" on="0"/>
        <pt x="69" y="633" on="0"/>
        <pt x="69" y="579" on="0"/>
        <pt x="94" y="543" on="0"/>
        <pt x="142" y="543" on="0"/>
        <pt x="169" y="564" on="0"/>
        <pt x="177" y="586" on="0"/>
        <pt x="181" y="586" on="1"/>
        <pt x="190" y="586" on="0"/>
        <pt x="190" y="580" on="1"/>
        <pt x="190" y="556" on="0"/>
        <pt x="145" y="523" on="0"/>
        <pt x="84" y="523" on="0"/>
        <pt x="49" y="569" on="0"/>
        <pt x="49" y="638" on="0"/>
        <pt x="108" y="696" on="0"/>
        <pt x="163" y="696" on="1"/>
        <pt x="569" y="696" on="1"/>
        <pt x="577" y="696" on="0"/>
        <pt x="577" y="688" on="0"/>
        <pt x="567" y="673" on="1"/>
      </contour>
    </TTGlyph>
    <TTGlyph name="a" xMin="23" yMin="-10" xMax="438" yMax="474">
      <contour>
        <pt x="206" y="-10" on="1"/>
        <pt x="134" y="-10" on="0"/>
        <pt x="23" y="71" on="0"/>
        <pt x="23" y="143" on="1"/>
        <pt x="23" y="185" on="0"/>
        <pt x="64" y="247" on="0"/>
        <pt x="96" y="262" on="1"/>
        <pt x="155" y="292" on="0"/>
        <pt x="267" y="292" on="0"/>
        <pt x="338" y="262" on="1"/>
        <pt x="337" y="378" on="0"/>
        <pt x="282" y="455" on="0"/>
        <pt x="168" y="455" on="0"/>
        <pt x="85" y="413" on="0"/>
        <pt x="85" y="378" on="1"/>
        <pt x="85" y="366" on="0"/>
        <pt x="64" y="366" on="0"/>
        <pt x="64" y="377" on="1"/>
        <pt x="64" y="419" on="0"/>
        <pt x="157" y="474" on="0"/>
        <pt x="248" y="474" on="1"/>
        <pt x="438" y="474" on="0"/>
        <pt x="438" y="250" on="1"/>
        <pt x="438" y="0" on="1"/>
        <pt x="338" y="0" on="1"/>
        <pt x="338" y="79" on="1"/>
        <pt x="331" y="40" on="0"/>
        <pt x="255" y="-10" on="0"/>
      </contour>
      <contour>
        <pt x="294" y="177" on="1"/>
        <pt x="330" y="152" on="0"/>
        <pt x="338" y="108" on="1"/>
        <pt x="338" y="244" on="1"/>
        <pt x="266" y="273" on="0"/>
        <pt x="175" y="273" on="0"/>
        <pt x="123" y="197" on="0"/>
        <pt x="123" y="87" on="0"/>
        <pt x="166" y="10" on="0"/>
        <pt x="253" y="10" on="0"/>
        <pt x="319" y="55" on="0"/>
        <pt x="319" y="86" on="1"/>
        <pt x="319" y="140" on="0"/>
        <pt x="283" y="160" on="1"/>
        <pt x="268" y="169" on="0"/>
        <pt x="268" y="185" on="0"/>
        <pt x="282" y="185" on="0"/>
      </contour>
    </TTGlyph>
    <TTGlyph name="a.ss01" xMin="24" yMin="-10" xMax="439" yMax="476">
      <contour>
        <pt x="333" y="36" on="0"/>
        <pt x="259" y="-10" on="0"/>
        <pt x="135" y="-10" on="0"/>
        <pt x="24" y="71" on="0"/>
        <pt x="24" y="143" on="1"/>
        <pt x="24" y="185" on="0"/>
        <pt x="65" y="247" on="0"/>
        <pt x="96" y="262" on="1"/>
        <pt x="158" y="293" on="0"/>
        <pt x="270" y="293" on="0"/>
        <pt x="339" y="269" on="1"/>
        <pt x="336" y="365" on="0"/>
        <pt x="277" y="455" on="0"/>
        <pt x="218" y="455" on="1"/>
        <pt x="174" y="455" on="0"/>
        <pt x="102" y="412" on="0"/>
        <pt x="85" y="377" on="1"/>
        <pt x="56" y="377" on="1"/>
        <pt x="107" y="476" on="0"/>
        <pt x="239" y="476" on="1"/>
        <pt x="339" y="476" on="0"/>
        <pt x="439" y="368" on="0"/>
        <pt x="439" y="250" on="1"/>
        <pt x="439" y="0" on="1"/>
        <pt x="339" y="0" on="1"/>
        <pt x="339" y="77" on="1"/>
      </contour>
      <contour>
        <pt x="295" y="177" on="1"/>
        <pt x="331" y="152" on="0"/>
        <pt x="339" y="108" on="1"/>
        <pt x="339" y="244" on="1"/>
        <pt x="267" y="273" on="0"/>
        <pt x="176" y="273" on="0"/>
        <pt x="124" y="197" on="0"/>
        <pt x="124" y="87" on="0"/>
        <pt x="167" y="10" on="0"/>
        <pt x="254" y="10" on="0"/>
        <pt x="320" y="55" on="0"/>
        <pt x="320" y="86" on="1"/>
        <pt x="320" y="130" on="0"/>
        <pt x="294" y="152" on="1"/>
        <pt x="284" y="159" on="1"/>
        <pt x="269" y="169" on="0"/>
        <pt x="269" y="185" on="0"/>
        <pt x="283" y="185" on="0"/>
      </contour>
    </TTGlyph>
    <TTGlyph name="aacute" xMin="23" yMin="-10" xMax="438" yMax="714">
      <contour>
        <pt x="206" y="-10" on="1"/>
        <pt x="134" y="-10" on="0"/>
        <pt x="23" y="71" on="0"/>
        <pt x="23" y="143" on="1"/>
        <pt x="23" y="185" on="0"/>
        <pt x="64" y="247" on="0"/>
        <pt x="96" y="262" on="1"/>
        <pt x="155" y="292" on="0"/>
        <pt x="267" y="292" on="0"/>
        <pt x="338" y="262" on="1"/>
        <pt x="337" y="378" on="0"/>
        <pt x="282" y="455" on="0"/>
        <pt x="168" y="455" on="0"/>
        <pt x="85" y="413" on="0"/>
        <pt x="85" y="378" on="1"/>
        <pt x="85" y="366" on="0"/>
        <pt x="64" y="366" on="0"/>
        <pt x="64" y="377" on="1"/>
        <pt x="64" y="419" on="0"/>
        <pt x="157" y="474" on="0"/>
        <pt x="248" y="474" on="1"/>
        <pt x="438" y="474" on="0"/>
        <pt x="438" y="250" on="1"/>
        <pt x="438" y="0" on="1"/>
        <pt x="338" y="0" on="1"/>
        <pt x="338" y="79" on="1"/>
        <pt x="331" y="40" on="0"/>
        <pt x="255" y="-10" on="0"/>
      </contour>
      <contour>
        <pt x="294" y="177" on="1"/>
        <pt x="330" y="152" on="0"/>
        <pt x="338" y="108" on="1"/>
        <pt x="338" y="244" on="1"/>
        <pt x="266" y="273" on="0"/>
        <pt x="175" y="273" on="0"/>
        <pt x="123" y="197" on="0"/>
        <pt x="123" y="87" on="0"/>
        <pt x="166" y="10" on="0"/>
        <pt x="253" y="10" on="0"/>
        <pt x="319" y="55" on="0"/>
        <pt x="319" y="86" on="1"/>
        <pt x="319" y="140" on="0"/>
        <pt x="283" y="160" on="1"/>
        <pt x="268" y="169" on="0"/>
        <pt x="268" y="185" on="0"/>
        <pt x="282" y="185" on="0"/>
      </contour>
      <contour>
        <pt x="362" y="714" on="1"/>
        <pt x="248" y="594" on="1"/>
        <pt x="199" y="594" on="1"/>
        <pt x="262" y="714" on="1"/>
      </contour>
    </TTGlyph>
    <TTGlyph name="acircumflex" xMin="23" yMin="-10" xMax="438" yMax="694">
      <contour>
        <pt x="206" y="-10" on="1"/>
        <pt x="134" y="-10" on="0"/>
        <pt x="23" y="71" on="0"/>
        <pt x="23" y="143" on="1"/>
        <pt x="23" y="185" on="0"/>
        <pt x="64" y="247" on="0"/>
        <pt x="96" y="262" on="1"/>
        <pt x="155" y="292" on="0"/>
        <pt x="267" y="292" on="0"/>
        <pt x="338" y="262" on="1"/>
        <pt x="337" y="378" on="0"/>
        <pt x="282" y="455" on="0"/>
        <pt x="168" y="455" on="0"/>
        <pt x="85" y="413" on="0"/>
        <pt x="85" y="378" on="1"/>
        <pt x="85" y="366" on="0"/>
        <pt x="64" y="366" on="0"/>
        <pt x="64" y="377" on="1"/>
        <pt x="64" y="419" on="0"/>
        <pt x="157" y="474" on="0"/>
        <pt x="248" y="474" on="1"/>
        <pt x="438" y="474" on="0"/>
        <pt x="438" y="250" on="1"/>
        <pt x="438" y="0" on="1"/>
        <pt x="338" y="0" on="1"/>
        <pt x="338" y="79" on="1"/>
        <pt x="331" y="40" on="0"/>
        <pt x="255" y="-10" on="0"/>
      </contour>
      <contour>
        <pt x="294" y="177" on="1"/>
        <pt x="330" y="152" on="0"/>
        <pt x="338" y="108" on="1"/>
        <pt x="338" y="244" on="1"/>
        <pt x="266" y="273" on="0"/>
        <pt x="175" y="273" on="0"/>
        <pt x="123" y="197" on="0"/>
        <pt x="123" y="87" on="0"/>
        <pt x="166" y="10" on="0"/>
        <pt x="253" y="10" on="0"/>
        <pt x="319" y="55" on="0"/>
        <pt x="319" y="86" on="1"/>
        <pt x="319" y="140" on="0"/>
        <pt x="283" y="160" on="1"/>
        <pt x="268" y="169" on="0"/>
        <pt x="268" y="185" on="0"/>
        <pt x="282" y="185" on="0"/>
      </contour>
      <contour>
        <pt x="238" y="694" on="1"/>
        <pt x="405" y="520" on="1"/>
        <pt x="350" y="520" on="1"/>
        <pt x="238" y="634" on="1"/>
        <pt x="134" y="521" on="1"/>
        <pt x="79" y="521" on="1"/>
      </contour>
    </TTGlyph>
    <TTGlyph name="acute" xMin="21" yMin="594" xMax="184" yMax="714">
      <contour>
        <pt x="184" y="714" on="1"/>
        <pt x="70" y="594" on="1"/>
        <pt x="21" y="594" on="1"/>
        <pt x="84" y="714" on="1"/>
      </contour>
    </TTGlyph>
    <TTGlyph name="adieresis" xMin="23" yMin="-10" xMax="438" yMax="652">
      <contour>
        <pt x="206" y="-10" on="1"/>
        <pt x="134" y="-10" on="0"/>
        <pt x="23" y="71" on="0"/>
        <pt x="23" y="143" on="1"/>
        <pt x="23" y="185" on="0"/>
        <pt x="64" y="247" on="0"/>
        <pt x="96" y="262" on="1"/>
        <pt x="155" y="292" on="0"/>
        <pt x="267" y="292" on="0"/>
        <pt x="338" y="262" on="1"/>
        <pt x="337" y="378" on="0"/>
        <pt x="282" y="455" on="0"/>
        <pt x="168" y="455" on="0"/>
        <pt x="85" y="413" on="0"/>
        <pt x="85" y="378" on="1"/>
        <pt x="85" y="366" on="0"/>
        <pt x="64" y="366" on="0"/>
        <pt x="64" y="377" on="1"/>
        <pt x="64" y="419" on="0"/>
        <pt x="157" y="474" on="0"/>
        <pt x="248" y="474" on="1"/>
        <pt x="438" y="474" on="0"/>
        <pt x="438" y="250" on="1"/>
        <pt x="438" y="0" on="1"/>
        <pt x="338" y="0" on="1"/>
        <pt x="338" y="79" on="1"/>
        <pt x="331" y="40" on="0"/>
        <pt x="255" y="-10" on="0"/>
      </contour>
      <contour>
        <pt x="294" y="177" on="1"/>
        <pt x="330" y="152" on="0"/>
        <pt x="338" y="108" on="1"/>
        <pt x="338" y="244" on="1"/>
        <pt x="266" y="273" on="0"/>
        <pt x="175" y="273" on="0"/>
        <pt x="123" y="197" on="0"/>
        <pt x="123" y="87" on="0"/>
        <pt x="166" y="10" on="0"/>
        <pt x="253" y="10" on="0"/>
        <pt x="319" y="55" on="0"/>
        <pt x="319" y="86" on="1"/>
        <pt x="319" y="140" on="0"/>
        <pt x="283" y="160" on="1"/>
        <pt x="268" y="169" on="0"/>
        <pt x="268" y="185" on="0"/>
        <pt x="282" y="185" on="0"/>
      </contour>
      <contour>
        <pt x="79" y="577" on="0"/>
        <pt x="79" y="621" on="0"/>
        <pt x="110" y="652" on="0"/>
        <pt x="154" y="652" on="0"/>
        <pt x="186" y="621" on="0"/>
        <pt x="186" y="577" on="0"/>
        <pt x="154" y="546" on="0"/>
        <pt x="110" y="546" on="0"/>
      </contour>
      <contour>
        <pt x="298" y="577" on="0"/>
        <pt x="298" y="621" on="0"/>
        <pt x="329" y="652" on="0"/>
        <pt x="373" y="652" on="0"/>
        <pt x="405" y="621" on="0"/>
        <pt x="405" y="577" on="0"/>
        <pt x="373" y="546" on="0"/>
        <pt x="329" y="546" on="0"/>
      </contour>
    </TTGlyph>
    <TTGlyph name="ae" xMin="27" yMin="-10" xMax="742" yMax="473">
      <contour>
        <pt x="373" y="44" on="0"/>
        <pt x="297" y="-10" on="0"/>
        <pt x="194" y="-10" on="0"/>
        <pt x="101" y="20" on="0"/>
        <pt x="27" y="95" on="0"/>
        <pt x="27" y="197" on="0"/>
        <pt x="62" y="232" on="1"/>
        <pt x="122" y="293" on="0"/>
        <pt x="221" y="293" on="1"/>
        <pt x="273" y="293" on="0"/>
        <pt x="342" y="269" on="1"/>
        <pt x="342" y="337" on="1"/>
        <pt x="342" y="422" on="0"/>
        <pt x="304" y="442" on="1"/>
        <pt x="287" y="452" on="0"/>
        <pt x="222" y="452" on="0"/>
        <pt x="164" y="417" on="0"/>
        <pt x="164" y="389" on="1"/>
        <pt x="164" y="346" on="0"/>
        <pt x="242" y="343" on="1"/>
        <pt x="249" y="343" on="0"/>
        <pt x="249" y="337" on="1"/>
        <pt x="249" y="325" on="0"/>
        <pt x="222" y="325" on="1"/>
        <pt x="161" y="325" on="0"/>
        <pt x="64" y="359" on="0"/>
        <pt x="64" y="394" on="1"/>
        <pt x="64" y="433" on="0"/>
        <pt x="181" y="472" on="0"/>
        <pt x="245" y="472" on="1"/>
        <pt x="362" y="472" on="0"/>
        <pt x="411" y="403" on="1"/>
        <pt x="479" y="473" on="0"/>
        <pt x="647" y="473" on="0"/>
        <pt x="742" y="382" on="0"/>
        <pt x="742" y="258" on="0"/>
        <pt x="640" y="162" on="0"/>
        <pt x="474" y="162" on="0"/>
        <pt x="441" y="233" on="1"/>
        <pt x="442" y="226" on="0"/>
        <pt x="445" y="180" on="0"/>
        <pt x="447" y="154" on="0"/>
        <pt x="456" y="108" on="0"/>
        <pt x="467" y="80" on="0"/>
        <pt x="489" y="45" on="0"/>
        <pt x="503" y="35" on="1"/>
        <pt x="537" y="11" on="0"/>
        <pt x="622" y="11" on="0"/>
        <pt x="692" y="40" on="0"/>
        <pt x="706" y="69" on="1"/>
        <pt x="735" y="69" on="1"/>
        <pt x="696" y="-10" on="0"/>
        <pt x="571" y="-10" on="1"/>
        <pt x="507" y="-10" on="0"/>
        <pt x="402" y="54" on="0"/>
        <pt x="372" y="108" on="1"/>
        <pt x="373" y="103" on="0"/>
        <pt x="373" y="92" on="1"/>
      </contour>
      <contour>
        <pt x="302" y="185" on="0"/>
        <pt x="316" y="185" on="0"/>
        <pt x="346" y="163" on="0"/>
        <pt x="353" y="153" on="1"/>
        <pt x="342" y="189" on="0"/>
        <pt x="342" y="226" on="1"/>
        <pt x="342" y="244" on="1"/>
        <pt x="270" y="273" on="0"/>
        <pt x="176" y="273" on="0"/>
        <pt x="127" y="193" on="0"/>
        <pt x="127" y="93" on="0"/>
        <pt x="196" y="10" on="0"/>
        <pt x="287" y="10" on="0"/>
        <pt x="353" y="55" on="0"/>
        <pt x="353" y="86" on="1"/>
        <pt x="353" y="130" on="0"/>
        <pt x="327" y="152" on="1"/>
        <pt x="316" y="159" on="1"/>
        <pt x="302" y="169" on="0"/>
      </contour>
      <contour>
        <pt x="656" y="325" on="1"/>
        <pt x="656" y="454" on="0"/>
        <pt x="558" y="454" on="1"/>
        <pt x="510" y="454" on="0"/>
        <pt x="449" y="361" on="0"/>
        <pt x="445" y="295" on="1"/>
        <pt x="457" y="323" on="0"/>
        <pt x="506" y="357" on="0"/>
        <pt x="559" y="357" on="0"/>
        <pt x="559" y="338" on="0"/>
        <pt x="547" y="338" on="1"/>
        <pt x="501" y="335" on="0"/>
        <pt x="458" y="295" on="0"/>
        <pt x="458" y="227" on="0"/>
        <pt x="507" y="180" on="0"/>
        <pt x="540" y="180" on="1"/>
        <pt x="594" y="180" on="0"/>
        <pt x="656" y="267" on="0"/>
      </contour>
    </TTGlyph>
    <TTGlyph name="agrave" xMin="23" yMin="-10" xMax="438" yMax="675">
      <contour>
        <pt x="206" y="-10" on="1"/>
        <pt x="134" y="-10" on="0"/>
        <pt x="23" y="71" on="0"/>
        <pt x="23" y="143" on="1"/>
        <pt x="23" y="185" on="0"/>
        <pt x="64" y="247" on="0"/>
        <pt x="96" y="262" on="1"/>
        <pt x="155" y="292" on="0"/>
        <pt x="267" y="292" on="0"/>
        <pt x="338" y="262" on="1"/>
        <pt x="337" y="378" on="0"/>
        <pt x="282" y="455" on="0"/>
        <pt x="168" y="455" on="0"/>
        <pt x="85" y="413" on="0"/>
        <pt x="85" y="378" on="1"/>
        <pt x="85" y="366" on="0"/>
        <pt x="64" y="366" on="0"/>
        <pt x="64" y="377" on="1"/>
        <pt x="64" y="419" on="0"/>
        <pt x="157" y="474" on="0"/>
        <pt x="248" y="474" on="1"/>
        <pt x="438" y="474" on="0"/>
        <pt x="438" y="250" on="1"/>
        <pt x="438" y="0" on="1"/>
        <pt x="338" y="0" on="1"/>
        <pt x="338" y="79" on="1"/>
        <pt x="331" y="40" on="0"/>
        <pt x="255" y="-10" on="0"/>
      </contour>
      <contour>
        <pt x="294" y="177" on="1"/>
        <pt x="330" y="152" on="0"/>
        <pt x="338" y="108" on="1"/>
        <pt x="338" y="244" on="1"/>
        <pt x="266" y="273" on="0"/>
        <pt x="175" y="273" on="0"/>
        <pt x="123" y="197" on="0"/>
        <pt x="123" y="87" on="0"/>
        <pt x="166" y="10" on="0"/>
        <pt x="253" y="10" on="0"/>
        <pt x="319" y="55" on="0"/>
        <pt x="319" y="86" on="1"/>
        <pt x="319" y="140" on="0"/>
        <pt x="283" y="160" on="1"/>
        <pt x="268" y="169" on="0"/>
        <pt x="268" y="185" on="0"/>
        <pt x="282" y="185" on="0"/>
      </contour>
      <contour>
        <pt x="254" y="555" on="1"/>
        <pt x="140" y="675" on="1"/>
        <pt x="240" y="675" on="1"/>
        <pt x="303" y="555" on="1"/>
      </contour>
    </TTGlyph>
    <TTGlyph name="ampersand" xMin="34" yMin="-2" xMax="636" yMax="691">
      <contour>
        <pt x="336" y="421" on="1"/>
        <pt x="394" y="335" on="1"/>
        <pt x="418" y="349" on="0"/>
        <pt x="444" y="349" on="1"/>
        <pt x="489" y="349" on="0"/>
        <pt x="560" y="276" on="0"/>
        <pt x="560" y="210" on="1"/>
        <pt x="560" y="168" on="0"/>
        <pt x="542" y="130" on="1"/>
        <pt x="584" y="73" on="0"/>
        <pt x="636" y="0" on="1"/>
        <pt x="492" y="0" on="1"/>
        <pt x="461" y="47" on="1"/>
        <pt x="379" y="-2" on="0"/>
        <pt x="161" y="-2" on="0"/>
        <pt x="34" y="105" on="0"/>
        <pt x="34" y="269" on="0"/>
        <pt x="154" y="382" on="0"/>
        <pt x="232" y="409" on="1"/>
        <pt x="203" y="456" on="1"/>
        <pt x="169" y="511" on="0"/>
        <pt x="169" y="556" on="1"/>
        <pt x="169" y="618" on="0"/>
        <pt x="277" y="691" on="0"/>
        <pt x="414" y="691" on="0"/>
        <pt x="509" y="626" on="0"/>
        <pt x="509" y="521" on="0"/>
        <pt x="426" y="451" on="0"/>
      </contour>
      <contour>
        <pt x="191" y="367" on="0"/>
        <pt x="133" y="263" on="0"/>
        <pt x="133" y="136" on="0"/>
        <pt x="221" y="17" on="0"/>
        <pt x="295" y="17" on="1"/>
        <pt x="331" y="17" on="0"/>
        <pt x="425" y="43" on="0"/>
        <pt x="452" y="64" on="1"/>
        <pt x="242" y="393" on="1"/>
      </contour>
      <contour>
        <pt x="382" y="456" on="0"/>
        <pt x="427" y="516" on="0"/>
        <pt x="427" y="615" on="0"/>
        <pt x="362" y="671" on="0"/>
        <pt x="285" y="671" on="0"/>
        <pt x="243" y="642" on="0"/>
        <pt x="243" y="616" on="1"/>
        <pt x="243" y="569" on="0"/>
        <pt x="327" y="435" on="1"/>
      </contour>
      <contour>
        <pt x="442" y="332" on="1"/>
        <pt x="422" y="332" on="0"/>
        <pt x="404" y="321" on="1"/>
        <pt x="507" y="176" on="0"/>
        <pt x="528" y="147" on="1"/>
        <pt x="538" y="174" on="0"/>
        <pt x="538" y="204" on="1"/>
        <pt x="538" y="265" on="0"/>
        <pt x="481" y="332" on="0"/>
      </contour>
    </TTGlyph>
    <TTGlyph name="aring" xMin="23" yMin="-10" xMax="438" yMax="664">
      <contour>
        <pt x="206" y="-10" on="1"/>
        <pt x="134" y="-10" on="0"/>
        <pt x="23" y="71" on="0"/>
        <pt x="23" y="143" on="1"/>
        <pt x="23" y="185" on="0"/>
        <pt x="64" y="247" on="0"/>
        <pt x="96" y="262" on="1"/>
        <pt x="155" y="292" on="0"/>
        <pt x="267" y="292" on="0"/>
        <pt x="338" y="262" on="1"/>
        <pt x="337" y="378" on="0"/>
        <pt x="282" y="455" on="0"/>
        <pt x="168" y="455" on="0"/>
        <pt x="85" y="413" on="0"/>
        <pt x="85" y="378" on="1"/>
        <pt x="85" y="366" on="0"/>
        <pt x="64" y="366" on="0"/>
        <pt x="64" y="377" on="1"/>
        <pt x="64" y="419" on="0"/>
        <pt x="157" y="474" on="0"/>
        <pt x="248" y="474" on="1"/>
        <pt x="438" y="474" on="0"/>
        <pt x="438" y="250" on="1"/>
        <pt x="438" y="0" on="1"/>
        <pt x="338" y="0" on="1"/>
        <pt x="338" y="79" on="1"/>
        <pt x="331" y="40" on="0"/>
        <pt x="255" y="-10" on="0"/>
      </contour>
      <contour>
        <pt x="294" y="177" on="1"/>
        <pt x="330" y="152" on="0"/>
        <pt x="338" y="108" on="1"/>
        <pt x="338" y="244" on="1"/>
        <pt x="266" y="273" on="0"/>
        <pt x="175" y="273" on="0"/>
        <pt x="123" y="197" on="0"/>
        <pt x="123" y="87" on="0"/>
        <pt x="166" y="10" on="0"/>
        <pt x="253" y="10" on="0"/>
        <pt x="319" y="55" on="0"/>
        <pt x="319" y="86" on="1"/>
        <pt x="319" y="140" on="0"/>
        <pt x="283" y="160" on="1"/>
        <pt x="268" y="169" on="0"/>
        <pt x="268" y="185" on="0"/>
        <pt x="282" y="185" on="0"/>
      </contour>
      <contour>
        <pt x="217" y="515" on="0"/>
        <pt x="173" y="559" on="0"/>
        <pt x="173" y="620" on="0"/>
        <pt x="217" y="664" on="0"/>
        <pt x="278" y="664" on="0"/>
        <pt x="322" y="620" on="0"/>
        <pt x="322" y="559" on="0"/>
        <pt x="278" y="515" on="0"/>
      </contour>
      <contour>
        <pt x="198" y="610" on="0"/>
        <pt x="198" y="570" on="0"/>
        <pt x="228" y="540" on="0"/>
        <pt x="268" y="540" on="0"/>
        <pt x="298" y="570" on="0"/>
        <pt x="298" y="610" on="0"/>
        <pt x="268" y="640" on="0"/>
        <pt x="228" y="640" on="0"/>
      </contour>
    </TTGlyph>
    <TTGlyph name="asciicircum" xMin="26" yMin="417" xMax="572" yMax="694">
      <contour>
        <pt x="295" y="694" on="1"/>
        <pt x="572" y="417" on="1"/>
        <pt x="487" y="417" on="1"/>
        <pt x="295" y="594" on="1"/>
        <pt x="111" y="418" on="1"/>
        <pt x="26" y="418" on="1"/>
      </contour>
    </TTGlyph>
    <TTGlyph name="asciitilde" xMin="33" yMin="132" xMax="607" yMax="379">
      <contour>
        <pt x="253" y="292" on="0"/>
        <pt x="193" y="333" on="0"/>
        <pt x="123" y="333" on="0"/>
        <pt x="54" y="282" on="0"/>
        <pt x="54" y="208" on="0"/>
        <pt x="99" y="161" on="0"/>
        <pt x="157" y="161" on="0"/>
        <pt x="183" y="188" on="0"/>
        <pt x="190" y="214" on="0"/>
        <pt x="193" y="214" on="1"/>
        <pt x="204" y="214" on="0"/>
        <pt x="204" y="177" on="0"/>
        <pt x="158" y="142" on="0"/>
        <pt x="94" y="142" on="0"/>
        <pt x="33" y="200" on="0"/>
        <pt x="33" y="294" on="0"/>
        <pt x="122" y="379" on="0"/>
        <pt x="180" y="379" on="1"/>
        <pt x="242" y="379" on="0"/>
        <pt x="292" y="327" on="1"/>
        <pt x="314" y="305" on="0"/>
        <pt x="380" y="230" on="1"/>
        <pt x="400" y="208" on="0"/>
        <pt x="453" y="178" on="0"/>
        <pt x="520" y="178" on="0"/>
        <pt x="587" y="231" on="0"/>
        <pt x="587" y="303" on="0"/>
        <pt x="542" y="350" on="0"/>
        <pt x="467" y="350" on="0"/>
        <pt x="455" y="310" on="1"/>
        <pt x="451" y="299" on="0"/>
        <pt x="448" y="299" on="1"/>
        <pt x="437" y="299" on="0"/>
        <pt x="437" y="333" on="0"/>
        <pt x="481" y="369" on="0"/>
        <pt x="547" y="369" on="0"/>
        <pt x="607" y="310" on="0"/>
        <pt x="607" y="218" on="0"/>
        <pt x="520" y="132" on="0"/>
        <pt x="462" y="132" on="1"/>
        <pt x="394" y="132" on="0"/>
        <pt x="330" y="202" on="1"/>
        <pt x="304" y="232" on="0"/>
      </contour>
    </TTGlyph>
    <TTGlyph name="asterisk" xMin="37" yMin="280" xMax="433" yMax="671">
      <contour>
        <pt x="220" y="458" on="1"/>
        <pt x="180" y="459" on="1"/>
        <pt x="163" y="459" on="0"/>
        <pt x="99" y="433" on="0"/>
        <pt x="91" y="433" on="0"/>
        <pt x="83" y="434" on="0"/>
        <pt x="64" y="439" on="0"/>
        <pt x="56" y="444" on="1"/>
        <pt x="37" y="459" on="0"/>
        <pt x="37" y="516" on="0"/>
        <pt x="66" y="551" on="0"/>
        <pt x="118" y="551" on="0"/>
        <pt x="198" y="503" on="0"/>
        <pt x="226" y="475" on="1"/>
        <pt x="224" y="501" on="0"/>
        <pt x="201" y="558" on="0"/>
        <pt x="191" y="570" on="0"/>
        <pt x="180" y="583" on="0"/>
        <pt x="176" y="588" on="1"/>
        <pt x="166" y="603" on="0"/>
        <pt x="166" y="632" on="0"/>
        <pt x="193" y="671" on="0"/>
        <pt x="250" y="671" on="0"/>
        <pt x="279" y="624" on="0"/>
        <pt x="279" y="531" on="0"/>
        <pt x="254" y="471" on="1"/>
        <pt x="310" y="503" on="0"/>
        <pt x="346" y="576" on="0"/>
        <pt x="395" y="576" on="0"/>
        <pt x="433" y="548" on="0"/>
        <pt x="433" y="522" on="1"/>
        <pt x="433" y="484" on="0"/>
        <pt x="348" y="445" on="0"/>
        <pt x="274" y="445" on="0"/>
        <pt x="259" y="449" on="1"/>
        <pt x="302" y="410" on="0"/>
        <pt x="339" y="404" on="1"/>
        <pt x="357" y="401" on="0"/>
        <pt x="377" y="395" on="0"/>
        <pt x="396" y="373" on="0"/>
        <pt x="396" y="325" on="0"/>
        <pt x="363" y="296" on="0"/>
        <pt x="345" y="296" on="1"/>
        <pt x="313" y="296" on="0"/>
        <pt x="246" y="393" on="0"/>
        <pt x="238" y="440" on="1"/>
        <pt x="230" y="426" on="0"/>
        <pt x="213" y="369" on="0"/>
        <pt x="213" y="356" on="1"/>
        <pt x="214" y="332" on="1"/>
        <pt x="214" y="310" on="0"/>
        <pt x="188" y="280" on="0"/>
        <pt x="136" y="280" on="0"/>
        <pt x="107" y="320" on="0"/>
        <pt x="107" y="373" on="0"/>
        <pt x="181" y="445" on="0"/>
      </contour>
    </TTGlyph>
    <TTGlyph name="at" xMin="51" yMin="-37" xMax="735" yMax="594">
      <contour>
        <pt x="493" y="120" on="1"/>
        <pt x="493" y="197" on="1"/>
        <pt x="487" y="156" on="0"/>
        <pt x="413" y="110" on="0"/>
        <pt x="289" y="110" on="0"/>
        <pt x="178" y="192" on="0"/>
        <pt x="178" y="264" on="1"/>
        <pt x="178" y="359" on="0"/>
        <pt x="277" y="404" on="1"/>
        <pt x="326" y="427" on="0"/>
        <pt x="425" y="427" on="0"/>
        <pt x="493" y="392" on="1"/>
        <pt x="493" y="420" on="1"/>
        <pt x="583" y="420" on="1"/>
        <pt x="583" y="170" on="1"/>
        <pt x="620" y="170" on="0"/>
        <pt x="679" y="237" on="0"/>
        <pt x="679" y="298" on="1"/>
        <pt x="679" y="395" on="0"/>
        <pt x="532" y="546" on="0"/>
        <pt x="280" y="546" on="0"/>
        <pt x="103" y="377" on="0"/>
        <pt x="103" y="266" on="1"/>
        <pt x="103" y="203" on="0"/>
        <pt x="161" y="86" on="0"/>
        <pt x="283" y="5" on="0"/>
        <pt x="364" y="5" on="1"/>
        <pt x="416" y="5" on="0"/>
        <pt x="503" y="39" on="0"/>
        <pt x="551" y="73" on="0"/>
        <pt x="566" y="73" on="0"/>
        <pt x="575" y="51" on="0"/>
        <pt x="575" y="43" on="1"/>
        <pt x="575" y="17" on="0"/>
        <pt x="440" y="-37" on="0"/>
        <pt x="362" y="-37" on="1"/>
        <pt x="223" y="-37" on="0"/>
        <pt x="51" y="142" on="0"/>
        <pt x="51" y="398" on="0"/>
        <pt x="258" y="594" on="0"/>
        <pt x="537" y="594" on="0"/>
        <pt x="735" y="426" on="0"/>
        <pt x="735" y="302" on="1"/>
        <pt x="735" y="225" on="0"/>
        <pt x="651" y="120" on="0"/>
        <pt x="563" y="120" on="1"/>
      </contour>
      <contour>
        <pt x="449" y="297" on="1"/>
        <pt x="485" y="272" on="0"/>
        <pt x="493" y="228" on="1"/>
        <pt x="493" y="367" on="1"/>
        <pt x="423" y="407" on="0"/>
        <pt x="330" y="407" on="0"/>
        <pt x="278" y="319" on="0"/>
        <pt x="278" y="207" on="0"/>
        <pt x="321" y="130" on="0"/>
        <pt x="408" y="130" on="0"/>
        <pt x="474" y="175" on="0"/>
        <pt x="474" y="206" on="1"/>
        <pt x="474" y="250" on="0"/>
        <pt x="448" y="272" on="1"/>
        <pt x="438" y="279" on="1"/>
        <pt x="423" y="289" on="0"/>
        <pt x="423" y="305" on="0"/>
        <pt x="437" y="305" on="0"/>
      </contour>
    </TTGlyph>
    <TTGlyph name="atilde" xMin="23" yMin="-10" xMax="438" yMax="674">
      <contour>
        <pt x="206" y="-10" on="1"/>
        <pt x="134" y="-10" on="0"/>
        <pt x="23" y="71" on="0"/>
        <pt x="23" y="143" on="1"/>
        <pt x="23" y="185" on="0"/>
        <pt x="64" y="247" on="0"/>
        <pt x="96" y="262" on="1"/>
        <pt x="155" y="292" on="0"/>
        <pt x="267" y="292" on="0"/>
        <pt x="338" y="262" on="1"/>
        <pt x="337" y="378" on="0"/>
        <pt x="282" y="455" on="0"/>
        <pt x="168" y="455" on="0"/>
        <pt x="85" y="413" on="0"/>
        <pt x="85" y="378" on="1"/>
        <pt x="85" y="366" on="0"/>
        <pt x="64" y="366" on="0"/>
        <pt x="64" y="377" on="1"/>
        <pt x="64" y="419" on="0"/>
        <pt x="157" y="474" on="0"/>
        <pt x="248" y="474" on="1"/>
        <pt x="438" y="474" on="0"/>
        <pt x="438" y="250" on="1"/>
        <pt x="438" y="0" on="1"/>
        <pt x="338" y="0" on="1"/>
        <pt x="338" y="79" on="1"/>
        <pt x="331" y="40" on="0"/>
        <pt x="255" y="-10" on="0"/>
      </contour>
      <contour>
        <pt x="294" y="177" on="1"/>
        <pt x="330" y="152" on="0"/>
        <pt x="338" y="108" on="1"/>
        <pt x="338" y="244" on="1"/>
        <pt x="266" y="273" on="0"/>
        <pt x="175" y="273" on="0"/>
        <pt x="123" y="197" on="0"/>
        <pt x="123" y="87" on="0"/>
        <pt x="166" y="10" on="0"/>
        <pt x="253" y="10" on="0"/>
        <pt x="319" y="55" on="0"/>
        <pt x="319" y="86" on="1"/>
        <pt x="319" y="140" on="0"/>
        <pt x="283" y="160" on="1"/>
        <pt x="268" y="169" on="0"/>
        <pt x="268" y="185" on="0"/>
        <pt x="282" y="185" on="0"/>
      </contour>
      <contour>
        <pt x="244" y="621" on="1"/>
        <pt x="263" y="599" on="0"/>
        <pt x="282" y="579" on="0"/>
        <pt x="317" y="559" on="0"/>
        <pt x="360" y="559" on="0"/>
        <pt x="393" y="590" on="0"/>
        <pt x="393" y="630" on="0"/>
        <pt x="372" y="654" on="0"/>
        <pt x="329" y="654" on="0"/>
        <pt x="322" y="629" on="1"/>
        <pt x="320" y="623" on="0"/>
        <pt x="318" y="623" on="1"/>
        <pt x="311" y="623" on="0"/>
        <pt x="311" y="653" on="0"/>
        <pt x="340" y="674" on="0"/>
        <pt x="378" y="674" on="0"/>
        <pt x="413" y="638" on="0"/>
        <pt x="413" y="578" on="0"/>
        <pt x="367" y="521" on="0"/>
        <pt x="283" y="521" on="0"/>
        <pt x="242" y="570" on="1"/>
        <pt x="222" y="594" on="0"/>
        <pt x="212" y="605" on="1"/>
        <pt x="182" y="636" on="0"/>
        <pt x="123" y="636" on="0"/>
        <pt x="90" y="605" on="0"/>
        <pt x="90" y="565" on="0"/>
        <pt x="111" y="541" on="0"/>
        <pt x="154" y="541" on="0"/>
        <pt x="161" y="566" on="1"/>
        <pt x="163" y="572" on="0"/>
        <pt x="165" y="572" on="1"/>
        <pt x="172" y="572" on="0"/>
        <pt x="172" y="542" on="0"/>
        <pt x="143" y="521" on="0"/>
        <pt x="105" y="521" on="0"/>
        <pt x="70" y="557" on="0"/>
        <pt x="70" y="617" on="0"/>
        <pt x="116" y="674" on="0"/>
        <pt x="199" y="674" on="0"/>
      </contour>
    </TTGlyph>
    <TTGlyph name="b" xMin="64" yMin="-10" xMax="503" yMax="750">
      <contour>
        <pt x="164" y="750" on="1"/>
        <pt x="164" y="406" on="1"/>
        <pt x="253" y="472" on="0"/>
        <pt x="320" y="472" on="1"/>
        <pt x="379" y="472" on="0"/>
        <pt x="435" y="424" on="1"/>
        <pt x="465" y="399" on="0"/>
        <pt x="503" y="298" on="0"/>
        <pt x="503" y="230" on="1"/>
        <pt x="503" y="116" on="0"/>
        <pt x="396" y="-10" on="0"/>
        <pt x="305" y="-10" on="1"/>
        <pt x="249" y="-10" on="0"/>
        <pt x="170" y="35" on="0"/>
        <pt x="164" y="79" on="1"/>
        <pt x="164" y="0" on="1"/>
        <pt x="64" y="0" on="1"/>
        <pt x="64" y="750" on="1"/>
      </contour>
      <contour>
        <pt x="403" y="243" on="1"/>
        <pt x="403" y="331" on="0"/>
        <pt x="332" y="448" on="0"/>
        <pt x="242" y="448" on="0"/>
        <pt x="164" y="383" on="1"/>
        <pt x="164" y="109" on="1"/>
        <pt x="167" y="134" on="0"/>
        <pt x="181" y="153" on="1"/>
        <pt x="205" y="186" on="0"/>
        <pt x="227" y="186" on="1"/>
        <pt x="235" y="186" on="0"/>
        <pt x="235" y="176" on="1"/>
        <pt x="235" y="171" on="0"/>
        <pt x="217" y="159" on="1"/>
        <pt x="183" y="135" on="0"/>
        <pt x="183" y="60" on="0"/>
        <pt x="254" y="10" on="0"/>
        <pt x="293" y="10" on="1"/>
        <pt x="403" y="10" on="0"/>
      </contour>
    </TTGlyph>
    <TTGlyph name="backslash" xMin="21" yMin="-49" xMax="482" yMax="730">
      <contour>
        <pt x="89" y="730" on="1"/>
        <pt x="482" y="-49" on="1"/>
        <pt x="414" y="-49" on="1"/>
        <pt x="21" y="730" on="1"/>
      </contour>
    </TTGlyph>
    <TTGlyph name="bar" xMin="67" yMin="-200" xMax="127" yMax="730">
      <contour>
        <pt x="127" y="730" on="1"/>
        <pt x="127" y="-200" on="1"/>
        <pt x="67" y="-200" on="1"/>
        <pt x="67" y="730" on="1"/>
      </contour>
    </TTGlyph>
    <TTGlyph name="braceleft" xMin="-3" yMin="-90" xMax="285" yMax="824">
      <contour>
        <pt x="171" y="699" on="1"/>
        <pt x="179" y="538" on="1"/>
        <pt x="179" y="404" on="0"/>
        <pt x="97" y="367" on="1"/>
        <pt x="179" y="330" on="0"/>
        <pt x="179" y="196" on="1"/>
        <pt x="171" y="35" on="1"/>
        <pt x="171" y="-15" on="0"/>
        <pt x="201" y="-66" on="0"/>
        <pt x="243" y="-66" on="1"/>
        <pt x="256" y="-66" on="0"/>
        <pt x="285" y="-60" on="1"/>
        <pt x="285" y="-84" on="1"/>
        <pt x="260" y="-90" on="0"/>
        <pt x="194" y="-90" on="0"/>
        <pt x="145" y="-68" on="0"/>
        <pt x="134" y="-46" on="1"/>
        <pt x="114" y="-7" on="0"/>
        <pt x="114" y="62" on="1"/>
        <pt x="115" y="142" on="1"/>
        <pt x="115" y="292" on="0"/>
        <pt x="-3" y="367" on="1"/>
        <pt x="115" y="442" on="0"/>
        <pt x="115" y="592" on="1"/>
        <pt x="115" y="592" on="0"/>
        <pt x="114" y="672" on="1"/>
        <pt x="114" y="741" on="0"/>
        <pt x="134" y="780" on="1"/>
        <pt x="156" y="824" on="0"/>
        <pt x="232" y="824" on="1"/>
        <pt x="260" y="824" on="0"/>
        <pt x="285" y="818" on="1"/>
        <pt x="285" y="794" on="1"/>
        <pt x="256" y="800" on="0"/>
        <pt x="243" y="800" on="1"/>
        <pt x="201" y="800" on="0"/>
        <pt x="171" y="749" on="0"/>
      </contour>
    </TTGlyph>
    <TTGlyph name="braceright" xMin="1" yMin="-90" xMax="289" yMax="824">
      <contour>
        <pt x="115" y="35" on="1"/>
        <pt x="107" y="196" on="1"/>
        <pt x="107" y="330" on="0"/>
        <pt x="189" y="367" on="1"/>
        <pt x="107" y="404" on="0"/>
        <pt x="107" y="538" on="1"/>
        <pt x="115" y="699" on="1"/>
        <pt x="115" y="749" on="0"/>
        <pt x="85" y="800" on="0"/>
        <pt x="43" y="800" on="1"/>
        <pt x="30" y="800" on="0"/>
        <pt x="1" y="794" on="1"/>
        <pt x="1" y="818" on="1"/>
        <pt x="27" y="824" on="0"/>
        <pt x="92" y="824" on="0"/>
        <pt x="141" y="802" on="0"/>
        <pt x="152" y="780" on="1"/>
        <pt x="172" y="741" on="0"/>
        <pt x="172" y="672" on="1"/>
        <pt x="171" y="592" on="1"/>
        <pt x="171" y="442" on="0"/>
        <pt x="289" y="367" on="1"/>
        <pt x="171" y="292" on="0"/>
        <pt x="171" y="142" on="1"/>
        <pt x="172" y="62" on="1"/>
        <pt x="172" y="-7" on="0"/>
        <pt x="152" y="-46" on="1"/>
        <pt x="130" y="-90" on="0"/>
        <pt x="54" y="-90" on="1"/>
        <pt x="26" y="-90" on="0"/>
        <pt x="1" y="-84" on="1"/>
        <pt x="1" y="-60" on="1"/>
        <pt x="29" y="-66" on="0"/>
        <pt x="43" y="-66" on="1"/>
        <pt x="85" y="-66" on="0"/>
        <pt x="115" y="-15" on="0"/>
      </contour>
    </TTGlyph>
    <TTGlyph name="bracketleft" xMin="68" yMin="-147" xMax="253" yMax="723">
      <contour>
        <pt x="68" y="-147" on="1"/>
        <pt x="68" y="723" on="1"/>
        <pt x="253" y="723" on="1"/>
        <pt x="253" y="663" on="1"/>
        <pt x="128" y="663" on="1"/>
        <pt x="128" y="-87" on="1"/>
        <pt x="253" y="-87" on="1"/>
        <pt x="253" y="-147" on="1"/>
      </contour>
    </TTGlyph>
    <TTGlyph name="bracketright" xMin="11" yMin="-147" xMax="196" yMax="723">
      <contour>
        <pt x="196" y="-147" on="1"/>
        <pt x="11" y="-147" on="1"/>
        <pt x="11" y="-87" on="1"/>
        <pt x="136" y="-87" on="1"/>
        <pt x="136" y="663" on="1"/>
        <pt x="11" y="663" on="1"/>
        <pt x="11" y="723" on="1"/>
        <pt x="196" y="723" on="1"/>
      </contour>
    </TTGlyph>
    <TTGlyph name="brokenbar" xMin="69" yMin="-200" xMax="129" yMax="730">
      <contour>
        <pt x="129" y="730" on="1"/>
        <pt x="129" y="340" on="1"/>
        <pt x="69" y="340" on="1"/>
        <pt x="69" y="730" on="1"/>
      </contour>
      <contour>
        <pt x="129" y="190" on="1"/>
        <pt x="129" y="-200" on="1"/>
        <pt x="69" y="-200" on="1"/>
        <pt x="69" y="190" on="1"/>
      </contour>
    </TTGlyph>
    <TTGlyph name="bullet" xMin="84" yMin="217" xMax="250" yMax="383">
      <contour>
        <pt x="84" y="266" on="0"/>
        <pt x="84" y="334" on="0"/>
        <pt x="133" y="383" on="0"/>
        <pt x="201" y="383" on="0"/>
        <pt x="250" y="334" on="0"/>
        <pt x="250" y="266" on="0"/>
        <pt x="201" y="217" on="0"/>
        <pt x="133" y="217" on="0"/>
      </contour>
    </TTGlyph>
    <TTGlyph name="c" xMin="32" yMin="-10" xMax="421" yMax="473">
      <contour>
        <pt x="392" y="99" on="1"/>
        <pt x="421" y="99" on="1"/>
        <pt x="399" y="54" on="0"/>
        <pt x="312" y="-10" on="0"/>
        <pt x="247" y="-10" on="1"/>
        <pt x="144" y="-10" on="0"/>
        <pt x="32" y="136" on="0"/>
        <pt x="32" y="340" on="0"/>
        <pt x="172" y="473" on="0"/>
        <pt x="260" y="473" on="1"/>
        <pt x="322" y="473" on="0"/>
        <pt x="420" y="399" on="0"/>
        <pt x="420" y="342" on="1"/>
        <pt x="420" y="303" on="0"/>
        <pt x="374" y="252" on="0"/>
        <pt x="305" y="252" on="0"/>
        <pt x="252" y="289" on="0"/>
        <pt x="252" y="344" on="0"/>
        <pt x="262" y="360" on="1"/>
        <pt x="276" y="382" on="0"/>
        <pt x="301" y="382" on="0"/>
        <pt x="301" y="374" on="1"/>
        <pt x="301" y="369" on="0"/>
        <pt x="296" y="366" on="1"/>
        <pt x="272" y="350" on="0"/>
        <pt x="272" y="302" on="0"/>
        <pt x="311" y="272" on="0"/>
        <pt x="358" y="272" on="0"/>
        <pt x="400" y="304" on="0"/>
        <pt x="400" y="385" on="0"/>
        <pt x="321" y="454" on="0"/>
        <pt x="268" y="454" on="1"/>
        <pt x="200" y="454" on="0"/>
        <pt x="132" y="339" on="0"/>
        <pt x="132" y="138" on="0"/>
        <pt x="196" y="11" on="0"/>
        <pt x="262" y="11" on="1"/>
        <pt x="302" y="11" on="0"/>
        <pt x="376" y="65" on="0"/>
      </contour>
    </TTGlyph>
    <TTGlyph name="ccedilla" xMin="34" yMin="-198" xMax="423" yMax="462">
      <contour>
        <pt x="394" y="99" on="1"/>
        <pt x="423" y="99" on="1"/>
        <pt x="382" y="17" on="0"/>
        <pt x="287" y="2" on="1"/>
        <pt x="287" y="-24" on="1"/>
        <pt x="369" y="-43" on="0"/>
        <pt x="369" y="-105" on="1"/>
        <pt x="369" y="-152" on="0"/>
        <pt x="287" y="-198" on="0"/>
        <pt x="238" y="-198" on="1"/>
        <pt x="220" y="-198" on="0"/>
        <pt x="207" y="-194" on="1"/>
        <pt x="208" y="-166" on="1"/>
        <pt x="217" y="-170" on="0"/>
        <pt x="236" y="-170" on="1"/>
        <pt x="323" y="-170" on="0"/>
        <pt x="323" y="-44" on="0"/>
        <pt x="227" y="-44" on="1"/>
        <pt x="227" y="1" on="1"/>
        <pt x="134" y="9" on="0"/>
        <pt x="34" y="142" on="0"/>
        <pt x="34" y="232" on="1"/>
        <pt x="34" y="340" on="0"/>
        <pt x="173" y="462" on="0"/>
        <pt x="262" y="462" on="1"/>
        <pt x="326" y="462" on="0"/>
        <pt x="422" y="398" on="0"/>
        <pt x="422" y="342" on="1"/>
        <pt x="422" y="303" on="0"/>
        <pt x="376" y="252" on="0"/>
        <pt x="307" y="252" on="0"/>
        <pt x="254" y="289" on="0"/>
        <pt x="254" y="344" on="0"/>
        <pt x="264" y="360" on="1"/>
        <pt x="278" y="382" on="0"/>
        <pt x="303" y="382" on="0"/>
        <pt x="303" y="374" on="1"/>
        <pt x="303" y="369" on="0"/>
        <pt x="298" y="366" on="1"/>
        <pt x="274" y="350" on="0"/>
        <pt x="274" y="302" on="0"/>
        <pt x="313" y="272" on="0"/>
        <pt x="359" y="272" on="0"/>
        <pt x="402" y="307" on="0"/>
        <pt x="402" y="384" on="0"/>
        <pt x="325" y="444" on="0"/>
        <pt x="270" y="444" on="1"/>
        <pt x="134" y="444" on="0"/>
        <pt x="134" y="237" on="1"/>
        <pt x="134" y="140" on="0"/>
        <pt x="197" y="21" on="0"/>
        <pt x="264" y="21" on="1"/>
        <pt x="305" y="21" on="0"/>
        <pt x="379" y="66" on="0"/>
      </contour>
    </TTGlyph>
    <TTGlyph name="cedilla" xMin="11" yMin="-201" xMax="173" yMax="0">
      <contour>
        <pt x="173" y="-108" on="1"/>
        <pt x="173" y="-155" on="0"/>
        <pt x="91" y="-201" on="0"/>
        <pt x="42" y="-201" on="1"/>
        <pt x="24" y="-201" on="0"/>
        <pt x="11" y="-197" on="1"/>
        <pt x="12" y="-169" on="1"/>
        <pt x="21" y="-173" on="0"/>
        <pt x="40" y="-173" on="1"/>
        <pt x="127" y="-173" on="0"/>
        <pt x="127" y="-47" on="0"/>
        <pt x="31" y="-47" on="1"/>
        <pt x="31" y="0" on="1"/>
        <pt x="91" y="0" on="1"/>
        <pt x="91" y="-27" on="1"/>
        <pt x="173" y="-46" on="0"/>
      </contour>
    </TTGlyph>
    <TTGlyph name="cent" xMin="42" yMin="-130" xMax="431" yMax="600">
      <contour>
        <pt x="402" y="99" on="1"/>
        <pt x="431" y="99" on="1"/>
        <pt x="388" y="10" on="0"/>
        <pt x="281" y="1" on="1"/>
        <pt x="281" y="-130" on="1"/>
        <pt x="221" y="-130" on="1"/>
        <pt x="221" y="2" on="1"/>
        <pt x="134" y="15" on="0"/>
        <pt x="42" y="146" on="0"/>
        <pt x="42" y="324" on="0"/>
        <pt x="145" y="441" on="0"/>
        <pt x="221" y="457" on="1"/>
        <pt x="221" y="600" on="1"/>
        <pt x="281" y="600" on="1"/>
        <pt x="281" y="462" on="1"/>
        <pt x="342" y="459" on="0"/>
        <pt x="430" y="395" on="0"/>
        <pt x="430" y="342" on="1"/>
        <pt x="430" y="303" on="0"/>
        <pt x="384" y="252" on="0"/>
        <pt x="306" y="252" on="0"/>
        <pt x="281" y="277" on="1"/>
        <pt x="281" y="21" on="1"/>
        <pt x="320" y="24" on="0"/>
        <pt x="388" y="68" on="0"/>
      </contour>
      <contour>
        <pt x="221" y="431" on="1"/>
        <pt x="142" y="393" on="0"/>
        <pt x="142" y="74" on="0"/>
        <pt x="221" y="33" on="1"/>
      </contour>
      <contour>
        <pt x="281" y="371" on="1"/>
        <pt x="290" y="382" on="0"/>
        <pt x="311" y="382" on="0"/>
        <pt x="311" y="374" on="1"/>
        <pt x="311" y="369" on="0"/>
        <pt x="306" y="366" on="1"/>
        <pt x="282" y="350" on="0"/>
        <pt x="282" y="302" on="0"/>
        <pt x="321" y="272" on="0"/>
        <pt x="367" y="272" on="0"/>
        <pt x="410" y="307" on="0"/>
        <pt x="410" y="383" on="0"/>
        <pt x="334" y="443" on="0"/>
        <pt x="281" y="444" on="1"/>
      </contour>
    </TTGlyph>
    <TTGlyph name="circumflex" xMin="30" yMin="520" xMax="356" yMax="694">
      <contour>
        <pt x="189" y="694" on="1"/>
        <pt x="356" y="520" on="1"/>
        <pt x="301" y="520" on="1"/>
        <pt x="189" y="634" on="1"/>
        <pt x="85" y="521" on="1"/>
        <pt x="30" y="521" on="1"/>
      </contour>
    </TTGlyph>
    <TTGlyph name="colon" xMin="51" yMin="1" xMax="183" yMax="461">
      <contour>
        <pt x="51" y="368" on="0"/>
        <pt x="51" y="422" on="0"/>
        <pt x="90" y="461" on="0"/>
        <pt x="144" y="461" on="0"/>
        <pt x="183" y="422" on="0"/>
        <pt x="183" y="368" on="0"/>
        <pt x="144" y="329" on="0"/>
        <pt x="90" y="329" on="0"/>
      </contour>
      <contour>
        <pt x="51" y="40" on="0"/>
        <pt x="51" y="94" on="0"/>
        <pt x="90" y="133" on="0"/>
        <pt x="144" y="133" on="0"/>
        <pt x="183" y="94" on="0"/>
        <pt x="183" y="40" on="0"/>
        <pt x="144" y="1" on="0"/>
        <pt x="90" y="1" on="0"/>
      </contour>
    </TTGlyph>
    <TTGlyph name="comma" xMin="36" yMin="-67" xMax="177" yMax="132">
      <contour>
        <pt x="36" y="39" on="0"/>
        <pt x="36" y="93" on="0"/>
        <pt x="75" y="132" on="0"/>
        <pt x="139" y="132" on="0"/>
        <pt x="177" y="76" on="0"/>
        <pt x="177" y="3" on="0"/>
        <pt x="121" y="-67" on="0"/>
        <pt x="84" y="-67" on="1"/>
        <pt x="67" y="-67" on="0"/>
        <pt x="67" y="-56" on="1"/>
        <pt x="67" y="-48" on="0"/>
        <pt x="76" y="-46" on="1"/>
        <pt x="124" y="-31" on="0"/>
        <pt x="124" y="7" on="1"/>
        <pt x="111" y="-1" on="0"/>
        <pt x="74" y="-1" on="0"/>
      </contour>
    </TTGlyph>
    <TTGlyph name="copyright" xMin="54" yMin="75" xMax="628" yMax="649">
      <contour>
        <pt x="246" y="598" on="0"/>
        <pt x="107" y="458" on="0"/>
        <pt x="107" y="267" on="0"/>
        <pt x="246" y="128" on="0"/>
        <pt x="437" y="128" on="0"/>
        <pt x="577" y="267" on="0"/>
        <pt x="577" y="458" on="0"/>
        <pt x="437" y="598" on="0"/>
      </contour>
      <contour>
        <pt x="223" y="75" on="0"/>
        <pt x="54" y="245" on="0"/>
        <pt x="54" y="480" on="0"/>
        <pt x="224" y="649" on="0"/>
        <pt x="460" y="649" on="0"/>
        <pt x="628" y="480" on="0"/>
        <pt x="628" y="244" on="0"/>
        <pt x="459" y="75" on="0"/>
      </contour>
      <contour>
        <pt x="493" y="289" on="1"/>
        <pt x="522" y="289" on="1"/>
        <pt x="462" y="170" on="0"/>
        <pt x="342" y="170" on="1"/>
        <pt x="292" y="170" on="0"/>
        <pt x="218" y="210" on="0"/>
        <pt x="200" y="242" on="1"/>
        <pt x="164" y="302" on="0"/>
        <pt x="164" y="436" on="0"/>
        <pt x="272" y="562" on="0"/>
        <pt x="361" y="562" on="1"/>
        <pt x="422" y="562" on="0"/>
        <pt x="501" y="499" on="0"/>
        <pt x="501" y="401" on="0"/>
        <pt x="453" y="352" on="0"/>
        <pt x="386" y="352" on="0"/>
        <pt x="333" y="389" on="0"/>
        <pt x="333" y="444" on="0"/>
        <pt x="343" y="460" on="1"/>
        <pt x="357" y="482" on="0"/>
        <pt x="382" y="482" on="0"/>
        <pt x="382" y="474" on="1"/>
        <pt x="382" y="469" on="0"/>
        <pt x="378" y="466" on="1"/>
        <pt x="353" y="450" on="0"/>
        <pt x="353" y="402" on="0"/>
        <pt x="392" y="372" on="0"/>
        <pt x="436" y="372" on="0"/>
        <pt x="481" y="406" on="0"/>
        <pt x="481" y="484" on="0"/>
        <pt x="421" y="544" on="0"/>
        <pt x="377" y="544" on="1"/>
        <pt x="315" y="544" on="0"/>
        <pt x="251" y="425" on="0"/>
        <pt x="251" y="347" on="1"/>
        <pt x="251" y="307" on="0"/>
        <pt x="267" y="242" on="0"/>
        <pt x="317" y="191" on="0"/>
        <pt x="403" y="191" on="0"/>
        <pt x="473" y="250" on="0"/>
      </contour>
    </TTGlyph>
    <TTGlyph name="currency" xMin="69" yMin="144" xMax="514" yMax="585">
      <contour>
        <pt x="141" y="229" on="1"/>
        <pt x="90" y="286" on="0"/>
        <pt x="90" y="438" on="0"/>
        <pt x="142" y="497" on="1"/>
        <pt x="69" y="585" on="1"/>
        <pt x="153" y="585" on="1"/>
        <pt x="194" y="537" on="1"/>
        <pt x="241" y="563" on="0"/>
        <pt x="342" y="563" on="0"/>
        <pt x="389" y="537" on="1"/>
        <pt x="430" y="585" on="1"/>
        <pt x="514" y="585" on="1"/>
        <pt x="440" y="496" on="1"/>
        <pt x="492" y="438" on="0"/>
        <pt x="492" y="286" on="0"/>
        <pt x="440" y="228" on="1"/>
        <pt x="511" y="144" on="1"/>
        <pt x="425" y="144" on="1"/>
        <pt x="389" y="187" on="1"/>
        <pt x="345" y="161" on="0"/>
        <pt x="239" y="161" on="0"/>
        <pt x="191" y="188" on="1"/>
        <pt x="154" y="144" on="1"/>
        <pt x="70" y="144" on="1"/>
      </contour>
      <contour>
        <pt x="231" y="511" on="0"/>
        <pt x="143" y="423" on="0"/>
        <pt x="143" y="302" on="0"/>
        <pt x="231" y="214" on="0"/>
        <pt x="352" y="214" on="0"/>
        <pt x="440" y="302" on="0"/>
        <pt x="440" y="423" on="0"/>
        <pt x="352" y="511" on="0"/>
      </contour>
    </TTGlyph>
    <TTGlyph name="d" xMin="35" yMin="-10" xMax="474" yMax="750">
      <contour>
        <pt x="374" y="0" on="1"/>
        <pt x="374" y="57" on="1"/>
        <pt x="287" y="-10" on="0"/>
        <pt x="218" y="-10" on="1"/>
        <pt x="161" y="-10" on="0"/>
        <pt x="103" y="38" on="1"/>
        <pt x="73" y="63" on="0"/>
        <pt x="35" y="165" on="0"/>
        <pt x="35" y="233" on="1"/>
        <pt x="35" y="347" on="0"/>
        <pt x="142" y="473" on="0"/>
        <pt x="233" y="473" on="1"/>
        <pt x="284" y="473" on="0"/>
        <pt x="364" y="427" on="0"/>
        <pt x="374" y="386" on="1"/>
        <pt x="374" y="750" on="1"/>
        <pt x="474" y="750" on="1"/>
        <pt x="474" y="0" on="1"/>
      </contour>
      <contour>
        <pt x="135" y="220" on="1"/>
        <pt x="135" y="132" on="0"/>
        <pt x="206" y="19" on="0"/>
        <pt x="296" y="19" on="0"/>
        <pt x="374" y="82" on="1"/>
        <pt x="374" y="336" on="1"/>
        <pt x="367" y="306" on="0"/>
        <pt x="324" y="270" on="0"/>
        <pt x="313" y="270" on="1"/>
        <pt x="305" y="270" on="0"/>
        <pt x="305" y="280" on="1"/>
        <pt x="305" y="285" on="0"/>
        <pt x="323" y="297" on="1"/>
        <pt x="357" y="321" on="0"/>
        <pt x="357" y="396" on="0"/>
        <pt x="284" y="453" on="0"/>
        <pt x="245" y="453" on="1"/>
        <pt x="135" y="453" on="0"/>
      </contour>
    </TTGlyph>
    <TTGlyph name="dagger" xMin="39" yMin="-200" xMax="341" yMax="730">
      <contour>
        <pt x="220" y="300" on="1"/>
        <pt x="341" y="300" on="1"/>
        <pt x="341" y="240" on="1"/>
        <pt x="220" y="240" on="1"/>
        <pt x="220" y="-200" on="1"/>
        <pt x="160" y="-200" on="1"/>
        <pt x="160" y="240" on="1"/>
        <pt x="39" y="240" on="1"/>
        <pt x="39" y="300" on="1"/>
        <pt x="160" y="300" on="1"/>
        <pt x="160" y="730" on="1"/>
        <pt x="220" y="730" on="1"/>
      </contour>
    </TTGlyph>
    <TTGlyph name="daggerdbl" xMin="33" yMin="-200" xMax="445" yMax="730">
      <contour>
        <pt x="269" y="410" on="1"/>
        <pt x="445" y="410" on="1"/>
        <pt x="445" y="350" on="1"/>
        <pt x="269" y="350" on="1"/>
        <pt x="269" y="244" on="1"/>
        <pt x="445" y="244" on="1"/>
        <pt x="445" y="184" on="1"/>
        <pt x="269" y="184" on="1"/>
        <pt x="269" y="-200" on="1"/>
        <pt x="209" y="-200" on="1"/>
        <pt x="209" y="184" on="1"/>
        <pt x="33" y="184" on="1"/>
        <pt x="33" y="244" on="1"/>
        <pt x="209" y="244" on="1"/>
        <pt x="209" y="350" on="1"/>
        <pt x="33" y="350" on="1"/>
        <pt x="33" y="410" on="1"/>
        <pt x="209" y="410" on="1"/>
        <pt x="209" y="730" on="1"/>
        <pt x="269" y="730" on="1"/>
      </contour>
    </TTGlyph>
    <TTGlyph name="degree" xMin="29" yMin="375" xMax="278" yMax="624">
      <contour>
        <pt x="71" y="534" on="0"/>
        <pt x="71" y="466" on="0"/>
        <pt x="120" y="417" on="0"/>
        <pt x="188" y="417" on="0"/>
        <pt x="237" y="466" on="0"/>
        <pt x="237" y="534" on="0"/>
        <pt x="188" y="583" on="0"/>
        <pt x="120" y="583" on="0"/>
      </contour>
      <contour>
        <pt x="103" y="375" on="0"/>
        <pt x="29" y="449" on="0"/>
        <pt x="29" y="550" on="0"/>
        <pt x="103" y="624" on="0"/>
        <pt x="204" y="624" on="0"/>
        <pt x="278" y="550" on="0"/>
        <pt x="278" y="449" on="0"/>
        <pt x="204" y="375" on="0"/>
      </contour>
    </TTGlyph>
    <TTGlyph name="dieresis" xMin="85" yMin="546" xMax="411" yMax="652">
      <contour>
        <pt x="85" y="577" on="0"/>
        <pt x="85" y="621" on="0"/>
        <pt x="116" y="652" on="0"/>
        <pt x="160" y="652" on="0"/>
        <pt x="192" y="621" on="0"/>
        <pt x="192" y="577" on="0"/>
        <pt x="160" y="546" on="0"/>
        <pt x="116" y="546" on="0"/>
      </contour>
      <contour>
        <pt x="304" y="577" on="0"/>
        <pt x="304" y="621" on="0"/>
        <pt x="335" y="652" on="0"/>
        <pt x="379" y="652" on="0"/>
        <pt x="411" y="621" on="0"/>
        <pt x="411" y="577" on="0"/>
        <pt x="379" y="546" on="0"/>
        <pt x="335" y="546" on="0"/>
      </contour>
    </TTGlyph>
    <TTGlyph name="divide" xMin="49" yMin="1" xMax="461" yMax="461">
      <contour>
        <pt x="49" y="260" on="1"/>
        <pt x="461" y="260" on="1"/>
        <pt x="461" y="200" on="1"/>
        <pt x="49" y="200" on="1"/>
      </contour>
      <contour>
        <pt x="187" y="368" on="0"/>
        <pt x="187" y="422" on="0"/>
        <pt x="226" y="461" on="0"/>
        <pt x="280" y="461" on="0"/>
        <pt x="319" y="422" on="0"/>
        <pt x="319" y="368" on="0"/>
        <pt x="280" y="329" on="0"/>
        <pt x="226" y="329" on="0"/>
      </contour>
      <contour>
        <pt x="187" y="40" on="0"/>
        <pt x="187" y="94" on="0"/>
        <pt x="226" y="133" on="0"/>
        <pt x="280" y="133" on="0"/>
        <pt x="319" y="94" on="0"/>
        <pt x="319" y="40" on="0"/>
        <pt x="280" y="1" on="0"/>
        <pt x="226" y="1" on="0"/>
      </contour>
    </TTGlyph>
</ttFont>
